<svg width="64" height="30" viewBox="0 0 64 30" fill="none" xmlns="http://www.w3.org/2000/svg">
<path d="M19.6001 18.4318C19.434 18.1912 19.2528 17.9248 19.1235 17.7299C19.1131 17.7144 19.1002 17.7016 19.0856 17.6921C19.071 17.6827 19.055 17.6769 19.0385 17.6751C18.3946 17.599 16.8228 17.4087 15.7251 17.2762C15.7079 17.2743 15.6906 17.2767 15.6742 17.2831C15.6578 17.2895 15.6427 17.2999 15.6298 17.3136C15.6169 17.3272 15.6064 17.3439 15.599 17.3627C15.5916 17.3814 15.5875 17.4017 15.5869 17.4224C15.5768 17.7451 15.5844 18.0862 15.5958 18.2872C15.177 18.6739 14.8039 19.1272 14.4866 19.6346C14.3759 19.8029 14.3069 20.0052 14.2875 20.2183C14.2681 20.4315 14.299 20.647 14.3768 20.84C14.4546 21.033 14.576 21.1959 14.7273 21.3098C14.8785 21.4238 15.0534 21.4843 15.232 21.4845H17.2208C17.3805 21.4846 17.5381 21.442 17.6824 21.3598C17.8267 21.2777 17.9539 21.158 18.0549 21.0094L19.6026 18.6236C19.6204 18.5961 19.6298 18.562 19.6294 18.5272C19.6289 18.4923 19.6186 18.4587 19.6001 18.4318ZM61.589 10.6608C59.8892 8.76219 57.3109 7.06608 53.7046 5.47199C46.8672 2.45129 30.6497 0.10354 29.9626 0.00457493C29.894 -0.00484589 29.8245 0.000308609 29.7573 0.0198012L24.1305 1.70981H15.8898C14.2889 1.70981 11.594 2.43758 10.8575 4.3712C8.80528 5.68819 6.37024 7.27924 5.7301 7.69793C5.06969 7.61572 2.90464 7.46194 1.00199 8.63582C0.684101 8.83186 0.420471 9.1346 0.24314 9.50723C0.0658092 9.87987 -0.0175858 10.3063 0.00309104 10.7348C0.0237679 11.1633 0.147626 11.5754 0.359612 11.9209C0.571597 12.2664 0.862581 12.5306 1.1972 12.6812C1.21044 12.6877 1.22399 12.6933 1.23776 12.6979C1.46212 12.7756 6.74671 14.6163 8.63542 14.9178C9.18809 15.0061 9.78639 15.1081 10.4354 15.2177C11.5864 15.4126 12.8679 15.6288 14.3028 15.8435C14.3025 15.8435 14.3022 15.8433 14.3019 15.843C14.3017 15.8428 14.3016 15.8424 14.3016 15.842L19.6495 16.5027C19.6495 16.5027 20.7904 18.2597 20.9653 18.4912C20.6666 18.9107 20.4292 19.3879 20.263 19.9026C20.2027 20.0761 20.179 20.2648 20.194 20.452C20.209 20.6392 20.2623 20.819 20.3491 20.9756C20.4358 21.1321 20.5535 21.2604 20.6915 21.3492C20.8295 21.438 20.9836 21.4845 21.1402 21.4845H23.2038C23.3655 21.485 23.5252 21.4415 23.671 21.3574C23.8167 21.2733 23.9448 21.1507 24.0455 20.9988L25.573 18.7089C25.7179 18.4918 25.8006 18.2242 25.8087 17.9461C25.8143 17.7424 25.815 17.4466 25.7961 17.074C25.7951 17.0531 25.7977 17.0322 25.8038 17.0125C25.8098 16.9929 25.8192 16.975 25.8313 16.9599C25.8434 16.9448 25.8579 16.9329 25.874 16.9248C25.8901 16.9168 25.9074 16.9129 25.9249 16.9132C27.3984 16.9495 33.1107 16.9239 35.0524 16.8371C35.082 16.8356 35.1112 16.8467 35.1347 16.8683C35.1583 16.89 35.1748 16.9209 35.1813 16.9557C35.2499 17.2859 35.2681 17.6283 35.2351 17.9664C34.6149 18.3918 34.0878 18.9883 33.6975 19.7066C33.6014 19.8785 33.5461 20.0785 33.5373 20.2853C33.5286 20.4921 33.5669 20.6978 33.648 20.8804C33.7291 21.0631 33.85 21.2158 33.9979 21.3223C34.1457 21.4288 34.3148 21.485 34.4872 21.4849H37.3273C37.5215 21.4851 37.7121 21.422 37.8787 21.3022C38.3731 20.7998 39.6354 19.5297 39.8763 19.2872C39.9029 19.2602 39.9245 19.2269 39.9397 19.1894L41.2265 16.0627L41.4483 16.0384C41.821 15.9973 42.5122 15.9275 43.3902 15.8953C46.2385 15.7907 51.6144 14.9589 53.5956 14.5874C54.4031 14.4351 55.6618 15.0868 56.345 16.0094C56.5542 16.2926 56.8875 16.8499 56.7621 17.3949C56.3006 19.3864 54.1876 21.2393 50.812 22.6142C46.6441 24.3118 33.6196 24.8934 28.2134 25.0639C27.9056 25.0739 27.6102 25.2113 27.3771 25.4529C27.144 25.6944 26.9876 26.0254 26.9344 26.3896C26.8811 26.7538 26.9343 27.1289 27.0849 27.4514C27.2355 27.7739 27.4743 28.024 27.7608 28.1593C30.0729 29.2494 34.062 30 39.1096 30C43.3497 30 48.3376 29.4702 53.7034 28.1669C60.7778 26.4495 64 20.9805 64 16.6261C64 14.4549 63.1887 12.4482 61.589 10.6608ZM12.2595 5.98357C12.3989 5.98357 12.5351 6.03321 12.651 6.12623C12.7669 6.21925 12.8573 6.35146 12.9106 6.50614C12.9639 6.66082 12.9779 6.83103 12.9507 6.99524C12.9235 7.15945 12.8564 7.31029 12.7578 7.42868C12.6593 7.54706 12.5337 7.62769 12.397 7.66035C12.2602 7.69302 12.1185 7.67625 11.9898 7.61218C11.861 7.54811 11.7509 7.43961 11.6735 7.3004C11.596 7.16119 11.5547 6.99752 11.5547 6.83009C11.5547 6.60559 11.629 6.3903 11.7611 6.23155C11.8933 6.0728 12.0726 5.98361 12.2595 5.98357ZM10.5939 13.8611C9.94358 13.75 9.34147 13.648 8.78626 13.5597C7.45783 13.3481 4.20265 12.2792 2.55098 11.722C3.10239 11.7981 3.53083 11.8149 3.54224 11.8149C3.87435 11.8149 4.68814 11.8407 5.62996 11.8712C6.43869 11.8956 7.3336 11.9245 8.17275 11.9458L8.88133 12.9781C8.89822 13.0026 8.91985 13.0218 8.94433 13.034C8.96881 13.0461 8.9954 13.0509 9.02178 13.0479C9.04816 13.0449 9.07352 13.0342 9.09566 13.0167C9.1178 12.9993 9.13604 12.9755 9.1488 12.9476L9.58992 11.9732C9.83329 11.9747 10.0602 11.9763 10.2668 11.9763L10.8448 12.9568C10.8601 12.9828 10.8805 13.004 10.9041 13.0184C10.9278 13.0328 10.954 13.04 10.9805 13.0394C11.0071 13.0388 11.0331 13.0304 11.0562 13.0149C11.0794 12.9995 11.0991 12.9774 11.1136 12.9507L11.6713 11.9093C13.8135 11.7326 17.2474 11.4647 19.1526 15.0792C15.6655 14.7199 12.8742 14.2479 10.5939 13.8611ZM40.5483 20.0594C40.507 20.2538 40.509 20.458 40.5543 20.6512C40.5996 20.8444 40.6864 21.0198 40.8061 21.1599C40.9935 21.3732 41.2431 21.4897 41.5013 21.4845H44.2205C44.3822 21.4851 44.542 21.4418 44.6877 21.3576C44.8335 21.2735 44.9615 21.1508 45.0622 20.9988L46.7658 18.4409C46.8678 18.2884 46.9396 18.1101 46.9759 17.9194C47.0121 17.7288 47.0118 17.5307 46.975 17.3401L46.925 16.8479C46.9213 16.8092 46.9053 16.7737 46.8803 16.7489C46.8553 16.724 46.8233 16.7117 46.7909 16.7145C45.6398 16.8155 42.5988 17.0142 41.8955 17.0664C41.8644 17.0686 41.8351 17.0845 41.8133 17.111C41.7914 17.1376 41.7785 17.1729 41.777 17.2103C41.76 17.4759 41.7591 17.7427 41.7741 18.0085C41.4675 18.2367 41.2014 18.5353 40.991 18.8873C40.7807 19.2392 40.6302 19.6375 40.5483 20.0594Z" fill="black"/>
</svg>
