<svg width="55" height="47" viewBox="0 0 55 47" fill="none" xmlns="http://www.w3.org/2000/svg">
<path d="M29.2709 12.0862C29.2709 12.0862 31.6454 9.79615 33.7743 9.03281C33.7743 9.03281 28.7796 2.2264 18.2169 0C18.2169 0 14.6141 2.16279 13.959 6.42475C13.959 6.42475 11.1751 6.99725 11.1751 8.46031L14.5322 9.73254C14.5322 9.73254 20.919 8.77837 21.7378 8.9692C22.5566 9.16004 21.9834 11.45 21.2465 11.8317C21.2465 11.8317 21.4921 12.595 21.9834 12.9131C21.9834 12.9131 20.3458 15.5212 16.088 14.1217C16.088 14.1217 18.4625 18.0656 12.4852 19.0834C12.4852 19.0834 9.04615 18.3201 8.55487 14.7578C8.55487 14.7578 12.5671 15.0123 12.9765 15.4576C12.9765 15.4576 13.8772 14.9487 10.6019 14.5034C10.6019 14.5034 10.1106 14.1217 11.912 12.9131L10.6838 12.8495L10.3563 10.1778C10.3563 10.1778 2.82317 11.5137 0.939896 16.0301C0.939896 16.0301 -3.23606 25.3809 6.01654 45.6094C6.01654 45.6094 12.1576 46.5635 16.2517 45.4185C16.2517 45.4185 16.4974 42.4924 15.9242 42.1107L13.2221 40.9021C13.2221 40.9021 18.5444 33.6504 16.9068 32.3146C16.9068 32.3146 15.351 31.1696 14.9416 30.4698C14.9416 30.4698 17.2343 31.3604 18.135 31.3604C18.135 31.3604 19.1995 28.0526 21.2465 25.699C21.2465 25.699 16.3336 41.6018 18.3806 45.991C18.3806 45.991 32.1367 49.0444 31.3998 44.528C31.3998 44.528 31.4817 42.8741 29.3528 41.4746C29.3528 41.4746 33.1193 38.1668 33.2831 37.7215C33.2831 37.7215 36.3946 36.3857 34.1019 30.9151C31.8092 25.4445 34.02 30.7879 34.02 30.7879C34.02 30.7879 49.6593 19.6559 39.5879 10.8775C39.5879 10.8775 35.5757 7.18808 29.2709 12.0862Z" fill="black"/>
<path d="M20.625 10.0511H18.4499H12.6777L11.1719 9.40002C11.1719 9.40002 11.8411 11.6788 12.1757 11.8416C12.1757 11.8416 14.0162 11.923 15.02 11.2719C15.02 11.2719 16.9441 12.7368 17.5297 12.8182C17.5297 12.8182 20.374 11.5974 20.625 10.0511Z" fill="black"/>
<path d="M14.5602 11.9636L13.8788 13.0512C13.8788 13.0512 13.3109 13.6727 14.5602 13.6727H15.4688V12.2744C15.4688 12.2744 15.0145 11.9636 14.7873 11.9636" fill="black"/>
<path d="M13.75 11.9636L13.0134 12.8182L12.0312 12.7114C12.0312 12.7114 12.7679 12.017 13.75 11.9636Z" fill="black"/>
<path d="M43.4148 22.248C43.4148 22.248 39.7543 28.1715 36.0938 30.6825L36.6632 34.4169C36.6632 34.4169 38.5341 34.0306 38.6968 34.1593C38.8595 34.2881 43.9029 42.1431 43.8215 42.5938C43.8215 42.5938 42.1133 43.1733 42.1133 43.624L41.9506 44.9761C41.9506 44.9761 50.9799 45.6843 53.583 44.9761C53.583 44.9761 56.3487 42.5294 54.1524 37.2498C54.1524 37.2498 50.2478 33.773 50.1665 32.6141C50.1665 32.6141 49.4344 30.6181 50.6545 28.1715C50.7359 28.0427 52.6068 21.733 43.4148 22.248Z" fill="black"/>
<path d="M36.2801 36.026C36.2801 36.026 36.3677 38.0685 30.9375 41.3726C30.9375 41.3726 33.3898 43.7154 32.8643 44.4363L35.3167 44.196C35.3167 44.196 36.9808 40.5916 36.9808 40.2312C36.9808 40.2312 35.7546 39.4502 35.5794 39.0297C35.5794 39.0297 39.9586 37.2275 38.2945 36.026C37.8566 35.8458 36.2801 35.8458 36.2801 36.026Z" fill="black"/>
</svg>
