<svg width="32" height="59" viewBox="0 0 32 59" fill="none" xmlns="http://www.w3.org/2000/svg">
<path fill-rule="evenodd" clip-rule="evenodd" d="M11.0618 53.6969V55.2321L11.784 56.1838C12.5365 57.1767 11.3126 56.9259 10.0091 56.962L9.02201 56.9879L8.27471 57.567C6.94978 58.5909 6.32494 59.0925 6.70708 57.3744L6.90109 56.4951L5.49133 56.5032C4.06534 56.3999 4.25714 56.166 5.60568 55.6172L7.84905 54.7017L8.12422 53.5804C2.82156 49.7959 2.87394 40.7937 4.39805 35.0654L6.8015 26.0284C3.40952 29.852 3.51058 31.4012 1.94221 36.2501C1.51213 37.5809 0.502941 38.5562 0.201955 36.6868C-0.415507 32.8685 0.395973 28.1611 2.45713 25.0428C4.95944 21.2554 9.85119 14.2369 9.98177 12.6567C10.1728 10.3491 9.35693 8.07626 9.35693 5.37181C9.35693 -1.7906 22.6431 -1.7906 22.6431 5.37181C22.6431 8.07626 21.8272 10.3491 22.0182 12.6567C22.1488 14.2369 27.0406 21.2554 29.5429 25.0428C31.604 28.1611 32.4155 32.8685 31.798 36.6868C31.4971 38.5562 30.4879 37.5809 30.0578 36.2501C28.4894 31.4012 28.5905 29.852 25.1985 26.0284L27.602 35.0654C29.1261 40.7937 29.1784 49.7959 23.8758 53.5804L24.151 54.7017L26.3943 55.6172C27.7429 56.166 27.9347 56.3999 26.5087 56.5032L25.0989 56.4951L25.2929 57.3744C25.6751 59.0925 25.0502 58.5909 23.7253 57.567L22.978 56.9879L21.9909 56.962C20.6874 56.9259 19.4635 57.1767 20.216 56.1838L20.9382 55.2321V53.6969H11.0618ZM19.6059 4.78165C20.1068 4.78165 20.5126 5.18739 20.5126 5.68755C20.5126 6.1892 20.1068 6.59494 19.6059 6.59494C19.105 6.59494 18.6993 6.1892 18.6993 5.68755C18.6993 5.18739 19.105 4.78165 19.6059 4.78165ZM12.3941 4.78165C12.8942 4.78165 13.3 5.18739 13.3 5.68755C13.3 6.1892 12.8942 6.59494 12.3941 6.59494C11.8924 6.59494 11.4867 6.1892 11.4867 5.68755C11.4867 5.18739 11.8924 4.78165 12.3941 4.78165ZM15.9993 10.4214L17.9948 7.53699L17.2821 6.72256C17.3581 5.21026 19.0851 3.23246 20.5377 3.95836C22.0485 4.7123 22.1672 9.85487 18.1194 11.1319C22.362 14.5047 24.6356 27.6883 24.6356 35.224C24.6356 43.9142 20.7693 50.9593 16 50.9593C11.2307 50.9593 7.36438 43.9142 7.36438 35.224C7.36438 27.6979 9.67783 14.5393 13.9219 11.1451C9.70144 9.85192 9.95816 4.38402 11.6106 3.90008C13.0366 3.4818 14.5954 5.30542 14.6692 6.76609L14.0045 7.53699L15.9993 10.4214Z" fill="black"/>
</svg>
