<svg width="50" height="49" viewBox="0 0 50 49" fill="none" xmlns="http://www.w3.org/2000/svg">
<path d="M31.9345 8.61115C31.1576 8.29831 25.9514 6.81151 24.3201 9.15879C24.3201 9.15879 23.6983 9.70643 24.7089 11.0371C24.7089 11.0371 25.4858 9.55032 26.5739 9.39358C26.772 9.36526 27.0464 9.35267 27.3664 9.34889L27.5064 8.21963L27.7864 9.34889C29.2301 9.36211 31.2626 9.48926 32.0126 9.31553C32.0126 9.31553 31.4689 9.70643 29.4483 9.78511L29.5258 11.8196L28.8589 9.804C28.0126 9.82917 27.3526 9.8575 26.6726 10.1225L26.8064 12.68L26.1514 10.3711C25.6751 10.6412 25.1639 11.0472 24.5533 11.6628C24.5533 11.6628 25.2526 13.6973 27.1951 13.6192C29.1376 13.5411 33.2557 10.2541 33.8776 8.37636C33.877 8.37636 32.7114 8.92463 31.9345 8.61115Z" fill="black"/>
<path d="M26.8105 1.47044C26.0224 1.75433 21.1449 4.11483 21.4674 6.96192C21.4674 6.96192 21.3624 7.78715 22.9937 8.10944C22.9937 8.10944 22.5974 6.47723 23.3093 5.63437C23.4387 5.48078 23.6362 5.28816 23.8731 5.07225L23.2356 4.13309L24.1881 4.79214C25.2781 3.8385 26.8843 2.57767 27.3318 1.94694C27.3318 1.94694 27.1818 2.60285 25.7199 4.00971L27.1168 5.48204L25.2912 4.41761C24.6743 5.00112 24.1981 5.46252 23.8631 6.11528L25.6456 7.942L23.6362 6.6497C23.4574 7.17027 23.3412 7.81485 23.2887 8.68351C23.2887 8.68351 25.1512 9.74102 26.5543 8.38577C27.958 7.03116 28.8805 1.82105 28.1105 9.99995e-07C28.1112 -0.00125794 27.5987 1.18655 26.8105 1.47044Z" fill="black"/>
<path d="M49.8061 20.0366C49.7286 17.8454 47.2417 15.4975 46.1542 14.2455C45.0667 12.9935 42.8911 12.4459 40.9486 12.4459C39.0061 12.4459 37.9961 14.0894 37.9961 14.0894C37.9961 14.0894 40.7936 13.385 41.5705 13.6198C42.3474 13.8546 46.2324 16.5154 47.7867 19.4109C49.3405 22.3065 47.6311 24.3409 46.8542 25.8277C46.0774 27.3145 42.8136 27.706 40.0942 27.4713C37.3749 27.2365 35.8986 25.8277 35.2768 24.5757C34.6549 23.3237 34.733 21.0545 34.733 21.0545L27.7399 26.2973C28.3618 27.3926 30.848 28.3317 32.7124 28.4885C34.5774 28.6452 37.0636 29.7405 37.763 30.2101C38.4624 30.6797 37.2968 31.3053 37.2968 31.3053C34.888 29.8966 29.4493 28.2537 28.3612 28.2537C27.2737 28.2537 22.1449 21.993 20.7468 19.9586C19.3481 17.9241 19.9699 16.2806 19.9699 14.8718C19.9699 13.4631 21.9124 9.3942 21.9124 9.3942C21.9124 9.3942 21.5237 7.43781 18.8824 9.55093C16.7412 11.2637 14.6006 14.982 13.6175 19.8295C14.6012 18.9036 15.4637 18.0809 15.4637 18.0809L13.44 20.8127C13.3025 21.648 13.1962 22.511 13.1325 23.4017C13.0843 24.0797 13.0631 24.7129 13.0625 25.3103L14.7637 23.9494L13.0693 25.8995C13.125 28.1819 13.5118 29.879 14.0037 31.2556L15.3074 29.1922L14.5125 32.5171C14.9237 33.4348 15.3525 34.2173 15.6956 34.9827C16.3049 36.3411 17.7424 38.0186 19.0262 39.3688L21.0568 37.6428L20.0618 40.427C20.6193 40.9828 21.0724 41.4146 21.2899 41.6343C22.0668 42.4167 20.9793 42.8082 20.9793 42.8082C17.4049 41.4001 12.9762 32.7141 12.9762 32.7141C12.9762 32.7141 9.01372 33.0269 7.14873 30.2101C5.28373 27.3932 6.60498 23.8713 7.61498 21.8369C8.62497 19.8024 7.61498 20.3501 7.61498 20.3501C7.61498 20.3501 5.74998 20.6629 5.20623 20.8977C4.66248 21.1325 1.39875 25.0453 0.932497 25.5149C0.466248 25.9845 0.388749 26.7669 0.388749 26.7669L1.70937 25.5929C1.70937 25.5929 1.32062 26.7669 0.776872 27.7841C0.233124 28.8013 0 30.8358 0 30.8358L1.16562 29.1922V34.2003C0.776872 36.5482 1.16562 37.3306 1.16562 37.3306L1.94249 33.8874C1.94249 33.8874 1.94249 36.5482 1.94249 37.4087C1.94249 38.2691 3.96249 42.2606 5.90498 45.5471C7.84747 48.8335 20.5124 49.225 23.1543 48.9122C25.7649 48.6031 33.7605 43.862 37.848 40.1248L34.1105 40.6951L39.3955 38.5002C40.1086 37.6485 40.7792 36.7081 41.393 35.7544L38.3836 37.0171C38.4936 36.9435 40.1692 35.9508 41.913 34.921C43.8774 31.6862 45.143 28.5659 45.143 28.5659C45.143 28.5659 48.0955 26.9224 49.2611 25.2008C50.4273 23.4798 49.8836 22.2278 49.8061 20.0366Z" fill="black"/>
<path d="M39.3947 17.0629C39.7809 17.0629 40.0941 16.7476 40.0941 16.3585C40.0941 15.9695 39.7809 15.6542 39.3947 15.6542C39.0084 15.6542 38.6953 15.9695 38.6953 16.3585C38.6953 16.7476 39.0084 17.0629 39.3947 17.0629Z" fill="black"/>
<path d="M44.8335 22.5407C45.2626 22.5407 45.6104 22.1904 45.6104 21.7583C45.6104 21.3261 45.2626 20.9758 44.8335 20.9758C44.4045 20.9758 44.0566 21.3261 44.0566 21.7583C44.0566 22.1904 44.4045 22.5407 44.8335 22.5407Z" fill="black"/>
<path d="M39.3952 26.4534C40.4052 26.5314 44.2127 26.3753 45.3002 25.827C46.3877 25.2794 47.7864 23.6359 47.4758 22.1491C47.1652 20.6623 46.3102 17.5319 44.3677 16.2799C42.4252 15.0279 40.9489 14.4016 40.1721 14.4016C39.3952 14.4016 38.074 14.3235 37.4527 15.1059C37.4527 15.1059 36.5977 15.6536 36.2096 18.0015C35.8208 20.3494 35.3546 22.1491 36.054 23.6359C36.7533 25.1233 38.3852 26.3753 39.3952 26.4534ZM39.939 15.4194C41.1046 16.4366 41.0264 17.2191 40.6383 17.8454C40.2496 18.4717 39.7833 19.0193 39.7833 19.0193L39.2396 19.1761L38.5402 18.7065L38.2296 19.1761L38.3852 20.9757C38.3852 20.9757 39.1621 22.7754 40.2502 22.9321C41.3377 23.0889 42.1152 23.0889 42.1152 22.7754C42.1152 22.4619 41.8821 21.8362 42.4258 21.3666C42.9696 20.8971 44.6789 20.0366 45.2233 20.5055C45.7671 20.9751 46.3889 23.4791 45.8452 24.0268C45.3014 24.5744 45.3789 24.4964 44.9127 24.0268C44.4464 23.5572 43.4364 21.4441 43.4364 21.4441C43.4364 21.4441 42.5814 21.4441 42.5814 22.1484C42.5814 22.8528 43.1252 23.2437 42.3483 23.5572C41.5714 23.87 39.3183 23.4004 38.9296 23.0095C38.5408 22.618 37.9971 21.8356 37.9196 21.0532C37.8421 20.2707 37.5308 19.4883 37.764 19.0187C37.9971 18.5491 38.3077 17.688 38.619 18.0796C38.9296 18.4705 39.2408 19.0187 39.629 18.6272C40.0177 18.2363 40.2508 17.61 40.2508 17.61C40.2508 17.61 38.619 17.2971 37.5315 16.358C37.5302 16.3586 38.7733 14.4022 39.939 15.4194ZM41.8039 21.5234L41.1046 22.2277C41.1046 22.2277 39.8614 21.993 39.1621 20.9757C38.4627 19.9585 39.8615 19.4889 39.8615 19.4889C40.9489 20.0366 41.8039 21.5234 41.8039 21.5234Z" fill="black"/>
</svg>
