<svg width="284" height="246" viewBox="0 0 284 246" fill="none" xmlns="http://www.w3.org/2000/svg">
<path d="M82.6879 181.13C81.9873 180.123 81.2226 179.008 80.6771 178.193C80.6334 178.128 80.5791 178.074 80.5175 178.035C80.456 177.995 80.3884 177.971 80.3188 177.963C77.6022 177.645 70.9712 176.848 66.3401 176.294C66.2677 176.286 66.1947 176.296 66.1256 176.323C66.0565 176.35 65.9927 176.393 65.9382 176.451C65.8836 176.508 65.8394 176.578 65.8083 176.656C65.7772 176.734 65.7598 176.819 65.7572 176.906C65.7144 178.256 65.7465 179.684 65.7946 180.525C64.0279 182.143 62.4538 184.04 61.1154 186.163C60.6484 186.867 60.3573 187.714 60.2753 188.606C60.1934 189.498 60.324 190.4 60.6521 191.207C60.9802 192.015 61.4926 192.696 62.1307 193.173C62.7687 193.65 63.5066 193.904 64.2599 193.904H72.6503C73.3239 193.904 73.989 193.726 74.5976 193.382C75.2062 193.039 75.743 192.538 76.1691 191.916L82.6985 181.933C82.7736 181.817 82.8134 181.675 82.8115 181.529C82.8095 181.383 82.7659 181.242 82.6879 181.13ZM259.829 148.611C252.658 140.666 241.78 133.569 226.566 126.898C197.721 114.258 129.303 104.433 126.405 104.019C126.115 103.98 125.822 104.001 125.539 104.083L101.8 111.155H67.0353C60.2812 111.155 48.9121 114.2 45.8051 122.292C37.1473 127.803 26.8744 134.461 24.1739 136.213C21.3877 135.869 12.254 135.225 4.22713 140.138C2.88605 140.958 1.77386 142.225 1.02575 143.784C0.277633 145.343 -0.0741901 147.128 0.0130403 148.921C0.100271 150.714 0.622798 152.438 1.51711 153.884C2.41143 155.33 3.63901 156.436 5.05067 157.066C5.10656 157.093 5.1637 157.116 5.2218 157.136C6.16833 157.461 28.4627 165.164 36.4307 166.425C38.7623 166.795 41.2864 167.222 44.0243 167.68C48.88 168.496 54.2865 169.4 60.34 170.299C60.3386 170.299 60.3372 170.298 60.3362 170.297C60.3352 170.296 60.3347 170.294 60.3347 170.292L82.8964 173.058C82.8964 173.058 87.7093 180.41 88.4473 181.378C87.1873 183.134 86.1856 185.131 85.4847 187.284C85.2302 188.011 85.1301 188.8 85.1934 189.584C85.2567 190.367 85.4814 191.12 85.8476 191.775C86.2137 192.43 86.71 192.967 87.2922 193.338C87.8745 193.71 88.5247 193.904 89.1852 193.904H97.8912C98.5734 193.906 99.2471 193.724 99.862 193.372C100.477 193.02 101.017 192.507 101.442 191.872L107.886 182.289C108.498 181.381 108.846 180.261 108.881 179.097C108.904 178.245 108.907 177.007 108.827 175.448C108.823 175.361 108.834 175.273 108.86 175.191C108.885 175.109 108.925 175.034 108.976 174.971C109.027 174.907 109.088 174.857 109.156 174.824C109.224 174.79 109.297 174.774 109.37 174.775C115.587 174.927 139.686 174.82 147.877 174.457C148.002 174.45 148.125 174.497 148.225 174.587C148.324 174.678 148.394 174.808 148.421 174.953C148.711 176.335 148.787 177.768 148.648 179.182C146.032 180.962 143.808 183.459 142.161 186.465C141.756 187.184 141.522 188.021 141.486 188.886C141.449 189.751 141.61 190.612 141.952 191.377C142.295 192.141 142.805 192.78 143.428 193.226C144.052 193.671 144.766 193.906 145.493 193.906H157.475C158.294 193.907 159.098 193.643 159.801 193.142C161.887 191.039 167.212 185.724 168.228 184.709C168.34 184.597 168.432 184.457 168.496 184.3L173.924 171.216L174.86 171.114C176.432 170.942 179.348 170.651 183.053 170.515C195.069 170.078 217.748 166.597 226.106 165.043C229.513 164.405 234.823 167.132 237.706 170.993C238.588 172.178 239.994 174.51 239.465 176.791C237.518 185.125 228.604 192.878 214.363 198.632C196.78 205.735 141.833 208.169 119.025 208.883C117.727 208.924 116.48 209.499 115.497 210.51C114.514 211.521 113.854 212.906 113.629 214.43C113.405 215.954 113.629 217.524 114.265 218.873C114.9 220.223 115.907 221.269 117.116 221.836C126.87 226.397 143.699 229.538 164.994 229.538C182.881 229.538 203.924 227.321 226.561 221.867C256.406 214.681 270 191.795 270 173.574C270 164.488 266.578 156.091 259.829 148.611ZM51.7196 129.039C52.3077 129.039 52.8825 129.247 53.3715 129.636C53.8604 130.025 54.2415 130.578 54.4666 131.226C54.6916 131.873 54.7505 132.585 54.6358 133.272C54.5211 133.96 54.2379 134.591 53.8221 135.086C53.4062 135.582 52.8764 135.919 52.2997 136.056C51.7229 136.192 51.1251 136.122 50.5818 135.854C50.0385 135.586 49.5741 135.132 49.2474 134.549C48.9207 133.967 48.7463 133.282 48.7463 132.581C48.7465 131.642 49.0598 130.741 49.6173 130.077C50.1749 129.412 50.9311 129.039 51.7196 129.039ZM44.6928 162.004C41.9495 161.538 39.4093 161.112 37.0671 160.742C31.4627 159.856 17.7299 155.384 10.762 153.052C13.0882 153.371 14.8957 153.441 14.9438 153.441C16.3449 153.441 19.7781 153.549 23.7514 153.676C27.1632 153.778 30.9386 153.899 34.4788 153.989L37.4681 158.308C37.5394 158.411 37.6306 158.491 37.7339 158.542C37.8372 158.593 37.9493 158.613 38.0606 158.601C38.1719 158.588 38.2789 158.543 38.3723 158.47C38.4657 158.397 38.5427 158.298 38.5965 158.181L40.4575 154.103C41.4842 154.11 42.4414 154.116 43.3131 154.116L45.7516 158.219C45.8161 158.328 45.902 158.417 46.0018 158.477C46.1016 158.537 46.2123 158.567 46.3242 158.565C46.436 158.562 46.5457 158.527 46.6435 158.462C46.7414 158.398 46.8244 158.305 46.8853 158.194L49.2383 153.836C58.2758 153.097 72.7626 151.975 80.8001 167.1C66.0888 165.597 54.3132 163.622 44.6928 162.004ZM171.063 187.941C170.889 188.754 170.897 189.609 171.088 190.417C171.279 191.226 171.646 191.96 172.151 192.546C172.942 193.438 173.994 193.926 175.083 193.904H186.555C187.238 193.907 187.911 193.725 188.526 193.373C189.141 193.021 189.681 192.508 190.106 191.872L197.293 181.168C197.724 180.53 198.027 179.784 198.179 178.986C198.332 178.188 198.331 177.359 198.176 176.562L197.965 174.502C197.949 174.34 197.882 174.191 197.776 174.088C197.671 173.984 197.536 173.932 197.399 173.944C192.543 174.366 179.713 175.198 176.747 175.416C176.616 175.425 176.492 175.492 176.4 175.603C176.307 175.714 176.253 175.862 176.247 176.018C176.175 177.13 176.171 178.246 176.234 179.359C174.941 180.314 173.818 181.563 172.931 183.036C172.044 184.508 171.409 186.175 171.063 187.941Z" fill="black"/>
</svg>
