<svg width="284" height="246" viewBox="0 0 284 246" fill="none" xmlns="http://www.w3.org/2000/svg">
<path d="M92.0011 131.298L110.984 61.4721L159.593 29.8421H169.469L218.836 0V9.54835L172.838 36.4055L231.745 13.1293L253.01 13.7278L238.581 27.4531L178.579 46.5498L247.694 34.019L273.516 34.615L250.731 44.1633L189.213 54.9062L253.01 53.7142L281.113 60.2776L253.01 69.23L195.29 65.649L241.617 75.1999L254.53 85.9428L236.302 87.7333L199.847 76.9879L235.54 94.2966L241.617 105.638L206.682 107.428L215.796 113.936L218.836 125.929L207.441 131.298L211.239 141.445L202.125 145.624L202.884 152.786H186.554V160.547H172.838L177.821 166.514L157.318 164.128L177.821 174.269L193.773 183.224L253.01 187.401L261.365 195.755L253.01 200.533L211.239 190.389L257.567 205.309L264.402 211.872H245.413L211.239 200.533L252.251 216.049L257.567 223.216L245.413 226.193L183.139 202.922L164.15 201.728L177.062 219.63L164.912 216.647L172.838 226.193L130.735 223.216L115.544 213.662L113.266 202.922L101.87 178.446L60.0995 156.362L70.7721 156.532L60.0995 148.574L74.8287 147.78L64.7015 143.403L74.3221 142.208L65.7149 137.433L77.3589 134.648L67.7384 127.882L92.0011 131.298Z" fill="black"/>
<path d="M91.3694 120.19L42.0793 107.192L35.6667 92.3361L25.5395 102.95V110.905L55.2466 123.639L89.3394 128.678L91.3694 120.19Z" fill="black"/>
<path d="M138.628 228.23L130.527 234.063V239.373L131.873 243.35L125.125 240.431V233.538L120.736 240.167L123.098 246L115.675 238.574L123.776 228.23L129.511 227.063L138.628 228.23Z" fill="black"/>
<path d="M119.765 229.556L113.31 232.308L111.28 238.042L115.676 242.653L113.31 238.075L119.765 229.556Z" fill="black"/>
<path d="M118.961 221.456L106.978 229.351L104.616 233.989L100.569 235.234L105.549 226.193L97.103 229.414L94.9116 238.564L92.0426 233.923L96.9384 224.441L90.5226 229.016L89.8513 236.178L86.5562 230.01L94.4049 220.396H108.921L113.397 215.757L118.961 221.456Z" fill="black"/>
<path d="M3.59856 137.699L9.67552 132.921H19.4606L19.8027 130.266L29.9299 126.553H60.0984L70.4386 133.187L54.2345 134.782L68.7508 140.149L52.8855 142.472L67.7406 146.451H54.2345L63.6904 153.745H54.0731L16.6012 144.595H6.98075L0.907013 147.379L3.59856 137.699ZM28.5809 136.347C29.9686 136.347 31.0917 135.462 31.0917 134.374C31.0917 133.281 29.9654 132.399 28.5809 132.399C27.1899 132.399 26.0636 133.284 26.0636 134.374C26.0636 135.462 27.1932 136.347 28.5809 136.347Z" fill="black"/>
</svg>
