<svg width="284" height="246" viewBox="0 0 284 246" fill="none" xmlns="http://www.w3.org/2000/svg">
<path d="M152.161 63.6031C152.161 63.6031 164.44 51.7076 175.449 47.7424C175.449 47.7424 149.621 12.3863 95.0003 0.821167C95.0003 0.821167 76.37 12.0558 72.9827 34.1947C72.9827 34.1947 58.5866 37.1686 58.5866 44.7685L75.9466 51.3772C75.9466 51.3772 108.973 46.4207 113.207 47.412C117.441 48.4033 114.477 60.2988 110.667 62.2814C110.667 62.2814 111.937 66.2466 114.477 67.8987C114.477 67.8987 106.009 81.4464 83.9915 74.1769C83.9915 74.1769 96.2705 94.6637 65.3612 99.9505C65.3612 99.9505 47.5777 95.9854 45.0372 77.4812C45.0372 77.4812 65.7846 78.8029 67.9017 81.116C67.9017 81.116 72.5592 78.4725 55.6226 76.1595C55.6226 76.1595 53.0821 74.1769 62.3973 67.8987L56.046 67.5683L54.3524 53.6902C54.3524 53.6902 15.3982 60.6292 5.65961 84.0899C5.65961 84.0899 -15.9346 132.663 31.9114 237.74C31.9114 237.74 63.6675 242.697 84.8383 236.749C84.8383 236.749 86.1086 221.549 83.1447 219.567L69.172 213.288C69.172 213.288 96.694 175.619 88.2256 168.68C88.2256 168.68 80.1808 162.732 78.0637 159.098C78.0637 159.098 89.9193 163.724 94.5769 163.724C94.5769 163.724 100.081 146.541 110.667 134.315C110.667 134.315 85.2617 216.923 95.8471 239.723C95.8471 239.723 166.981 255.584 163.17 232.123C163.17 232.123 163.594 223.532 152.585 216.262C152.585 216.262 172.062 199.08 172.909 196.767C172.909 196.767 188.999 189.828 177.143 161.411C165.287 132.994 176.72 160.75 176.72 160.75C176.72 160.75 257.592 102.924 205.512 57.3249C205.512 57.3249 184.764 38.1599 152.161 63.6031Z" fill="black"/>
<path d="M107.28 54.6816H96.271H67.0553L59.4338 52.0381C59.4338 52.0381 62.8211 61.2902 64.5148 61.9511C64.5148 61.9511 73.8299 62.2815 78.9109 59.6381C78.9109 59.6381 88.6495 65.5858 91.6134 65.9163C91.6134 65.9163 106.01 60.9598 107.28 54.6816Z" fill="black"/>
<path d="M75.0992 63.9334L72.5587 68.5595C72.5587 68.5595 70.4416 71.2029 75.0992 71.2029H78.4866V65.2551C78.4866 65.2551 76.7929 63.9334 75.9461 63.9334" fill="black"/>
<path d="M72.9845 63.9334L69.1738 69.2203L64.0928 68.5595C64.0928 68.5595 67.9035 64.2638 72.9845 63.9334Z" fill="black"/>
<path d="M222.871 118.124C222.871 118.124 203.817 148.524 184.764 161.411L187.728 180.576C187.728 180.576 197.466 178.593 198.313 179.254C199.16 179.915 225.412 220.228 224.988 222.541C224.988 222.541 216.096 225.515 216.096 227.828L215.25 234.767C215.25 234.767 262.249 238.401 275.798 234.767C275.798 234.767 290.194 222.21 278.762 195.115C278.762 195.115 258.438 177.272 258.015 171.324C258.015 171.324 254.204 161.08 260.555 148.524C260.978 147.863 270.717 115.481 222.871 118.124Z" fill="black"/>
<path d="M186.883 185.532C186.883 185.532 187.306 196.767 161.055 214.94C161.055 214.94 172.91 227.827 170.37 231.792L182.225 230.471C182.225 230.471 190.27 210.645 190.27 208.662C190.27 208.662 184.342 204.367 183.496 202.053C183.496 202.053 204.666 192.141 196.622 185.532C194.504 184.541 186.883 184.541 186.883 185.532Z" fill="black"/>
</svg>
