<svg width="69" height="30" viewBox="0 0 69 30" fill="none" xmlns="http://www.w3.org/2000/svg">
<path opacity="0.5" d="M34.1533 6.92734C34.1471 6.92734 34.1425 6.92734 34.1371 6.92657C34.5145 6.94336 34.6057 6.94717 34.1533 6.92734Z" fill="black"/>
<path d="M67.8488 18.6362C67.0392 18.3036 62.7929 16.0898 61.0522 15.9647C59.3115 15.8396 59.7229 16.2912 58.1546 15.4124C56.5848 14.5336 56.5848 14.5336 56.5848 14.5336C56.5848 14.5336 57.3202 13.1537 57.6365 11.29C57.9527 9.42643 58.2489 8.40499 58.2489 8.40499C58.2489 8.40499 61.0584 6.45593 62.5207 7.26759C63.9846 8.08002 63.9761 8.11663 64.7594 7.71385C65.5428 7.31108 64.7463 6.51467 64.7463 6.51467C64.7463 6.51467 65.3588 7.28361 65.7763 6.46509C65.9565 6.11113 66.4948 5.19801 65.4214 4.04079C64.0867 2.60207 64.9953 2.62496 64.3527 2.25117C63.7085 1.87585 62.1642 0.93222 60.9648 0.725491C59.7399 0.514184 59.7569 0.669041 58.9232 0.466125C58.6634 0.765158 59.3888 1.54859 59.3888 1.54859C59.3888 1.54859 57.208 1.47155 55.8834 2.1642C54.5602 2.85381 54.5757 3.00409 53.0175 3.6998C51.4592 4.39703 51.8521 3.71353 49.6713 4.48171C47.4906 5.24989 45.4243 7.20428 43.812 7.6185C41.4766 8.21809 32.5046 6.85947 34.1363 6.92584C33.0815 6.87931 29.7856 6.73208 29.7856 6.73208C24.8844 7.00365 23.0972 7.36066 17.292 12.4068C11.4867 17.453 9.21859 18.0564 5.09529 18.138C0.971991 18.2212 2.68565 17.1334 1.01066 17.1013C-0.663565 17.0693 0.244303 17.9916 0.25745 18.6819C0.270596 19.3746 2.60059 20.1138 5.33347 20.1138C8.06713 20.1138 12.2044 18.9978 19.2059 13.4229C21.3047 11.7523 22.5002 10.7904 23.1475 10.261C22.9549 11.1573 21.5607 17.4667 20.2259 18.1037C18.7883 18.7918 16.4901 19.6775 14.8452 20.869C13.2004 22.0621 12.2059 25.4323 12.0799 26.437C11.953 27.4409 12.376 27.9405 12.9011 28.2739C13.4254 28.6065 13.6512 29.0771 14.4377 29.0771C15.2241 29.0771 14.7911 28.4356 14.5212 28.0618C13.9667 27.2929 13.0318 26.4766 14.5599 24.5787C16.6927 21.9278 19.4031 22.3077 22.5892 20.5959C25.7744 18.8856 30.1738 14.809 30.1738 14.809C30.1738 14.809 32.5425 14.3246 34.5887 15.3216C36.6356 16.3194 38.2333 17.7185 41.2948 18.241C44.3571 18.7613 52.3493 16.903 52.3493 16.903C52.3493 16.903 53.5673 18.4973 55.7171 18.5973C57.8661 18.6972 59.6424 17.5217 60.599 17.7055C61.5572 17.8886 65.2536 18.6446 66.1769 19.2022C67.0995 19.7591 66.7816 21.0513 68.9183 20.1138C69.2176 19.9803 68.6569 18.9673 67.8488 18.6362Z" fill="black"/>
<path opacity="0.5" d="M58.924 0.0091534L58.9216 0C58.9216 0 58.9232 0.00381353 58.924 0.0091534Z" fill="black"/>
<path d="M30.5534 15.5749C29.9378 16.1348 27.9311 17.9274 25.7913 19.4958C26.1718 20.4044 26.4672 21.2588 26.4726 21.734C26.4896 23.0911 24.2749 26.3705 24.2911 27.3973C24.3073 28.4272 24.7551 28.8856 25.3235 29.4059C25.8926 29.9261 26.4162 30.4815 26.577 29.2899C26.7379 28.0991 25.7155 28.6003 25.7125 27.8909C25.7094 27.1814 26.6335 25.6367 27.372 24.7022C28.1105 23.7693 29.9603 22.107 30.7676 20.6195C31.2556 19.7194 32.083 17.3332 32.6607 15.5863C32.2601 15.5268 31.8874 15.507 31.578 15.507C31.1341 15.507 30.7699 15.5451 30.5534 15.5749Z" fill="black"/>
<path d="M59.1444 18.8062C58.5443 18.9954 57.8413 19.2174 57.058 19.3349C57.6913 19.7598 58.1692 20.1603 58.1948 20.4196C58.276 21.2229 58.5157 21.5029 58.1948 21.8187C57.8746 22.1345 57.7068 22.1643 57.5235 22.4816C57.3395 22.7974 57.283 23.7838 57.7594 23.8867C58.235 23.9882 58.5652 23.7586 58.7314 23.4039C58.8969 23.0476 59.7383 20.235 59.7267 19.5378C59.7228 19.3562 59.5465 19.077 59.2797 18.7643C59.2349 18.778 59.19 18.791 59.1444 18.8062Z" fill="black"/>
</svg>
