<svg width="52" height="52" viewBox="0 0 52 52" fill="none" xmlns="http://www.w3.org/2000/svg">
<circle cx="26" cy="26" r="25.35" fill="white" stroke="url(#paint0_linear_150_2832)" stroke-width="1.3"/>
<path fill-rule="evenodd" clip-rule="evenodd" d="M22.9961 41.9609V42.9318L23.4528 43.5337C23.9287 44.1617 23.1547 44.0031 22.3303 44.0259L21.706 44.0423L21.2334 44.4085C20.3954 45.0561 20.0002 45.3734 20.2419 44.2867L20.3646 43.7306L19.473 43.7357C18.5711 43.6704 18.6925 43.5225 19.5453 43.1754L20.9642 42.5964L21.1382 41.8872C17.7845 39.4937 17.8176 33.8002 18.7816 30.1773L20.3016 24.4618C18.1564 26.88 18.2203 27.8598 17.2284 30.9266C16.9564 31.7683 16.3181 32.3851 16.1277 31.2028C15.7372 28.7878 16.2504 25.8106 17.554 23.8385C19.1366 21.4431 22.2304 17.0042 22.313 16.0048C22.4339 14.5454 21.9178 13.1079 21.9178 11.3974C21.9178 6.86752 30.3207 6.86752 30.3207 11.3974C30.3207 13.1079 29.8047 14.5454 29.9255 16.0048C30.0081 17.0042 33.1019 21.4431 34.6845 23.8385C35.9881 25.8106 36.5013 28.7878 36.1108 31.2028C35.9205 32.3851 35.2822 31.7683 35.0102 30.9266C34.0183 27.8598 34.0822 26.88 31.9369 24.4618L33.457 30.1773C34.4209 33.8002 34.4541 39.4937 31.1004 41.8872L31.2744 42.5964L32.6932 43.1754C33.5461 43.5225 33.6674 43.6704 32.7655 43.7357L31.8739 43.7306L31.9966 44.2867C32.2383 45.3734 31.8431 45.0561 31.0052 44.4085L30.5325 44.0423L29.9083 44.0259C29.0839 44.0031 28.3098 44.1617 28.7857 43.5337L29.2425 42.9318V41.9609H22.9961ZM28.3999 11.0242C28.7167 11.0242 28.9733 11.2808 28.9733 11.5971C28.9733 11.9144 28.7167 12.171 28.3999 12.171C28.0831 12.171 27.8265 11.9144 27.8265 11.5971C27.8265 11.2808 28.0831 11.0242 28.3999 11.0242ZM23.8387 11.0242C24.155 11.0242 24.4116 11.2808 24.4116 11.5971C24.4116 11.9144 24.155 12.171 23.8387 12.171C23.5214 12.171 23.2648 11.9144 23.2648 11.5971C23.2648 11.2808 23.5214 11.0242 23.8387 11.0242ZM26.1188 14.5911L27.3809 12.7668L26.9302 12.2517C26.9782 11.2953 28.0705 10.0444 28.9891 10.5035C29.9447 10.9803 30.0198 14.2328 27.4597 15.0404C30.143 17.1735 31.5809 25.5116 31.5809 30.2776C31.5809 35.7737 29.1356 40.2295 26.1193 40.2295C23.1029 40.2295 20.6576 35.7737 20.6576 30.2776C20.6576 25.5176 22.1208 17.1955 24.805 15.0488C22.1357 14.2309 22.2981 10.7727 23.3432 10.4666C24.2451 10.2021 25.2309 11.3554 25.2776 12.2792L24.8572 12.7668L26.1188 14.5911Z" fill="black"/>
<defs>
<linearGradient id="paint0_linear_150_2832" x1="-2.3038" y1="7.7037" x2="60.3881" y2="35.5682" gradientUnits="userSpaceOnUse">
<stop stop-color="#F9804B"/>
<stop offset="1" stop-color="#FE9013"/>
</linearGradient>
</defs>
</svg>
