<svg width="32" height="32" viewBox="0 0 32 32" fill="none" xmlns="http://www.w3.org/2000/svg">
<path d="M16 -0.000244141C14.3432 -0.000244141 13 1.33744 13 2.98744V12.9464H3C1.3432 12.9464 0 14.284 0 15.9341C0 17.5841 1.3432 18.9218 3 18.9218H13V28.8807C13 30.5308 14.3432 31.8684 16 31.8684C17.6569 31.8684 19 30.5308 19 28.8807V18.9218H29C30.6568 18.9218 32 17.5841 32 15.9341C32 14.284 30.6568 12.9464 29 12.9464H19V2.98744C19 1.33744 17.6569 -0.000244141 16 -0.000244141Z" fill="#333B41"/>
</svg>
