<svg width="50" height="50" viewBox="0 0 50 50" fill="none" xmlns="http://www.w3.org/2000/svg">
<path d="M31.9347 9.38325C31.1579 9.07167 25.9516 7.5909 24.3204 9.92867C24.3204 9.92867 23.6985 10.4741 24.7091 11.7994C24.7091 11.7994 25.486 10.3186 26.5741 10.1625C26.7722 10.1343 27.0466 10.1218 27.3666 10.118L27.5066 8.99331L27.7866 10.118C29.2304 10.1312 31.2629 10.2578 32.0128 10.0848C32.0128 10.0848 31.4691 10.4741 29.4485 10.5524L29.526 12.5786L28.8591 10.5713C28.0129 10.5963 27.3529 10.6245 26.6729 10.8885L26.8066 13.4356L26.1516 11.1361C25.6754 11.4051 25.1641 11.8094 24.5535 12.4225C24.5535 12.4225 25.2529 14.4487 27.1954 14.371C29.1379 14.2933 33.256 11.0195 33.8778 9.14941C33.8772 9.14941 32.7116 9.69546 31.9347 9.38325Z" fill="black"/>
<path d="M26.8104 2.27202C26.0223 2.55474 21.1448 4.90556 21.4673 7.74095C21.4673 7.74095 21.3623 8.5628 22.9936 8.88376C22.9936 8.88376 22.5973 7.25825 23.3092 6.41885C23.4386 6.2659 23.6361 6.07407 23.8729 5.85905L23.2354 4.92374L24.1879 5.58008C25.2779 4.63035 26.8842 3.37471 27.3317 2.74657C27.3317 2.74657 27.1817 3.39978 25.7198 4.80087L27.1167 6.26715L25.2911 5.20709C24.6742 5.78821 24.1979 6.24772 23.8629 6.89779L25.6454 8.71701L23.6361 7.43002C23.4573 7.94845 23.3411 8.59038 23.2886 9.45548C23.2886 9.45548 25.1511 10.5086 26.5542 9.15896C27.9579 7.80991 28.8804 2.62119 28.1104 0.807618C28.111 0.806364 27.5985 1.98929 26.8104 2.27202Z" fill="black"/>
<path d="M49.8061 20.762C49.7286 18.5798 47.2417 16.2415 46.1542 14.9946C45.0667 13.7477 42.8911 13.2023 40.9486 13.2023C39.0061 13.2023 37.9961 14.8391 37.9961 14.8391C37.9961 14.8391 40.7936 14.1376 41.5705 14.3715C42.3474 14.6053 46.2324 17.2552 47.7867 20.1389C49.3405 23.0226 47.6311 25.0487 46.8542 26.5294C46.0774 28.0101 42.8136 28.4 40.0942 28.1662C37.3749 27.9324 35.8986 26.5294 35.2768 25.2825C34.6549 24.0356 34.733 21.7757 34.733 21.7757L27.7399 26.9971C28.3618 28.0879 30.848 29.0232 32.7124 29.1793C34.5774 29.3354 37.0636 30.4262 37.763 30.8938C38.4624 31.3615 37.2968 31.9846 37.2968 31.9846C34.888 30.5816 29.4493 28.9454 28.3612 28.9454C27.2737 28.9454 22.1449 22.7104 20.7468 20.6843C19.3481 18.6582 19.9699 17.0213 19.9699 15.6184C19.9699 14.2154 21.9124 10.1632 21.9124 10.1632C21.9124 10.1632 21.5237 8.21478 18.8824 10.3193C16.7412 12.025 14.6006 15.7281 13.6175 20.5558C14.6012 19.6336 15.4637 18.8143 15.4637 18.8143L13.44 21.535C13.3025 22.3668 13.1962 23.2263 13.1325 24.1134C13.0843 24.7885 13.0631 25.4192 13.0625 26.0141L14.7637 24.6588L13.0693 26.6009C13.125 28.874 13.5118 30.5641 14.0037 31.9351L15.3074 29.8801L14.5125 33.1914C14.9237 34.1054 15.3525 34.8846 15.6956 35.6469C16.3049 36.9997 17.7424 38.6704 19.0262 40.0151L21.0568 38.2962L20.0618 41.0689C20.6193 41.6224 21.0724 42.0525 21.2899 42.2713C22.0668 43.0505 20.9793 43.4404 20.9793 43.4404C17.4049 42.0381 12.9762 33.3876 12.9762 33.3876C12.9762 33.3876 9.01372 33.6992 7.14873 30.8938C5.28373 28.0885 6.60498 24.581 7.61498 22.5549C8.62497 20.5288 7.61498 21.0742 7.61498 21.0742C7.61498 21.0742 5.74998 21.3858 5.20623 21.6196C4.66248 21.8534 1.39875 25.7502 0.932497 26.2178C0.466248 26.6855 0.388749 27.4647 0.388749 27.4647L1.70937 26.2956C1.70937 26.2956 1.32062 27.4647 0.776872 28.4778C0.233124 29.4908 0 31.517 0 31.517L1.16562 29.8801V34.8677C0.776872 37.206 1.16562 37.9852 1.16562 37.9852L1.94249 34.5561C1.94249 34.5561 1.94249 37.206 1.94249 38.0629C1.94249 38.9199 3.96249 42.895 5.90498 46.168C7.84747 49.441 20.5124 49.8309 23.1543 49.5194C25.7649 49.2116 33.7605 44.4898 37.848 40.768L34.1105 41.3359L39.3955 39.15C40.1086 38.3018 40.7792 37.3652 41.393 36.4155L38.3836 37.673C38.4936 37.5997 40.1692 36.6111 41.913 35.5855C43.8774 32.3639 45.143 29.2564 45.143 29.2564C45.143 29.2564 48.0955 27.6196 49.2611 25.905C50.4273 24.1911 49.8836 22.9442 49.8061 20.762Z" fill="black"/>
<path d="M39.3943 17.8004C39.7806 17.8004 40.0937 17.4864 40.0937 17.0991C40.0937 16.7117 39.7806 16.3977 39.3943 16.3977C39.0081 16.3977 38.6949 16.7117 38.6949 17.0991C38.6949 17.4864 39.0081 17.8004 39.3943 17.8004Z" fill="black"/>
<path d="M44.8339 23.2559C45.2629 23.2559 45.6107 22.907 45.6107 22.4767C45.6107 22.0464 45.2629 21.6975 44.8339 21.6975C44.4048 21.6975 44.057 22.0464 44.057 22.4767C44.057 22.907 44.4048 23.2559 44.8339 23.2559Z" fill="black"/>
<path d="M39.3948 27.1525C40.4048 27.2302 44.2123 27.0748 45.2998 26.5287C46.3873 25.9833 47.7861 24.3465 47.4755 22.8658C47.1648 21.3851 46.3098 18.2675 44.3673 17.0206C42.4248 15.7737 40.9486 15.15 40.1717 15.15C39.3948 15.15 38.0736 15.0722 37.4523 15.8515C37.4523 15.8515 36.5973 16.3969 36.2092 18.7352C35.8205 21.0735 35.3542 22.8658 36.0536 24.3465C36.753 25.8279 38.3848 27.0748 39.3948 27.1525ZM39.9386 16.1637C41.1042 17.1767 41.0261 17.956 40.638 18.5797C40.2492 19.2035 39.783 19.7489 39.783 19.7489L39.2392 19.905L38.5398 19.4373L38.2292 19.905L38.3848 21.6973C38.3848 21.6973 39.1617 23.4896 40.2498 23.6457C41.3373 23.8018 42.1148 23.8018 42.1148 23.4896C42.1148 23.1774 41.8817 22.5542 42.4255 22.0866C42.9692 21.6189 44.6786 20.7619 45.223 21.229C45.7667 21.6966 46.3886 24.1904 45.8448 24.7358C45.3011 25.2812 45.3786 25.2035 44.9123 24.7358C44.4461 24.2682 43.4361 22.1637 43.4361 22.1637C43.4361 22.1637 42.5811 22.1637 42.5811 22.8652C42.5811 23.5667 43.1248 23.956 42.348 24.2682C41.5711 24.5797 39.318 24.1121 38.9292 23.7228C38.5405 23.3328 37.9967 22.5536 37.9192 21.7744C37.8417 20.9951 37.5305 20.2159 37.7636 19.7483C37.9967 19.2806 38.3073 18.423 38.6186 18.8129C38.9292 19.2022 39.2405 19.7483 39.6286 19.3583C40.0173 18.969 40.2505 18.3453 40.2505 18.3453C40.2505 18.3453 38.6186 18.0337 37.5311 17.0984C37.5298 17.099 38.773 15.1506 39.9386 16.1637ZM41.8036 22.2427L41.1042 22.9442C41.1042 22.9442 39.8611 22.7103 39.1617 21.6973C38.4623 20.6842 39.8611 20.2165 39.8611 20.2165C40.9486 20.7619 41.8036 22.2427 41.8036 22.2427Z" fill="black"/>
</svg>
