<svg width="80" height="80" viewBox="0 0 80 80" fill="none" xmlns="http://www.w3.org/2000/svg">
<circle cx="40" cy="40" r="39" fill="white" stroke="url(#paint0_linear_97_100)" stroke-width="2"/>
<path d="M46.9347 23.6112C46.1579 23.2983 40.9516 21.8115 39.3204 24.1588C39.3204 24.1588 38.6985 24.7064 39.7091 26.0371C39.7091 26.0371 40.486 24.5503 41.5741 24.3936C41.7723 24.3653 42.0466 24.3527 42.3666 24.3489L42.5066 23.2196L42.7866 24.3489C44.2304 24.3621 46.2629 24.4893 47.0129 24.3155C47.0129 24.3155 46.4691 24.7064 44.4485 24.7851L44.526 26.8196L43.8591 24.804C43.0129 24.8292 42.3529 24.8575 41.6729 25.1225L41.8066 27.68L41.1516 25.3711C40.6754 25.6412 40.1641 26.0472 39.5535 26.6628C39.5535 26.6628 40.2529 28.6973 42.1954 28.6192C44.1379 28.5411 48.256 25.2541 48.8779 23.3764C48.8772 23.3764 47.7116 23.9246 46.9347 23.6112Z" fill="black"/>
<path d="M41.8104 16.4704C41.0223 16.7543 36.1448 19.1148 36.4673 21.9619C36.4673 21.9619 36.3623 22.7871 37.9936 23.1094C37.9936 23.1094 37.5973 21.4772 38.3092 20.6344C38.4386 20.4808 38.6361 20.2882 38.8729 20.0723L38.2354 19.1331L39.1879 19.7921C40.2779 18.8385 41.8842 17.5777 42.3317 16.9469C42.3317 16.9469 42.1817 17.6029 40.7198 19.0097L42.1167 20.482L40.2911 19.4176C39.6742 20.0011 39.1979 20.4625 38.8629 21.1153L40.6454 22.942L38.6361 21.6497C38.4573 22.1703 38.3411 22.8148 38.2886 23.6835C38.2886 23.6835 40.1511 24.741 41.5542 23.3858C42.9579 22.0312 43.8804 16.8211 43.1104 15C43.111 14.9987 42.5985 16.1865 41.8104 16.4704Z" fill="black"/>
<path d="M64.8061 35.0365C64.7286 32.8454 62.2417 30.4975 61.1542 29.2454C60.0667 27.9934 57.8911 27.4458 55.9486 27.4458C54.0061 27.4458 52.9961 29.0893 52.9961 29.0893C52.9961 29.0893 55.7936 28.385 56.5705 28.6198C57.3474 28.8545 61.2324 31.5153 62.7867 34.4109C64.3405 37.3064 62.6311 39.3409 61.8542 40.8277C61.0774 42.3145 57.8136 42.706 55.0942 42.4712C52.3749 42.2364 50.8986 40.8277 50.2768 39.5756C49.6549 38.3236 49.733 36.0544 49.733 36.0544L42.7399 41.2972C43.3618 42.3925 45.848 43.3317 47.7124 43.4884C49.5774 43.6452 52.0636 44.7404 52.763 45.21C53.4624 45.6796 52.2968 46.3053 52.2968 46.3053C49.888 44.8965 44.4493 43.2536 43.3612 43.2536C42.2737 43.2536 37.1449 36.9929 35.7468 34.9585C34.3481 32.9241 34.9699 31.2805 34.9699 29.8718C34.9699 28.463 36.9124 24.3941 36.9124 24.3941C36.9124 24.3941 36.5237 22.4377 33.8824 24.5509C31.7412 26.2637 29.6006 29.9819 28.6175 34.8295C29.6012 33.9035 30.4637 33.0808 30.4637 33.0808L28.44 35.8127C28.3025 36.648 28.1962 37.511 28.1325 38.4017C28.0843 39.0796 28.0631 39.7129 28.0625 40.3102L29.7637 38.9493L28.0693 40.8994C28.125 43.1819 28.5118 44.8789 29.0037 46.2556L30.3074 44.1922L29.5125 47.517C29.9237 48.4348 30.3525 49.2172 30.6956 49.9826C31.3049 51.341 32.7424 53.0186 34.0262 54.3688L36.0568 52.6428L35.0618 55.4269C35.6193 55.9827 36.0724 56.4145 36.2899 56.6342C37.0668 57.4166 35.9793 57.8082 35.9793 57.8082C32.4049 56.4001 27.9762 47.714 27.9762 47.714C27.9762 47.714 24.0137 48.0269 22.1487 45.21C20.2837 42.3931 21.605 38.8713 22.615 36.8368C23.625 34.8024 22.615 35.35 22.615 35.35C22.615 35.35 20.75 35.6629 20.2062 35.8977C19.6625 36.1325 16.3987 40.0452 15.9325 40.5148C15.4662 40.9844 15.3887 41.7668 15.3887 41.7668L16.7094 40.5929C16.7094 40.5929 16.3206 41.7668 15.7769 42.784C15.2331 43.8013 15 45.8357 15 45.8357L16.1656 44.1922V49.2002C15.7769 51.5481 16.1656 52.3305 16.1656 52.3305L16.9425 48.8874C16.9425 48.8874 16.9425 51.5481 16.9425 52.4086C16.9425 53.2691 18.9625 57.2605 20.905 60.547C22.8475 63.8334 35.5124 64.225 38.1543 63.9121C40.7649 63.6031 48.7605 58.8619 52.848 55.1248L49.1105 55.6951L54.3955 53.5001C55.1086 52.6484 55.7792 51.708 56.393 50.7544L53.3836 52.0171C53.4936 51.9434 55.1692 50.9508 56.913 49.9209C58.8774 46.6861 60.143 43.5658 60.143 43.5658C60.143 43.5658 63.0955 41.9223 64.2611 40.2007C65.4273 38.4797 64.8836 37.2277 64.8061 35.0365Z" fill="black"/>
<path d="M54.3943 32.0629C54.7806 32.0629 55.0937 31.7475 55.0937 31.3585C55.0937 30.9695 54.7806 30.6541 54.3943 30.6541C54.0081 30.6541 53.6949 30.9695 53.6949 31.3585C53.6949 31.7475 54.0081 32.0629 54.3943 32.0629Z" fill="black"/>
<path d="M59.8339 37.5406C60.2629 37.5406 60.6108 37.1903 60.6108 36.7582C60.6108 36.3261 60.2629 35.9758 59.8339 35.9758C59.4048 35.9758 59.057 36.3261 59.057 36.7582C59.057 37.1903 59.4048 37.5406 59.8339 37.5406Z" fill="black"/>
<path d="M54.3948 41.4533C55.4048 41.5314 59.2123 41.3753 60.2998 40.827C61.3873 40.2793 62.7861 38.6358 62.4754 37.149C62.1648 35.6622 61.3098 32.5319 59.3673 31.2798C57.4248 30.0278 55.9486 29.4015 55.1717 29.4015C54.3948 29.4015 53.0736 29.3235 52.4523 30.1059C52.4523 30.1059 51.5973 30.6535 51.2092 33.0014C50.8205 35.3494 50.3542 37.149 51.0536 38.6358C51.753 40.1232 53.3848 41.3753 54.3948 41.4533ZM54.9386 30.4194C56.1042 31.4366 56.0261 32.219 55.638 32.8453C55.2492 33.4717 54.783 34.0193 54.783 34.0193L54.2392 34.176L53.5398 33.7064L53.2292 34.176L53.3848 35.9757C53.3848 35.9757 54.1617 37.7753 55.2498 37.9321C56.3373 38.0888 57.1148 38.0888 57.1148 37.7753C57.1148 37.4618 56.8817 36.8362 57.4255 36.3666C57.9692 35.897 59.6786 35.0365 60.2229 35.5055C60.7667 35.975 61.3886 38.4791 60.8448 39.0267C60.3011 39.5743 60.3786 39.4963 59.9123 39.0267C59.4461 38.5571 58.4361 36.444 58.4361 36.444C58.4361 36.444 57.5811 36.444 57.5811 37.1484C57.5811 37.8527 58.1248 38.2436 57.3479 38.5571C56.5711 38.87 54.318 38.4004 53.9292 38.0095C53.5405 37.618 52.9967 36.8355 52.9192 36.0531C52.8417 35.2707 52.5305 34.4882 52.7636 34.0187C52.9967 33.5491 53.3073 32.688 53.6186 33.0795C53.9292 33.4704 54.2405 34.0187 54.6286 33.6271C55.0173 33.2362 55.2505 32.6099 55.2505 32.6099C55.2505 32.6099 53.6186 32.2971 52.5311 31.3579C52.5298 31.3585 53.773 29.4021 54.9386 30.4194ZM56.8036 36.5233L56.1042 37.2277C56.1042 37.2277 54.8611 36.9929 54.1617 35.9757C53.4623 34.9585 54.8611 34.4889 54.8611 34.4889C55.9486 35.0365 56.8036 36.5233 56.8036 36.5233Z" fill="black"/>
<defs>
<linearGradient id="paint0_linear_97_100" x1="-3.5443" y1="11.8519" x2="92.9047" y2="54.7202" gradientUnits="userSpaceOnUse">
<stop stop-color="#F9804B"/>
<stop offset="1" stop-color="#FE9013"/>
</linearGradient>
</defs>
</svg>
