<svg width="25" height="28" viewBox="0 0 25 28" fill="none" xmlns="http://www.w3.org/2000/svg">
<path d="M24.0118 1.53912L24.0472 2.0619L23.8218 2.71244L23.6522 3.1998L23.2078 4.0049L22.8106 4.72627L22.3909 5.92854L22.3931 6.80771L22.3469 7.36053L22.2095 7.69867L21.8789 8.60792L21.8295 9.39048L21.9475 10.3469L21.8348 11.254L21.4903 12.1106L21.3421 12.7848L21.428 13.5974L20.7957 14.2737L20.0003 14.9456L19.485 15.1399L19.0846 15.3664L18.7991 15.623L18.7057 15.7625L18.4974 16.0739L18.024 17.0389L17.7771 17.4618L17.454 17.8236L16.9731 18.2648L16.7971 18.4731L16.7251 18.7758L16.7563 19.3318L16.8024 21.0268L16.7219 21.5185L16.5899 22.3268L16.1176 23.2328L15.7633 23.7363L15.409 23.8908L14.9432 24.0272L14.7199 24.1978L14.5836 24.4501L14.3238 24.6691L13.9406 24.857L13.4553 25.3175L12.8703 26.0517L12.4699 26.4725L12.2552 26.5809L12.033 26.5906L11.8022 26.5026L11.61 26.4908L11.5135 26.5305L11.4512 26.4983L11.36 26.4296L11.3632 26.26L11.3363 25.9798L11.2236 25.6911L11.3578 25.4592L11.478 25.2831L11.4565 25.1908L11.3363 25.0438L11.2021 24.8323L11.0755 24.8473L10.8061 25.0083L10.5259 25.135L10.264 25.1876L10.0578 25.3185L9.94514 25.3894H9.76798L9.66924 25.311L9.45349 25.2359L9.33647 25.2616L9.2699 25.2982L9.24199 25.5644L9.21624 25.7898L9.17438 26.0013L9.09706 26.1L8.77183 26.2052L8.5507 26.3501L8.36069 26.4478L8.24263 26.4231L8.00643 26.231L7.77135 26.0528L7.64149 25.9025L7.5685 25.7952L7.52126 25.7479L7.37312 25.7404L7.32909 25.8392L7.25499 25.793L7.02423 25.5901L6.75158 25.2703L6.65281 25.2209L6.50254 25.2262L6.26421 25.3443L6.03021 25.5279L5.60833 25.6975L5.25623 25.792L5.22403 25.9079L5.14138 26.1076L5.02544 26.2321L4.71304 26.2707L4.60035 26.4489L4.3309 26.7924L4.15269 26.9492L4.10549 26.8826L3.99705 26.7989L3.77592 26.5326L3.55693 26.2009L3.49897 26.0507L3.4367 25.9648L3.42703 25.632L3.09751 25.237L2.27092 24.5349L2.18289 24.3256L1.47656 23.6836L1.6569 23.221L1.79109 23.0063L1.95318 22.8582L2.60369 22.4953L2.70246 22.5093L3.15117 22.9805L3.29393 23.0181L3.4539 23.0052L3.64282 23.0246L3.73619 22.9322L3.75014 22.8109L3.61383 22.6746L3.59342 22.5286L3.69003 22.3708L3.74372 22.1948L3.88433 21.9887L3.89936 21.891L3.75122 21.7847L3.44744 21.6226L3.24027 21.4659L3.16083 21.3167L3.21773 21.1256L3.38412 20.9699L3.37446 20.8851L3.22737 20.7456L3.12004 20.5964L3.01053 20.503L2.70459 20.4472L2.76365 20.2464L2.8753 19.9501L2.90321 19.7236L2.81839 19.1289L2.82482 19.0216L2.90855 18.9669L3.08997 19.0323L3.27352 19.1225L3.77376 18.9937L3.94768 18.9733L4.09258 19.0871L4.2912 19.1762L5.44195 18.9282L5.46448 18.676L5.52997 18.4473L5.53855 18.2766L5.49131 18.166L5.43441 18.0834L5.40008 17.9116L5.399 17.7281L5.50956 17.6411L5.8767 17.4221L5.99047 17.4296L6.24704 17.5499L6.4875 17.7367L6.70217 18.1296L6.84926 18.4688L7.08648 18.8788L7.58783 19.0463L8.1868 19.1526L8.51099 19.1247L8.97362 18.7747L9.23557 18.502L9.32035 18.355L9.47281 18.4312L9.64565 18.7897L9.75619 18.9293L9.7841 19.0624L9.70685 19.2277L9.78193 19.334L10.104 19.4102L10.3863 19.3383L10.513 19.1923L10.7245 19.0012L10.7266 18.8402L10.6128 18.7361V18.5922L10.7309 18.4795L10.8447 18.1703L10.8801 17.9449L10.9917 17.8011L11.2032 17.7012L11.2794 17.6111L11.3975 17.0765L11.3363 16.8832V16.7233L11.4705 16.5183L11.4952 16.1833L11.4383 15.6348L11.4008 15.258L11.36 14.863L11.463 14.3445L11.5703 13.8046L11.551 13.6704L11.4018 13.5061L11.2182 13.3569L10.7459 13.2335L10.5699 13.037L10.4325 12.8288L10.3326 12.7622L9.81522 12.6806L9.70148 12.5626L9.7476 12.2255L9.79379 11.7285L9.77551 11.3839L9.86678 11.1048L9.97089 10.8955L10.1996 10.6743L10.3198 10.4135L10.3863 10.3491L10.8189 10.3051L10.9756 10.1966L11.0991 10.0861L11.1517 9.93792L11.2998 9.69209L11.4308 9.52571L11.4459 9.41302L11.4179 9.25629L11.287 8.94819L11.1303 8.69165L11.0358 8.59933L10.8447 7.99603L10.6676 7.85435L10.3219 7.77703L9.67461 7.70834L9.28281 7.81677L8.68704 8.01965L8.23188 8.16026L7.9356 8.2397L7.76172 8.21824L7.68224 8.12592L7.79821 8.04756L7.85508 7.86398L7.78104 7.60098L7.66619 7.36053L7.60067 7.02134L7.62858 6.60159L7.74023 6.20657L7.97963 5.69346L7.99464 5.48413L8.71712 5.49055L9.43848 5.497L10.2264 5.49163L10.9875 5.48734L11.5811 5.5045L11.8666 5.3714L12.1382 5.57323L12.2713 5.61723L12.3164 5.60114L12.4205 5.74283L12.7587 5.72779L12.8123 5.75999L12.8414 5.93175L13.1548 5.92746L13.3094 5.96504L13.435 5.96074L13.6174 5.86197L13.7484 5.89418L13.9868 6.02299L14.1563 6.13355L14.3936 6.09706L14.9432 6.11639L15.3693 6.22266L15.7912 6.51681L16.0735 6.6864L16.3269 6.9376L16.4203 6.89249L16.5083 6.8238L16.5577 6.79376L16.5545 6.57905L16.4127 6.21299L16.358 5.90276L16.3891 5.64835L16.4965 5.4648L16.6801 5.35423L16.6983 5.18248L16.7004 5.15886L16.9066 4.74989L17.1105 4.34301L17.3563 3.86855L17.5593 3.47675L17.5324 3.28245L17.5528 2.9926L17.5946 2.66949L17.5839 2.47735L17.6429 2.34746L17.7836 1.86439L17.8662 1.58423L17.9876 1.45863L18.1764 1.36844L18.4513 1.36523L19.1683 1.30404L19.8382 1.17844L20.0604 1.12261L20.4801 0.920814L20.6422 0.912231L20.7807 0.989511L21.5901 1.22138L21.8123 1.31262L21.8939 1.29866L22.0163 1.31907L22.2063 1.32123L22.3909 1.29332L22.509 1.32123L22.6582 1.47471L22.758 1.45755L22.8879 1.3459L23.1316 1.23213L23.6028 1.10545L23.6791 1.16235L23.8422 1.44359L24.0118 1.53912Z" fill="#FFEE2E" stroke="#EAF7FE"/>
</svg>
