<svg width="26" height="33" viewBox="0 0 26 33" fill="none" xmlns="http://www.w3.org/2000/svg">
<path d="M0.327148 12.9086C0.327148 5.85159 6.04715 0.131592 13.1031 0.131592C20.1601 0.131592 25.8801 5.85159 25.8801 12.9086C25.8801 14.1716 25.6941 15.3906 25.3531 16.5456C23.5341 23.9026 13.0461 32.1316 13.0461 32.1316C13.0461 32.1316 1.19715 22.8406 0.500149 15.1736L0.531148 15.1676C0.399148 14.4356 0.327148 13.6806 0.327148 12.9086ZM12.9291 15.7546C15.8161 15.7546 18.1561 13.4136 18.1561 10.5266C18.1561 7.63959 15.8161 5.29959 12.9291 5.29959C10.0431 5.29959 7.70315 7.63959 7.70315 10.5266C7.70315 13.4136 10.0431 15.7546 12.9291 15.7546Z" fill="#4B9200"/>
</svg>
