<svg width="309" height="255" viewBox="0 0 309 255" fill="none" xmlns="http://www.w3.org/2000/svg">
<path d="M85.1531 16.5351V19.047V21.5256V23.971V26.3852V28.7683V31.1203V33.4433V35.7373V38.0033V40.2426V42.4561V44.6427V46.8047V48.942V51.0556V53.1457V55.2131V57.2581V59.2816V61.2836V63.2641V65.2254V67.1673V69.0898V70.9931V72.877V74.7438V76.5923V78.4247V80.2389V82.0369V83.8189L85.8744 84.0679L86.5894 84.3148L86.8084 83.8221L87.5791 84.2L88.2522 84.5295L88.6815 84.1066L89.1464 83.6482L89.7733 83.616L90.4764 83.5795L90.9455 83.5559V83.9466L90.7716 84.5928L90.6267 85.1306L91.0539 85.6749L91.5799 85.9604L92.0716 86.2277L92.2927 86.9641L92.8305 87.5309L93.2395 87.9603L93.6324 88.3714L94.1938 88.9575L94.5867 89.3676L95.1105 89.9119L95.4218 90.235L95.571 90.8619L95.7503 91.6122L95.6398 92.0545L95.8877 92.1253L96.3729 91.6294L96.8292 91.3213L97.3927 90.9403L97.7727 90.6826L98.4791 90.6697L98.8161 89.9194L98.8172 88.862L99.1747 88.8803L99.3851 88.7364L99.4774 88.424L99.253 87.9968L99.9293 87.7971L100.419 87.6522L101.118 87.2583L101.8 86.8729L102.126 87.1713L102.448 87.459L103.08 88.1514L103.123 88.3178L103.08 88.642L103.018 88.9651L103.402 89.8689L103.513 89.9698L103.828 90.0944L104.205 90.3928L104.371 90.6504L104.917 91.0605L105.009 91.2301L105.06 91.5049L105.15 91.7411L105.252 91.9096L105.35 92.15L105.586 92.4334L106.036 92.749L106.349 92.968L106.786 93.274L107.228 93.8976L107.612 94.4376L108.05 94.97L107.986 95.3941L108.429 96.0467L108.896 96.8744L109.255 97.6054L109.509 98.0133L109.815 98.6016L110.188 99.3197L110.614 100.134L110.939 100.655L111.363 101.382L111.572 101.814L111.429 102.11L111.253 102.475L111.799 102.647L112.176 102.767L112.082 103.17L111.958 103.703L112.385 103.912L112.675 104.055L112.614 104.333L112.774 104.646L112.8 105.165L113.321 105.131L113.551 105.116L113.862 105.346L114.272 105.649L114.683 105.932L115.034 106.174L115.495 106.317L116.062 106.522L116.342 106.94L116.859 107.12L117.052 107.702L117.65 107.916L118.002 107.773L118.129 108.01L118.229 108.283L118.256 108.627L118.222 108.962L118.073 109.241L117.96 109.541L117.885 109.864L117.856 110.21L117.874 110.579L117.935 110.901L118.118 111.496L118.179 111.86L118.187 112.101L117.78 112.95L117.639 113.352L117.652 113.532L117.356 113.951L116.812 114.535L116.565 114.871L116.442 114.759L115.738 114.672L115.483 113.926L115.348 113.346L115.142 112.839L115.148 112.724L115.335 112.385L116.039 112.106L116.045 111.994L115.783 111.92L115.72 111.799L115.648 111.246L115.667 110.76L115.649 110.437L115.532 109.775L115.356 109.37L114.902 108.575L114.863 108.374L115.063 108.122L115.188 107.887L114.42 108.296L113.372 108.724L112.924 109.023L112.829 109.142L112.797 109.243L112.879 109.524L112.866 109.614L112.774 109.781L112.666 110.249L112.438 110.744L112.324 110.846L111.915 110.661L111.805 110.503L111.6 109.856L111.647 109.683L111.796 109.537L111.999 109.222L112.255 108.737L112.743 107.5L113.062 107.494L113.625 107.248L112.742 107.125L112.61 107.06L112.492 106.891L112.387 106.616L112.208 106.31L111.872 106.203L111.725 106.09L111.502 105.718L111.353 105.55L111.272 105.343L111.258 105.096L111.194 104.972L110.963 104.926L110.839 104.842L110.805 104.202L110.345 104.038L110.157 103.896L109.855 103.494L109.771 103.299L109.744 103.136L109.818 102.691L109.787 102.608L109.519 102.653L107.855 101.963L107.943 101.047L107.635 99.8328L107.304 99.339L107.37 99.1458L107.44 99.0438L107.588 99.0417L108.227 99.4013L108.828 99.8264L108.906 99.7641L107.945 98.8603L107.704 98.5897L107.644 98.2634L107.641 98.0885L107.717 97.9972L108.618 98.0788L108.672 98.0111L107.758 97.7449L107.571 97.746L107.372 98.1282L107.277 98.2184L107.081 98.2001L107.014 98.141L106.782 97.6784L106.561 97.3553L106.15 96.9076L106.073 96.5877L106.052 96.1165L106.107 95.6699L106.443 94.6459L106.579 94.4676L106.615 94.356L106.511 94.3732L106.412 94.4709L106.134 94.9475L105.847 95.7268L105.613 95.992L105.466 95.9276L105.244 95.6109L104.78 95.2234L104.244 95.1235L103.904 94.7263L103.403 93.6164L103.335 93.0614L103.271 92.9251L102.999 92.7448L102.832 92.4774L102.574 91.1141L102.234 90.1609L102.149 89.6553L102.177 89.1529L102.133 89.0971L102.016 89.4889L101.986 89.6929L101.771 89.7508L101.973 90.147L102.024 90.3445L101.923 90.3284L101.717 90.3777L102.067 91.0508L102.223 92.0899L102.455 92.8564L102.605 93.4758L102.673 93.9449L102.772 94.3925L103.042 95.3769L103.079 95.5722L103.047 95.7311L102.958 95.92L102.803 95.9909L102.318 95.8621L102.135 95.6195L101.873 95.1729L101.506 94.9668L100.597 95.0688L100.524 95.0345L100.527 94.6695L100.631 94.0179L100.548 93.7538L100.077 92.7909L100.085 92.602L100.738 92.1575L100.421 92.1243L100.165 92.2982L100.067 92.1865L99.9121 91.565L99.8123 91.3331L99.7629 91.2837L99.735 91.8752L99.8434 92.1854L99.8595 92.3647L99.8424 92.6149L99.7747 92.7941L99.6556 92.9025L99.5364 92.9294L99.3164 92.8049L99.0716 92.5698L98.858 92.4592L98.7786 92.3658L98.6777 92.106L98.5124 91.9085L97.7148 91.6584L97.2392 91.3621L97.1995 91.4405L97.3476 91.7561L97.3616 91.9429L97.2414 91.9998L97.0267 92.2993L97.0889 92.34L97.3154 92.2413L97.5688 92.2531L97.9874 92.4345L98.3674 92.6728L98.5048 92.8059L98.5617 93.0035L98.609 93.0732L98.9804 93.3029L98.9986 93.4232L98.7592 93.7817L99.253 93.742L99.5397 93.8697L99.9068 94.4236L100.031 94.7317L100.048 95.1257L99.9723 95.2395L99.8263 95.3189L98.8236 95.4477L98.4619 95.9211L98.3868 95.9276L98.1109 95.7988L97.6106 95.4209L96.9869 95.0613L95.5646 93.991L95.526 93.9406L95.5024 93.7334L95.4047 93.6271L95.2114 93.5369L94.9431 93.2643L94.6006 92.8092L94.3892 92.4528L94.3087 92.1962L94.109 91.9021L93.4649 91.287L93.1278 91.0508L92.8305 90.9166L92.5718 90.8876L92.502 90.805L92.6212 90.6697L92.6394 90.5903L92.0683 90.4626L91.5262 90.1727L90.1511 89.3558L89.4405 88.8427L89.0261 88.5969L88.849 88.4584L88.7706 88.3457L88.8705 88.2276L89.1474 88.1052L89.3353 87.9657L89.6316 87.4429L89.6541 87.2744L89.4952 86.8933L89.4244 86.5455L89.4276 86.3522L89.4695 86.159L89.5146 86.0334L89.6401 85.9121L89.7282 85.8509L89.8377 85.8928L90.1865 86.3716L90.2359 86.5455L90.2198 87.1981L90.3197 87.9592L90.3519 87.9034L90.3841 87.6522L90.4045 87.1713L90.4442 86.9394L90.5193 86.714L90.646 86.5948L91.0399 86.6636L91.2214 86.6228L90.4549 86.2771L89.9729 85.6277L89.886 85.56L89.6219 85.531L89.3428 85.7941L88.6246 86.6496L88.4228 86.7999L87.5201 87.2722L86.9082 87.3667L86.219 87.2926L85.6318 87.1391L84.159 86.392L83.9293 86.2181L84.2717 85.7543L84.2857 85.6094L84.1665 85.136L84.0678 85.0007L83.9282 84.9256L83.8885 84.9793L83.8875 85.1199L83.925 85.3808L83.8123 85.5182L83.5622 85.6663L83.1403 85.8166L81.8328 85.4344L80.4931 85.1178L79.2973 85.0523L77.6087 85.3045L76.7081 85.5579L76.1832 85.5826L75.6776 85.5375L75.6357 85.3604L75.8665 85.2562L75.8536 85.1274L75.5616 84.7259L75.1183 84.4823L74.5236 84.3964L74.1833 84.2783L74.0974 84.1291L73.887 83.9874L73.5521 83.8521L73.4051 83.6085L73.5221 82.8528L73.6358 82.3987L73.7496 82.0863L74.0373 81.5678L73.9375 81.6065L73.5199 81.9865L73.156 82.3783L72.8189 82.8871L72.6182 83.12L72.3606 83.3347L71.958 83.2843L71.4116 82.9665L70.9436 82.8023L70.5539 82.7926L70.3993 82.7379L70.6656 82.4534L70.8191 82.2248L71.0284 81.8576L71.0746 81.6784L69.6458 81.6193L69.5932 81.425L69.591 81.2823L69.5459 81.1642L69.3388 81.0762L69.0489 81.1438L68.5798 81.3735L68.3769 81.1985L68.4489 81.1009L68.6024 81.0289L68.9147 80.6951L68.4929 80.5223L68.2771 80.3237L68.1719 80.1605L68.1794 79.5712L68.2911 79.1922L69.2379 78.824L68.9384 78.6802L68.3404 78.7296L67.939 79.043L67.4623 79.4939L67.1425 79.6624L66.9793 79.5486L66.7635 79.5089L66.4952 79.5443L66.3148 79.6592L66.2225 79.8546L66.1151 79.9866L65.9938 80.0542L65.9058 80.0317L65.777 79.832L65.5065 79.7075L65.3734 79.5551L65.2972 79.6506L65.2048 79.9383L65.1072 80.0843L64.6499 80.2335L64.3987 80.2056L64.0981 79.8449L64.0552 79.7193L64.1571 79.4059L64.8173 78.1606L64.7508 78.1681L64.5371 78.3646L64.111 78.8627L63.921 79.0108L63.5936 79.0301L63.4411 78.9765L63.2565 79.0173L63.0397 79.1504L62.899 79.2964L62.8325 79.4542L62.8776 79.481L63.2039 79.3006L63.3896 79.2523L63.4411 79.3404L63.1867 79.8996L63.0322 80.4332L62.8851 80.5673L62.6511 80.5448L62.3945 80.5974L62.3913 80.7466L62.869 81.1706L63.0418 81.2307L63.2629 81.3821L63.2973 81.5324L63.2136 81.9371L63.1513 82.096L63.0504 82.1786L62.6607 82.1647L62.5341 82.2065L62.2721 82.4599L62.1412 82.6692L62.1884 82.6874L62.4149 82.5146L62.7445 82.4223L63.1771 82.4094L63.4991 82.3182L63.7106 82.1464L63.9167 82.1947L64.1174 82.4631L64.1775 82.6982L64.096 82.9L63.9306 83.0438L63.6805 83.1297L63.5227 83.2585L63.4562 83.4303L63.4186 83.6847L63.41 84.0207L63.4733 84.625L63.425 84.7066L63.3306 84.7517L63.191 84.7592L63.0654 84.9009L62.7713 85.7017L62.6672 85.7887L62.5437 85.7028L62.4342 85.7125L62.3387 85.8166L62.1294 85.896L61.8063 85.9508L61.5293 85.9304L61.043 85.7575L60.8444 85.6352L60.6898 85.4344L60.2529 85.647L60.1381 85.5547L59.8665 84.9997L59.8075 85.033L59.7549 85.6309L59.6722 85.8402L59.4028 86.2717L59.2557 87.0124L59.2106 87.035L59.1602 86.9276L58.9938 86.2653L58.9057 86.1193L58.6621 86.5015L58.6352 86.6399L58.6996 87.1327L58.6427 87.2067L58.15 86.9416L58.0287 86.9287L57.9965 86.9738L58.1651 87.3549L58.1457 87.4923L57.448 88.2265L57.2666 88.2008L57.1528 88.1278L57.0272 88.1396L56.5838 88.4122L56.4615 88.4004L56.294 88.2394L56.2167 88.2458L56.1749 88.4144L56.1695 88.7429L56.0052 89.0542L55.4771 89.5565L55.3375 89.7873L55.2313 90.103L55.1518 90.133L54.8416 89.9301L54.4831 89.7981L54.4337 89.8636L54.5432 90.0557L54.5206 90.1738L54.365 90.2178L54.1685 90.2006L53.9302 90.1222L53.5964 90.2103L53.1681 90.4647L52.8106 90.4572L52.3114 90.0385L52.174 90.0074L52.13 89.8893L52.2277 89.5501L52.3694 89.2925L52.4735 89.1744L52.9469 88.8438L53.489 88.7225L53.8293 88.5228L54.2437 88.1117L54.4627 87.8025L54.8931 87.0028L54.8609 86.9405L54.7643 86.8965L53.8175 87.6554L53.678 87.7252L53.4901 87.7198L52.7333 87.4289L52.5734 87.3044L52.4639 86.9394L52.6743 86.1064L52.8213 85.7028L53.1906 85.078L53.6737 84.4093L53.8411 83.9745L54.0923 82.8066L54.0773 82.2742L53.9646 81.6236L53.9603 81.2361L54.0655 81.1137L55.1744 80.5083L55.6993 80.0531L56.718 79.379L56.995 79.3844L57.1989 79.6163L57.4362 79.802L57.7067 79.9404L58.0545 79.9265L58.4796 79.758L59.1537 79.8224L60.5385 80.2657L60.8326 80.2904L60.8444 80.2346L60.6308 79.9243L59.6765 79.744L59.2739 79.5637L58.1436 78.7682L57.886 78.4601L57.9901 78.3163L58.267 78.1971L58.3615 78.0823L58.4012 77.8815L58.5601 77.6078L58.8381 77.2578L59.2632 76.9197L60.0672 76.4152L59.7527 76.3937L59.1741 76.4871L58.9637 76.5826L58.5773 76.9433L58.427 77.1967L58.2112 77.6904L58.1189 77.7838L57.7174 77.8547L56.6236 77.9041L56.4389 77.6518L56.3369 77.611L56.2017 77.6464L55.1969 78.2905L54.8373 78.6179L54.5808 78.9915L54.1836 79.2642L53.6468 79.437L53.2454 79.6506L52.8224 80.0768L52.6786 80.4031L52.67 80.5566L52.773 81.0386L52.6678 81.1288L52.4242 81.1663L52.0323 81.4852L51.2047 82.4298L51.0963 82.7712L51.1006 82.8882L51.2348 83.1544L51.1414 83.3272L50.9084 83.5999L50.3899 84.0303L50.0497 84.1935L49.8285 84.2021L49.616 84.1409L49.2381 83.864L48.9322 83.8468L48.9129 83.8854L49.3294 84.1817L49.7534 84.5617L50.0175 84.8773L50.1216 85.1274L50.1259 85.3851L50.0303 85.6491L49.7308 86.1075L49.4378 86.2438L48.6874 86.3812L48.4459 86.4907L48.3708 86.5755L48.886 86.7687L48.9322 86.8675L48.8613 87.2497L48.725 87.3742L48.2956 87.6018L47.9113 87.6683L47.8523 87.6243L47.9242 87.3248L47.9038 87.2507L47.7589 87.1895L47.5538 87.3033L47.0418 87.7445L46.9871 87.8164L47.1717 87.9345L47.133 88.0322L46.8561 88.3478L46.7412 88.5582L46.5555 88.7718L45.729 89.4245L45.7923 89.5834L45.5776 90.1491L45.4574 90.6483L45.6034 90.8576L46.2968 91.1024L46.6328 91.1614L47.0289 91.3321L47.746 91.7915L47.9854 92.091L48.0208 92.2316L47.9983 92.3851L47.9124 92.5923L47.688 92.983L47.1459 93.5627L46.9012 93.7269L46.5308 93.8558L46.4095 93.9492L45.934 94.4956L45.8052 94.7897L45.8256 95.0462L45.7343 95.2255L45.1224 95.5776L45.1439 95.6399L45.3661 95.6667L45.2845 95.9769L45.248 96.4063L45.1418 96.4783L44.7596 96.475L44.2733 96.6414L44.239 96.6886L44.2304 96.9967L42.9594 97.2222L42.6814 97.804L42.5365 97.9822L42.0384 98.404L41.7335 98.5737L41.3846 98.6767L41.2021 98.8195L41.185 99.002L41.0862 99.1598L40.7846 99.4206L40.6364 99.748L40.5291 99.7996L39.9677 99.8779L39.856 99.982L39.8013 100.423L39.6971 100.437L39.4975 100.334L39.2377 100.414L38.6537 100.912L38.526 101.091L38.54 101.186L38.6301 101.281L38.7686 101.576L38.76 101.775L38.5357 102.328L38.4562 102.413L38.1836 102.55L38.0719 102.855L37.8207 102.821L37.6178 102.879L37.4847 103.082L37.3409 103.199L37.1852 103.229L36.9888 103.39L36.7537 103.68L36.5347 103.865L36.334 103.944L36.1386 103.965L35.9486 103.924L35.7779 103.957L35.6266 104.064L35.4784 104.232L35.3603 104.706L35.2111 104.918L35.1167 104.954L34.9234 104.923L34.6315 104.823L34.3352 104.859L33.8564 105.15L33.704 105.369L34.0056 105.417L34.1548 105.479L34.1516 105.54L33.9949 105.599L33.7265 105.595L33.5655 105.646L33.3701 105.77L32.8785 105.904L32.6917 106L32.3214 106.545L32.2763 106.669L32.3235 106.696L32.5318 106.639L32.7765 106.729L32.9032 106.844L32.9848 106.985L33.0621 107.258L33.1093 107.299L32.6391 107.756L32.506 107.95L32.4201 108.022L32.3632 107.966L32.3053 107.458L32.2698 107.371L32.1582 107.362L32.0508 107.523L31.8158 108.124L31.5592 108.427L29.6323 109.2L29.3554 109.378L29.3006 109.707L29.2212 109.991L29.0935 110.216L28.9442 110.359L28.912 110.257L28.9271 109.458L28.8873 109.299L28.693 109.197L28.6072 109.211L28.4902 109.256L28.2969 109.43L28.1789 109.473L28.0318 109.459L27.7806 109.629L27.1838 110.176L26.7941 110.311L26.691 110.424L26.5246 110.722L26.4141 110.832L26.2509 110.841L26.0341 110.752L25.8602 110.815L25.7281 111.032L25.594 111.118L25.215 110.958L25.0476 111.068L24.8307 111.347L24.6042 111.53L24.3681 111.619L23.754 111.712L23.5071 111.653L23.4567 111.572L23.4685 111.217L23.5672 110.96L23.6585 110.839L23.7809 110.732L23.9601 110.719L24.2951 110.799L24.2564 110.713L24.1351 110.611L23.827 110.434L23.5211 110.344L23.3461 110.402L23.1003 110.537L22.9328 110.694L22.8448 110.872L22.7342 111.452L22.6698 111.609L21.9506 112.625L21.6683 112.938L21.3892 112.914L21.2539 113.032L21.0639 113.284L20.8879 113.406L20.7269 113.395L20.6013 113.347L20.5122 113.262L20.5272 113.182L20.6474 113.108L20.6045 112.907L20.3984 112.574L20.2578 112.393L19.9905 112.372L19.9486 112.523L20.0388 113.294L20.0248 113.468L19.8584 113.687L19.4205 113.932L19.2841 113.908L18.8902 113.426L18.5166 113.331L18.4919 113.487L18.5756 113.808L18.4822 114.107L18.2128 114.385L18.0078 114.519L17.8671 114.51L17.8596 114.316L17.9852 113.935L18.0174 113.617L17.9562 113.362L17.9638 113.166L18.0378 113.03L18.5327 112.65L18.7409 112.593L18.8526 112.687L18.9911 112.703L19.1585 112.64L19.2637 112.519L19.3077 112.338L19.5214 112.106L19.9046 111.821L20.3436 111.296L20.8374 110.528L21.416 109.863L22.0805 109.304L22.8008 108.859L24.2521 108.246L24.3638 108.283L24.2307 108.483L24.3208 108.607L24.4636 108.623L24.995 108.525L25.2064 108.396L25.2687 108.52L25.1946 108.677L24.8758 108.836L24.8844 108.968L25.3492 109.585L25.4952 109.679L25.6165 109.667L25.668 109.587L25.6294 109.142L25.7861 109.057L26.1071 109.036L26.3164 109.094L26.4141 109.23L26.5976 109.343L26.8671 109.433L27.0345 109.405L27.1 109.26L26.9852 109.087L26.4688 108.707L26.325 108.548L26.2906 108.326L26.3636 108.042L26.5257 107.619L26.7769 107.057L27.0045 106.664L27.465 106.218L27.7752 105.997L28.5621 105.318L30.0746 104.625L30.4482 104.178L30.9559 103.684L31.1738 103.563V103.754L31.2436 103.925L31.5828 104.039L31.804 104.078L31.9059 104.044L31.9338 103.863L31.8888 103.533L31.8769 103.222L31.8995 102.929L31.9489 102.697L32.1754 102.284L32.5124 101.812L32.973 101.264L33.2639 101.015L33.5376 100.882L33.8027 100.641L34.259 100.071L34.405 99.9777L34.7324 99.865L34.8526 99.9144L34.9224 100.058L35.0082 100.147L35.34 100.228L35.5611 100.101L35.5246 100.034L35.3453 99.9896L35.2305 99.9069L35.122 99.5666L34.902 99.3616L34.8526 99.1286L34.8923 98.7658L35.0812 97.9113L35.1124 97.029L35.2809 96.5212L35.619 96.3376L36.3694 96.212L35.9304 95.9823L35.7672 95.9812L35.4816 95.8728L35.3732 95.3168L35.3754 94.9121L35.5643 94.4419L36.2631 93.6465L37.0285 93.0936L36.9244 93.0485L36.8299 92.8843L37.1831 91.7722L37.5277 90.7749L37.0629 91.6251L36.5251 92.2735L34.9471 93.0238L33.8736 93.6508L33.3648 93.8L33.0288 93.6411L32.7669 93.0399L32.6166 92.8252L32.4244 92.4324L32.506 91.9192L32.6584 91.5639L32.9934 91.5059L33.3712 91.6777L33.6986 91.6927L33.2767 91.3417L32.6681 91.0347L32.3922 91.1346L32.1807 91.6315L31.8984 91.9719L31.6504 91.8505L31.5034 91.7121L31.6054 92.1275L31.4175 92.7587L31.3467 93.1945L31.615 94.341L31.5656 94.7972L31.0772 95.0065L30.679 94.6319L29.8492 93.1806L29.5593 92.7651L28.9088 92.0781L28.6941 92.1758L28.4204 92.515L28.1552 92.6084L27.4553 92.1082L27.129 91.726L26.8209 91.2612L26.3486 91.5178L25.9364 91.8226L25.4533 92.3078L25.1302 92.3035L24.2521 92.719L24.1587 92.7276L24.0353 92.9508L23.914 93.0507L23.8141 93.4801L22.6269 93.8128L21.4536 93.6271L21.8637 93.391L22.322 93.2053L22.7203 92.7576L22.5507 92.1575L22.5217 91.8516L22.526 91.4641L22.9607 90.9188L22.5088 90.9198L22.2179 91.1152L21.9463 90.7051L21.8186 89.8958L22.1299 89.4148L22.2737 89.0434L22.3961 88.5325L22.4047 88.0923L22.1642 87.3452L21.4729 85.7533L21.1584 84.5574L20.6195 83.9176L21.0221 82.8656L21.4708 81.9027L22.0504 81.4701L22.0043 81.4057L21.6844 81.4089L21.474 81.4658L21.2883 81.7803L21.0918 82.0197L20.4789 83.2446L20.0839 83.8393L19.8273 84.0089L20.2406 84.2386L20.3039 84.4318L20.3833 84.8709L20.2771 85.4022L20.1708 85.6953L19.6834 85.6717L19.2455 86.0978L18.2171 86.5605L16.828 86.8246L16.1453 86.7935L15.4347 86.2546L15.44 85.9411L15.469 85.6695L14.4482 84.7345L13.8706 83.7985L13.4552 83.7781L13.0945 83.528L12.6683 83.1383L12.7059 82.8238L12.7735 82.6016L12.5116 82.4459L12.1767 82.4609L11.787 82.3536L12.8047 81.1341L13.1546 80.3129L13.4402 80.1959L13.8105 80.3226L14.3215 80.6468L14.7519 80.7896L14.9076 80.942L15.0665 81.2286L14.899 81.7084L14.7455 82.0444L14.9344 81.9543L15.4701 81.4336L15.8694 80.9753L16.0605 81.0225L16.185 81.103L16.4072 81.5753L16.682 82.0552L17.2885 81.5979L17.6127 81.0268L17.339 80.7767L17.0041 80.6275L16.1496 80.4332L16.3579 80.2689L16.9064 80.2872L17.1125 80.1304L16.8957 79.9125L16.6241 79.7172L15.8845 80.3666L14.5383 80.3344L13.598 79.9544L12.6587 80.0209L12.5105 79.9458L12.3281 79.7429L12.8573 79.2588L13.2319 78.9904L13.2523 78.8348L13.0344 78.8154L12.6254 78.9443L12.4429 78.721L12.473 78.3324L12.4053 78.3678L12.2433 78.5804L12.0146 78.4752L11.816 78.2927L11.9191 78.1059L12.1209 77.8482L12.0318 77.8096L11.8514 77.8644L11.6754 78.2003L11.714 78.4719L11.7097 78.8616L11.4092 78.9324L11.1515 78.8863L10.9658 78.4945L10.7737 77.6529L10.2541 77.4285L10.1264 77.0013L10.4549 76.4506L10.3099 76.1661L9.95999 76.0738L9.56066 76.3518L9.38354 76.1049L9.35134 75.8334L9.33738 75.4426L9.44902 75.4007L9.54134 75.478L10.3432 75.2612L10.4205 75.1549L9.78502 74.8232L9.6079 74.4743L9.8709 74.2758L10.3454 74.2586L11.0109 74.0514L10.7307 73.68L10.6717 73.476L10.6159 73.1411L10.7264 72.5711L11.509 71.2583L12.2712 70.1569L12.5084 69.9025L12.8573 69.7651L13.1825 69.8713L13.5218 70.1086L13.5862 70.0066L13.4713 69.91L13.3264 69.457L13.7976 69.2788L14.0735 68.7657L14.0939 68.6164L13.7944 68.8301L13.482 69.1811L13.4037 68.8279L13.3232 68.0142L13.4606 67.2424L13.5679 66.8946L13.8288 66.564L14.5802 66.4309L14.7133 66.4974L14.7401 66.3407L14.2882 65.8512L14.4739 65.468L14.6371 65.2683L15.5452 64.957L16.0412 65.0536L16.6638 65.4164L17.0255 65.8673L16.9729 66.0981L16.8838 66.2323L16.6971 66.3815L16.6273 66.4974L16.6606 66.5897L16.9279 66.3214L17.3648 65.995L17.6095 66.1367L17.8027 66.3944L18.0164 66.3901L18.6959 66.1689L19.0404 65.9349L19.4623 65.3241L20.0227 64.9291L20.8117 63.6753L21.0435 63.1589L21.313 63.0795L21.5566 63.1246L21.7263 63.5486L21.9742 63.6721L23.3858 63.569L24.1072 63.3747L24.6085 62.9636L25.1302 62.269L25.4319 61.8021L25.5768 61.1924L25.39 60.4001L25.1989 59.7399L24.9477 58.2221L24.2468 57.213L23.7487 56.9103L23.432 56.9532L23.6606 56.3059L24.3283 56.3757L24.7631 56.249L25.1152 55.9367L25.23 55.6994L25.4039 55.2142L25.3438 54.6957L25.2504 54.4134L25.0078 54.1021L24.7191 53.6459L24.5173 53.4935L24.3466 53.5031L23.505 54.4188L22.9994 54.436L22.6215 54.2685L22.293 54.7881L21.3774 55.2432L20.8879 55.7016L19.9808 56.8352L19.7543 57.3461L19.4645 57.3687L19.2551 56.3768L18.2686 55.4257L17.9702 55.7499L18.1344 56.0483L18.3577 56.2608L18.7259 56.3532L18.567 56.6409L18.4468 57.023L18.0775 56.6645L17.4174 56.1428L16.7336 55.8733L14.9538 55.9034L13.7858 56.439L13.6785 56.3274L13.5658 56.2834L13.3704 56.4111L13.2867 56.6291L13.1589 56.7654L12.9206 56.8137L12.4397 56.7332L11.5122 56.4004L9.4136 55.9109L8.86398 55.6093L8.39381 54.889L8.40347 54.3984L8.61279 54.1901L8.5924 53.4849L8.18448 53.297L7.35254 52.2772L7.04661 51.8414L7.11316 51.7931L7.26237 51.9112L7.54684 52.0003L8.24459 51.8586L8.48398 51.1941L9.00139 51.0041L9.47801 51.0975L9.37066 50.9171L9.24936 50.7754L8.00843 50.4351L7.8399 50.5393L5.6146 49.9338L3.85734 48.8776L3.71349 48.6747L3.55355 48.2217L3.79078 47.773L4.02909 47.5604L4.03983 47.8073L4.07847 48.0499L5.08538 47.4863L5.61246 46.7446L6.60971 46.6136L6.84158 46.4086L7.15181 46.0082L7.59407 45.3222L8.2199 44.9605L8.64607 44.6352L9.20105 44.442L9.67445 44.763L9.82044 44.807L10.6792 44.8725L10.9615 44.734L11.0818 44.6309L11.1719 44.4678L10.3282 43.8859L10.4141 43.5617L10.5214 43.3331L11.5058 42.6515L12.2626 42.426L12.6673 42.4421L13.8416 41.5576L14.4847 41.3042L15.6966 41.1357L16.6928 41.0917L16.9622 41.4084L16.4266 41.3418L16.1915 41.3998L16.3589 41.5082L16.5479 41.739L16.4931 42.0299L16.1646 42.8898L16.1915 43.5757L15.9778 43.7979L15.7707 44.1103L16.7905 45.0904L18.3685 45.1526L19.2272 44.9755L19.7232 45.2675L20.1289 45.334L21.2518 45.1838L22.0977 45.392L22.4508 45.3126L23.2334 43.8473L23.5393 43.6165L23.8721 43.872L24.3058 44.0792L24.5827 43.9289L24.8082 44.3078L24.7019 43.5177L24.5484 43.2204L23.271 42.674L22.4165 42.9456L22.1492 42.6375L22.2383 42.0256L21.3237 40.5099L20.9426 40.2007L20.4918 40.1857L20.262 39.6554L20.0699 38.9727L20.4585 38.6925L20.8106 38.5658L21.1358 38.787L21.504 39.6844L21.8465 39.8164L21.7467 40.7063L22.1717 41.5232L23.1314 42.279L23.9 42.0009L24.4432 42.0095L24.7674 42.1684L25.5617 42.8447L25.9654 42.9295L27.2267 42.5752L27.2396 41.9097L27.1333 41.4266L26.837 41.1228L25.9847 41.1797L25.3213 40.6795L24.7566 40.8169L23.7122 41.5823L23.1894 41.2817L22.8609 40.8727L22.3306 40.4562L22.2641 39.6661L22.7085 38.7558L23.037 38.3211L22.7428 38.0033L22.0032 37.7801L20.7193 38.0087L20.6592 37.6963L20.6657 37.3593L20.1429 38.0194L19.6062 37.881L18.8826 37.9518L17.2853 37.37L16.7164 36.6497L16.4781 36.0636L16.0476 34.4469L15.498 33.4293L11.699 29.9287L9.97073 29.0388L9.13879 28.0491L8.61709 27.8043L8.119 27.7045L7.48029 27.3835L7.90967 26.9885L8.20488 26.8543L7.89786 27.2676L8.13081 27.3717L8.50223 27.1334L8.70296 26.8479L8.99709 25.6316L9.30088 23.7767L9.2193 23.0414L11.3265 23.1895L12.7295 23.065L13.1943 22.8975L14.9634 22.6131L15.4218 22.407L16.272 21.7725L17.2735 20.6465L18.1323 19.1565L18.2686 18.7539L18.3234 18.857L18.4007 18.7926L18.4919 18.2237L18.6046 16.8786L19.0308 15.6001L20.8439 12.6534L21.6855 11.4726L21.9656 10.9338L22.2576 10.5398L22.4637 10.9144L22.5614 11.0261L22.6183 11.2021L22.4455 11.2837L22.1642 11.6659L21.7713 11.9213L21.6769 12.0523L21.9077 12.0233L22.5979 11.7453L22.9876 11.4082L24.9241 10.7824L25.974 9.74436L26.0148 9.51249L27.5724 8.205L27.7881 8.25545L28.0361 8.41325L27.6046 9.27632L27.9083 9.50176L27.6389 10.5269L28.2035 10.543L28.3302 11.0132L28.3613 10.6085L28.3549 10.0267L28.4 9.45344L28.4837 9.05626L28.8809 9.23554L29.7751 8.80829L28.692 8.75461L28.0425 7.81641L27.6818 7.80889L28.8895 6.42412L29.993 5.58253L30.2421 5.59863L30.3623 5.75535L30.3881 6.00977L30.1497 6.17507L29.9157 6.47349L30.0231 6.7365L30.183 6.77408L30.7133 6.55831L30.9505 6.2878L32.0809 6.31142L32.4126 6.11818L32.492 5.92603L33.9563 5.88739L34.2246 5.75213L35.1403 5.005L35.9873 4.09577L36.3769 3.59769L37.0457 2.32241L37.6189 1.48832L38.5614 0.6521L38.7868 0.756226L38.4809 0.922612L38.2684 1.27686L38.5614 1.74702L40.5463 2.71207L41.0454 2.76468L41.2451 3.34006L41.0787 3.89289L40.5667 4.50476L39.5361 5.12952L39.8517 5.36461L40.0578 5.91851L40.3627 5.98615L40.8576 5.77789L41.2451 5.4376L42.047 4.32442L42.2992 3.70074L42.4882 3.54294L43.1601 3.69322L43.5402 4.01418L43.9738 4.58205L43.815 5.12952L43.6378 5.4376L44.1993 5.86269L44.8219 5.9518L45.4155 6.29315L46.2496 5.59432L46.9033 5.44512L47.5163 5.46766L48.3139 5.0855L49.6632 5.60613L50.0067 5.47089L50.5477 5.56106L51.1231 5.8745L51.326 6.20835L50.7098 6.91362L50.61 7.63821L50.8247 7.93986L51.2144 7.99138L51.2637 8.41325L51.5063 8.51846L52.7237 8.48732L52.6303 8.68806L52.5712 8.92959L52.1944 9.4631L54.3639 9.7626L54.6548 9.46739L55.1035 9.35039L56.0568 8.94247L56.4153 9.12066L56.8383 9.53717L57.229 9.62413L57.594 9.53932L58.4442 8.94461L59.4264 8.91564L59.8289 9.10994L60.254 9.02514L61.5336 9.7057L62.0048 9.78514L62.635 10.6665L62.9602 10.6922L63.3284 10.3186L63.6483 10.3305L63.9607 10.6879L64.4717 10.7974L64.71 11.3599L64.9665 11.5639L66.902 11.9804L67.8606 11.7904L69.2572 11.8398L69.9302 12.106L70.6366 12.0716L71.7906 13.0367L72.4024 13.187L72.5216 13.4092L74.2638 13.6432L74.8736 13.1419L75.9363 13.0088L76.8927 12.5858L77.4348 12.5901L78.066 12.6953L78.3086 12.6449L78.4836 12.4602L80.0219 13.188L80.8828 14.0167L81.2596 14.6265L83.0609 15.4949L83.5815 15.979L83.9379 16.5115L84.1472 16.5684L84.2943 16.4127L84.9233 16.4578L85.1531 16.5351ZM9.51128 44.0223L9.39535 44.0641L9.40179 43.9503L9.7453 43.6466L10.3786 43.2698L10.355 43.3513L10.0169 43.6433L9.51128 44.0223ZM64.2795 80.5995L63.8984 80.65L63.7235 80.5716L63.6988 80.4868L63.7707 80.1745L63.7653 80.0424L63.9575 79.993L64.1786 80.1412L64.243 80.2947L64.2795 80.5995ZM51.9572 83.4442L51.8123 83.4668L52.0066 83.1662L52.1418 82.579L52.3233 82.6606L52.3598 82.768L52.0603 83.3702L51.9572 83.4442ZM65.0996 82.9043L65.0986 83.0642L65.0041 83.2188L65.0943 83.5011L64.9376 83.9852L64.8774 84.2923L64.7937 84.4855L64.71 84.5596L64.6252 84.5155L64.6069 84.4093L64.6563 84.2397L64.4577 84.245L64.3965 83.8221L64.5071 83.6879L64.5468 83.5076L64.5597 83.3852L64.6896 82.8452L64.7357 82.8077L64.7508 82.9365L64.7926 82.974L64.8613 82.9214L64.9644 82.681L65.0084 82.6531L65.0996 82.9043ZM68.9094 82.9096L68.977 83.0771L69.5567 83.0363L69.7231 83.0664L69.7896 83.1437L69.7113 83.2564L69.488 83.4056L68.8353 83.6675L68.305 84.011L68.2363 83.9788L68.1397 83.6031L68.042 83.4507L67.9819 83.2381V83.1587L68.0796 83.0116L68.2739 82.7969L68.4113 82.7196L68.9094 82.9096ZM72.7513 83.5945L72.6547 83.7426L72.3917 83.6901L72.2511 83.5956L72.7213 83.2049L72.7985 83.2832L72.7513 83.5945ZM9.434 83.3122L9.71095 83.6138L9.85801 83.631L10.3218 83.5398L10.4924 83.6042L10.6567 83.7341L10.7587 83.9327L10.778 84.2805L10.7028 84.5907L10.7254 85.0276L10.7093 85.2155L10.9551 85.4623L11.0324 85.7962L11.0721 86.1547L10.5375 86.2739L10.0029 86.2932L9.54134 86.5358L9.44688 86.7151L9.52095 86.9802L9.39428 87.0479L9.27727 86.9899L9.05399 86.7441L8.80924 86.6271L7.95154 86.4456L6.87485 85.7296L6.41112 85.5815L5.94094 85.0555L5.51584 84.3846L5.7928 84.2762L6.0719 84.2214L7.32356 84.3212L7.48029 83.8393L7.64131 83.719L8.03849 83.5827L8.40991 83.3143L8.5763 83.3208L8.7459 83.4238L9.098 83.2639L9.28478 83.2295L9.434 83.3122ZM64.8667 86.7526L64.5339 86.8396L64.4556 86.6625L64.6305 86.2213L64.7701 85.9712L64.8742 85.9121L65.2564 85.413L65.6804 85.0491L66.0701 84.5155L66.4651 83.7523L66.5381 83.4668L66.7217 83.4367L67.0233 83.6246L67.2101 83.8886L67.1231 84.098L66.1237 85.18L66.04 85.3206L65.9498 85.6867L65.8672 85.8144L65.7351 85.8724L65.6396 86.0313L65.5795 86.2921L65.456 86.4285L65.2693 86.4403L65.1404 86.5122L65.0685 86.6442L64.8667 86.7526ZM64.0047 85.2391L63.8469 85.4237L63.2511 85.3121L63.3746 84.9482L63.8297 84.7184L64.3278 85.0759L64.0047 85.2391ZM74.4173 86.7226L74.2724 86.7569L74.4893 86.3641L74.7802 85.9293L75.0539 85.6566L75.4103 85.5429L75.3706 85.7414L74.9058 86.1086L74.4173 86.7226ZM25.1506 94.0136L24.9295 94.1059L24.6955 94.0597L24.5108 93.4876L24.6525 93.4693L24.9488 93.0915L25.6047 92.7855L25.7657 92.7512L25.1506 94.0136ZM50.5563 94.5439L50.4672 94.5804L50.2472 94.4043L50.1023 94.2175L50.1978 94.0748L50.624 93.7742L50.8279 93.7688L50.9116 93.8161L50.9449 93.9095L50.9288 94.0479L50.8376 94.2208L50.5563 94.5439ZM50.7635 95.2599L50.873 95.306L50.9868 94.9647L51.0673 94.9539L51.4237 95.2427L51.6427 95.1783L51.7833 95.5336L51.91 95.5658L52.027 95.5229L52.0978 95.5476L52.0731 95.9222L51.8123 96.3011L51.691 96.3967L51.5214 96.299L51.458 96.2625L51.3464 96.095L51.2616 95.8835L51.2111 95.8803L51.0126 96.1294L51.0168 96.2528L51.0995 96.4375L51.0877 96.5523L50.8709 96.6071L50.6583 96.5781L50.3985 96.7391L50.3363 96.6393L50.2965 96.357L50.216 96.3892L50.0937 96.7348L49.9595 96.9538L49.7158 97.1352L49.6621 97.2232L49.4839 97.235L49.2199 97.3488L49.0567 97.3295L48.0841 96.9549L47.8555 96.8175L48.6552 95.9555L49.076 95.6206L49.3197 95.6388L49.5634 95.7429L49.6922 95.7257L49.7018 95.3425L49.4753 95.0559L49.4839 94.9368L49.9852 94.7403L50.1731 94.7682L50.3803 94.8691L50.5767 95.0323L50.7635 95.2599ZM104.198 96.3945L104.964 96.5244L105.524 96.4954L106.036 97.3456L106.351 98.0294L106.535 98.5071L106.641 98.9676L106.781 99.411L106.768 99.4732L106.473 99.1748L106.261 98.5683L106.152 98.331L106.045 98.2237L105.932 97.9994L105.712 97.4175L105.705 97.2533L105.607 97.1009L105.494 97.0375L105.366 97.0622L105.322 97.1213L105.342 97.5238L105.443 97.9704L105.995 98.9429L106.365 99.4947L106.438 99.6772L106.486 100.18L106.327 100.406L106.523 100.868L106.515 100.958L106.472 101.046L105.946 101.25L105.464 102.101L104.936 102.598L104.692 102.678L104.575 102.595L104.465 102.405L104.399 102.15L104.38 101.832L104.512 101.63L104.773 100.58L104.78 100.234L104.455 99.7534L104.259 99.3594L104.152 98.8087L103.974 97.3445L103.891 96.8744L103.776 96.4815L103.625 96.1669L103.513 95.8202L103.435 95.4413L103.464 95.2942L103.725 95.4917L104.039 96.0349L104.198 96.3945ZM105.305 96.0113L105.284 96.153L104.873 96.139L104.458 95.9308L104.254 95.657L104.295 95.5336L104.68 95.4188L105.045 95.6785L105.305 96.0113ZM101.035 95.9233L101.465 96.4793L101.469 96.6071L101.381 96.9881L101.147 97.0955L101.213 97.2469L101.387 97.3606L101.512 97.2662L101.966 96.7327L102.105 96.621L102.19 96.6092L102.744 96.7702L103.228 97.0247L103.371 97.2275L103.451 97.5829L103.323 98.3493L102.925 98.4824L102.738 98.4685L102.537 98.3568L102.214 98.623L102.482 98.8259L103.298 98.8721L103.545 99.3015L103.616 99.6321L103.44 100.238L102.977 100.07L102.569 99.719L101.733 99.221L101.532 99.1984L101.398 99.2864L101.361 99.5881L101.37 100.241L101.147 100.579L100.488 100.43L100.229 99.9359L99.9873 99.1523L99.0781 98.2194L98.8322 98.0326L98.5048 97.4723L98.6358 97.0268L98.6744 96.7692L98.8494 96.7005L99.1049 96.5008L99.2477 96.0682L99.4774 96.4181L99.7844 96.7541L99.7887 96.4385L99.9336 96.1863L100.235 96.1959L100.377 96.1433L100.574 95.9072L100.86 95.7848L101.035 95.9233ZM49.3143 98.3107L49.3358 98.6209L49.4582 98.5833L49.9219 98.2645L50.1634 98.1711L50.478 98.1561L50.727 98.3021L50.7775 98.4137L50.7549 98.5468L50.5553 98.8162L50.5638 98.9913L50.7785 99.3133L51.3056 99.4882L51.37 99.5849L51.3679 99.7008L51.005 100.232L50.8719 100.356L50.7775 100.386L50.1184 100.29L49.5151 100.116L49.2714 100.086L49.1844 100.143L49.0138 100.306L49.1361 100.355L49.6643 100.393L49.8511 100.63L49.9326 100.805L49.9734 100.998L49.8682 101.076L49.6428 101.134L49.3723 101.133L49.0374 101.349L48.8527 101.595L48.1818 101.658L47.6709 101.986L47.4916 102.148L47.4282 102.342L47.235 102.481L46.8003 102.622L47.0601 102.747L47.1008 102.854L47.1051 103.001L47.0697 103.127L46.7262 103.691L46.0778 104.154L45.9136 104.132L45.8427 104.074L45.7848 103.986L45.7826 103.897L46.6189 102.967L46.5856 102.922L46.358 102.891L45.9984 102.635L45.744 102.8L45.686 102.793L45.7536 102.573L45.919 102.311L45.89 102.237L45.7987 102.172L45.5894 102.132L45.2609 102.119L45.0172 102.182L44.8594 102.319L44.8466 102.377L45.1826 102.361L45.2738 102.431L45.364 102.561L45.4187 102.711L45.4391 102.881L45.3683 103.11L45.2083 103.397L44.9732 103.346L44.4912 102.708L44.2787 101.769L43.8665 101.05L43.8482 100.877L43.9652 100.432L44.3807 99.7974L44.8272 99.6235L45.145 99.3562L45.4531 99.2757L45.6431 99.2822L45.9039 99.397L46.0091 99.6407L45.9458 99.7545L45.9694 99.8146L46.1519 99.9606L46.3494 100.47L46.5791 100.921L46.7326 101.104L46.9345 101.217L46.7262 100.873L46.6028 100.447L46.5405 99.5945L46.4804 99.368L46.5974 99.3079L46.9269 99.3412L46.9184 99.2135L46.5705 98.9247L46.3569 98.6853L46.2764 98.4964L46.2807 98.3321L46.4707 98.0895L46.5781 98.0208L46.6897 97.9908L46.9108 98.0423L47.0096 98.1185L47.293 98.6638L47.4261 98.8334H47.5367L47.6387 98.7433L47.7331 98.5629L47.8308 98.4545L47.9306 98.4191L48.2462 98.4996L48.3514 98.4695L48.403 98.3332L48.4008 98.0885L48.4792 98.0004L48.4985 97.8201L48.3267 97.5539L48.5243 97.4723L49.1791 97.6752L49.4592 97.8974L49.3143 98.3107ZM48.2827 98.1636L48.1979 98.3203L48.1185 98.2795L47.95 98.096L47.6064 97.8276L47.4497 97.644L47.4401 97.5657L47.5581 97.4787L47.9618 97.6956L48.1335 97.8931L48.2827 98.1636ZM103.327 100.962L103.582 101.573L103.768 102.045L103.933 102.612L104.209 103.781L104.338 104.221L104.379 104.462L104.409 105.09L104.367 105.225L104.284 105.348L104.268 105.528L104.344 106.004L104.349 106.727L104.277 107.132L104.192 107.194L103.986 107.06L103.816 106.84L103.692 106.612L103.384 105.887L103.292 105.549L103.287 105.305L103.334 105.127L103.435 105.017L103.61 104.72L103.586 104.673L103.452 104.74L103.181 104.777L102.941 104.543L102.755 104.42L102.792 103.997L102.743 103.878L102.376 104.009L102.238 103.891L102.208 103.732L102.215 103.494L102.285 103.286L102.632 102.759L102.597 102.661L102.427 102.64L102.204 102.46L102.102 101.867L101.862 101.529L101.72 101.56L101.398 102.515L101.239 102.724L100.786 102.858L100.878 102.593L100.921 102.355L100.76 101.635L100.756 101.357L100.863 101.152L101.183 101.066L101.353 100.945L101.485 100.746L101.518 100.553L101.766 100.04L101.882 99.9402L102.191 99.9466L102.841 100.514L103.038 100.598L103.327 100.962ZM48.9858 102.221L48.6026 102.399L48.535 102.392L48.2988 102.753L48.1185 102.908L47.8802 102.624L47.9414 102.182L48.1496 101.887L49.2038 101.986L49.2853 102.069L49.2875 102.139L49.2102 102.197L48.9858 102.221ZM108.157 102.892L108.358 103.065L108.468 102.884L108.671 102.892L109.048 103.053L109.273 103.295L109.399 103.571L109.41 103.735L109.372 104.107L109.399 104.488L109.383 104.686L109.333 104.849L109.248 104.978L109.156 104.994L108.863 104.653L108.527 104.035L108.271 103.848L108.26 103.912L108.33 104.089L108.54 104.422L108.577 104.622L108.724 104.865L108.79 105.049L108.827 105.29L108.826 105.501L108.785 105.681L108.718 105.796L108.622 105.846L108.109 105.796L107.803 105.916L107.446 105.849L107.36 105.739L107.306 105.561L107.279 105.127L107.189 104.505L107.211 104.025L106.98 103.59L106.782 103.327L106.498 103.092L106.311 102.858L106.363 102.671L106.654 102.532L107.13 102.565L108.157 102.892ZM106.28 103.765L106.475 104.145L106.759 104.114L106.918 104.401L107.038 104.831L106.95 105.106L106.824 105.045L106.685 105.203L106.599 105.73L106.638 106.258L106.596 106.781L106.433 107.314L106.4 107.67L106.337 107.776L106.267 107.813L106.177 107.716L106.046 107.641L105.881 107.941L105.679 107.943L105.511 107.261L105.661 106.121L105.995 105.888L105.796 105.577L105.375 105.214L105.41 105.012L105.091 104.427L105.072 104.288L105.123 103.798L105.421 103.36L105.816 103.283L106.092 103.471L106.247 103.631L106.28 103.765ZM110.023 105.513L109.991 105.592L109.608 105.584L109.469 105.519L109.418 105.286L109.453 105.07L109.542 104.903L109.651 104.58L109.735 104.041L110.297 104.644L110.47 104.912L110.562 105.24L110.362 105.362L110.121 105.421L110.023 105.513ZM45.3661 105.572L45.218 105.583L44.9947 105.44L45.0248 105.267L45.3425 105.058L45.6635 105.091L45.6871 105.207L45.6721 105.338L45.6463 105.413L45.5443 105.491L45.3661 105.572ZM43.9373 106.002L43.7312 106.131L43.6636 106.086L43.6539 105.979L43.7023 105.81L43.7978 105.64L44.1155 105.318L44.4354 105.105L44.5986 105.118L44.6544 105.254L44.4548 105.536L43.9373 106.002ZM111.935 107.769L111.873 108.663L111.754 108.613L111.64 108.612L111.408 108.738L111.163 108.682L111.048 108.584L111.006 108.469L111.05 108.203L110.915 108.055L110.458 108.001L110.286 107.937L110.192 107.657L110.169 107.29L110.241 107.153L110.472 107.056L110.651 106.609L110.751 106.548L111.131 105.66L111.322 105.722L111.656 106.263L112.075 107.042L111.935 107.769ZM109.924 107.025L109.77 107.042L109.587 106.96L109.155 106.518L109.147 106.388L109.209 106.24L109.455 105.97L109.556 105.904L110.147 105.933L110.336 106.005L110.378 106.132L110.369 106.261L110.307 106.391L110.293 106.526L110.326 106.668L110.257 106.808L109.924 107.025ZM107.555 106.527L108.126 106.643L108.649 106.631L108.828 106.854L108.946 107.089L109.015 107.311L109.034 107.518L109.021 107.664L108.957 107.82L108.971 107.873L109.993 108.385L110.475 108.922L110.667 109.203L110.779 109.44L110.981 110.034L111.406 110.721L111.629 110.929L111.756 111.132L111.685 111.14L111.385 110.989L110.737 110.53L110.683 110.548L110.624 110.797L110.523 111.015L110.374 111.172L110.493 111.218L111.016 111.119L111.456 111.566L111.627 111.646L111.792 111.966L111.798 112.089L111.701 112.325L111.627 112.421L111.652 112.487L111.774 112.52L112.259 112.454L112.346 112.57L112.274 113.488L112.343 113.825L112.342 113.979L112.286 114.182L112.284 114.354L112.328 114.53L112.333 114.686L112.21 115.095L112.08 115.164L111.871 115.167L111.705 115.051L111.473 114.699L111.248 114.152L111.161 114.073L110.865 113.991L110.811 113.925L110.622 113.914L110.488 113.688L110.504 113.392L110.388 113.088L110.402 112.953L110.272 112.896L110.163 112.982L110.22 113.279L110.155 113.509L109.92 113.412L109.527 112.676L109.081 112.083L108.906 111.943L108.952 111.77L109.172 111.679L109.35 111.686L109.387 111.583L109.014 111.008L109.027 110.844L109.162 110.554L108.993 110.432L108.528 110.523L108.364 110.462L108.229 110.228L108.151 110.025L107.748 109.989L107.596 110.014L107.333 109.706L107.214 109.511L107.261 109.411L107.503 109.236L107.644 109.261L107.916 109.448L108.022 109.441L108.292 109.193L108.332 108.97L108.534 108.786L108.502 108.591L108.39 108.26L108.143 108.167L107.639 108.365L107.2 108.669L107.024 108.55L106.985 108.365L107.455 107.858L107.661 107.578L107.622 107.412L107.47 107.196L107.458 106.656L107.555 106.527ZM115.349 111.087L115.243 111.669L115.036 112.262L114.72 112.581L114.496 112.51L114.332 112.253L114.18 112.267L114.017 112.214L113.926 112.001L114.012 111.725L113.936 111.511L113.855 111.698L113.713 111.869L113.353 112.092L113.105 112.517L112.988 112.794L112.842 112.492L112.749 111.776L112.737 111.471L112.998 111.011L113.335 110.573L113.402 109.26L114.474 108.597L114.574 108.631L114.921 109.126L115.292 109.816L115.387 110.126L115.389 110.666L115.349 111.087ZM41.2762 109.318L41.1592 109.487L40.9306 109.475L40.8028 109.42L40.7599 109.272L41.112 108.825L41.1925 108.765L41.2558 108.782L41.2837 108.967L41.2762 109.318ZM108.342 110.797L108.409 110.946L108.413 111.041L107.977 111.393L107.97 111.466L107.868 111.683L107.776 111.762L107.614 111.997L107.304 112.251L107.35 111.49L107.042 111.046L107.352 110.822L107.555 110.886L107.892 110.912L108.221 110.717L108.342 110.797ZM25.8548 112.01L25.901 112.013L25.9933 111.973L26.1887 111.675L26.2531 111.662L26.2541 111.754L26.1618 112.048L26.3185 112.441L26.4645 112.629L26.4495 112.695L26.0835 112.83L25.8044 112.733L25.6573 112.767L25.5231 112.903L25.4319 112.752L25.3685 112.027L25.39 111.901L25.5424 111.648L25.7389 111.535L25.8237 111.568L25.8945 111.669L25.9128 111.774L25.8548 112.01ZM26.9261 111.889L26.8843 112.305L26.4699 112.04L26.3593 111.908L26.4334 111.811L26.8274 111.786L26.9261 111.889ZM109.675 114.218L109.749 114.289L109.825 114.24L109.947 114.054L110.163 114.091L110.319 114.153L110.415 114.23L110.364 114.501L110.326 114.941L110.237 115.096L110.149 115.315L109.843 115.186L109.595 114.906L109.235 114.426L109.034 114.078L109.018 113.931L108.892 113.824L108.645 113.223L108.505 112.747L108.283 112.692L108.003 112.559L107.894 112.297L107.97 112.067L108.369 111.951L108.969 112.542L109.06 112.792L109.275 113.084L109.316 113.491L109.425 113.649L109.675 114.218ZM28.3012 112.99L28.1177 113.105L28.0597 113.251L27.9202 113.313L27.8031 113.433L27.4081 113.971L27.2353 114.07L27.4264 113.611L27.4564 113.465L27.4596 113.367L27.4006 113.019L27.5155 113.034L27.6099 112.962L27.801 112.653L27.9728 112.626L28.1574 112.258L28.2572 112.229L28.3066 112.279L28.225 112.502L28.4021 112.707L28.3571 112.905L28.3012 112.99ZM114.262 113.248L114.57 113.932L114.586 114.171L114.293 114.255L114.063 114.22L113.943 114.142L113.912 114.03L113.987 113.685L113.835 113.482L113.659 113.412L113.502 113.531L113.494 113.19L113.612 112.944L113.546 112.61L113.544 112.358L113.584 112.278L113.743 112.285L114.068 112.546L114.262 113.248ZM29.379 112.869L29.3629 113.288L29.3189 113.353L29.2384 113.242L29.0688 113.366L28.9764 113.276L29.0162 113.13L29.0033 113.016L29.1289 113.006L29.1589 112.798L29.1364 112.71L29.1987 112.522L29.2877 112.478L29.379 112.869ZM29.8406 113.81L29.7429 113.837L29.6624 113.78L29.5507 113.483L29.5411 113.357L29.7569 113.451L29.8384 113.668L29.8406 113.81ZM17.4463 113.767L17.7383 114.632L17.865 114.8L18.0529 114.891L18.3169 114.984L18.4737 115.111L18.6111 115.306L18.6293 115.395L17.8017 115.048L17.281 115.555L17.1243 115.621L15.6472 115.645L15.352 115.738L15.1609 115.903L14.8239 116.363L14.6521 116.542L14.4718 116.649L14.0885 116.767L13.628 116.751L13.3876 116.691L13.2588 116.472L13.145 116.04V115.92L13.1933 115.713L13.6033 115.427L13.7397 115.276L14.271 114.291L14.4256 114.156L14.5888 114.123L15.0429 114.191L15.4304 113.903L16.2655 113.463L16.4491 113.41L17.0502 113.4L17.2145 113.469L17.3411 113.593L17.4463 113.767ZM20.9952 114.466L20.9233 114.49L20.7161 114.33L20.641 114.211L20.5862 114.024L21.0092 113.756L21.0972 113.752L21.1766 113.904L21.1906 114.022L21.0736 114.361L20.9952 114.466ZM20.2234 116.781L19.9625 116.893L19.6856 116.775L19.4484 116.557L19.4215 116.298L19.9497 116.466L20.0624 116.546L20.2234 116.781ZM11.1644 118.143L11.0324 118.182L11.0013 118.129L10.9852 117.904L10.8842 117.545L11.0764 117.415L11.1966 117.385L11.2471 117.44L11.3856 117.708L11.524 117.779L11.626 117.836L11.4467 117.918L11.1644 118.143ZM10.3207 118.481L10.2069 118.571L10.1156 118.591L10.0469 118.54L9.73242 118.601L9.67123 118.565L9.53275 118.259L9.52417 118.101L9.57891 117.977L9.71846 117.863L9.94389 117.761L10.1661 117.782L10.5525 118.065L10.734 118.23L10.7683 118.332L10.6331 118.428L10.3207 118.481ZM7.98911 119.348L8.119 119.591L8.34335 119.438L8.50867 119.227L8.63748 118.956L8.72121 118.848L8.83178 118.992L9.14738 119.187L8.88116 119.488L8.37019 119.937L8.19844 120.237L8.1877 120.367L8.68364 120.268L8.82212 120.282L8.91014 120.385L8.77489 120.507L8.50545 120.617L8.27143 120.831L7.72826 121.2L7.52323 121.507L7.28062 121.624L6.94999 121.652L6.36818 121.852L6.01501 122.04L5.92591 122.141L5.81427 122.187L5.68116 122.181L5.53839 122.264L5.38381 122.434L5.25499 122.513L5.04459 122.531L4.9351 122.598L4.81272 122.596L4.47673 122.393L4.393 122.275L4.69035 122.037L4.90504 121.958L5.23245 121.923L5.55342 121.703L6.21467 121.412L6.4197 121.253L6.55174 120.698L6.70202 120.603L6.78253 120.381L7.14859 120.388L7.31605 120.637L7.37509 120.671L7.40407 120.647L7.42017 120.448L7.60803 120.308L7.49961 120.205L7.16147 120.076L6.91028 120.015L6.74604 120.023L6.61293 119.951L6.50987 119.798L6.46371 119.647L6.4723 119.497L6.55603 119.328L6.71383 119.141L6.89417 119.035L7.28384 118.959L7.6295 118.834L7.81199 118.815L7.95047 118.868L7.98911 119.348ZM9.21071 120.253L9.16778 120.268L9.09049 120.143L9.08727 120.028L9.13664 119.944L9.27727 119.749L9.3771 119.68L9.50055 119.645L9.53383 119.697L9.42541 119.928L9.29015 120.084L9.21071 120.253ZM3.92497 122.165L3.00286 122.703L2.70336 123.096L2.47472 123.474L2.29545 123.68L2.16448 123.715L2.01849 123.815L1.71363 124.078L1.58481 124.11L0.605811 124.723L0.537109 124.733L0.584342 124.573L0.882765 124.347L1.07814 124.139L1.2982 123.798L1.4195 123.671L1.45814 123.5L1.47425 123.152L1.52899 123.02L1.73939 122.758L1.8929 122.615L2.09471 122.566L2.50263 122.61L2.67223 122.475L2.72483 122.375L2.62178 122.282L2.59816 122.122L2.625 121.845L2.74308 121.599L2.95241 121.385L3.23795 121.217L3.59863 121.097L3.86271 121.092L4.33718 121.345L4.40695 121.461L4.28995 121.714L4.22339 121.953L3.92497 122.165ZM228.629 144.758L228.99 144.703L229.3 144.719L229.613 144.743L229.779 144.78L230.26 144.98L230.573 145.143L231.023 145.445L231.272 145.58L231.392 145.894L231.532 146.297H231.732L231.882 146.061L232.264 146.018L232.766 146.183L233.209 146.653L233.844 147.072L234.233 147.28L234.628 147.279L235.129 147.072L235.663 146.67L236.047 146.601L236.275 146.64L236.404 146.953L236.563 147.072L236.978 147.036L237.842 147.096L238.53 147.012L238.687 147.191L238.826 147.473L239.105 147.562L239.484 147.473L240.08 147.534L239.998 147.58L239.91 147.57L239.795 147.637L239.653 147.781L239.323 147.986L238.808 148.254L238.213 148.498L237.008 148.94L236.256 149.397L235.923 149.671L234.63 151.04L233.85 151.767L232.586 152.785L232.466 152.914L232.458 153.034L232.561 153.147L232.819 153.31L233.02 153.33L233.276 153.297L234.291 153.016L234.718 152.82L235.138 152.492L235.181 152.481L235.356 152.541L235.41 152.57L235.956 152.191L236.135 152.143L236.276 152.152L236.451 152.302L236.491 152.392L236.432 152.566L236.276 152.822L236.199 153.038L236.204 153.213L236.136 153.402L235.964 153.659L236.027 153.727L236.487 153.543L236.555 153.471L236.562 153.428L236.534 153.376L236.587 153.353L236.95 153.605L237.191 153.744L237.394 153.811L237.778 153.73L238.344 153.503L238.827 153.226L239.227 152.897L239.725 152.696L240.323 152.622L240.75 152.506L241.007 152.347L241.353 152.037L241.547 151.945L241.792 151.917L241.976 151.797L242.099 151.585L242.333 151.343L242.677 151.073L242.873 150.963L242.921 151.015L242.94 151.11L242.927 151.251L243.013 151.364L243.196 151.45L243.28 151.565L243.264 151.708L243.313 151.829L243.429 151.93L243.459 152.149L243.406 152.485L243.399 152.703L243.44 152.802L243.481 152.858L243.546 152.804L243.629 152.686L243.659 152.613L243.68 152.539L244.183 152.2L244.28 152.183L244.445 152.271L245.205 152.393L245.504 152.48L245.819 152.674L245.926 152.749L246.311 153.376L246.487 153.621L246.597 153.689L246.659 153.784L246.709 154.005L246.769 154.072L247.333 154.119L247.589 154.079L247.744 153.99L247.917 154.048L248.107 154.252L248.294 154.309L248.478 154.22L248.651 154.222L248.813 154.318L248.888 154.386L248.937 154.383L249.258 154.072L249.645 153.795L250.161 153.495L250.46 153.362L250.543 153.394L251.019 153.295L251.447 153.286L252.015 153.346L252.541 153.276L253.025 153.076L253.453 152.964L253.826 152.94L253.966 152.996L253.875 153.133L253.826 153.366L253.819 153.696L253.787 153.904L253.73 153.992L253.724 154.076L253.767 154.156L254.128 154.207L254.318 154.314L254.536 154.319L254.782 154.221L254.97 154.259L255.101 154.429L255.291 154.46L255.476 154.338L255.605 154.223L255.717 154.173L255.804 154.162L255.896 154.22L255.959 154.318L256.115 154.586L256.193 154.767L256.24 155.037L256.273 155.126L256.269 155.283L256.164 155.389L256.136 155.474L256.199 155.559L256.556 155.582L256.718 155.666L256.778 155.759L256.737 155.862L256.759 155.973L256.846 156.089L257.132 156.265L257.202 156.349L257.181 156.438L257.097 156.495L256.947 156.52L255.857 156.355L255.536 156.328L255.488 156.389L255.458 156.398L255.407 156.382L255.314 156.379L255.266 156.339L255.227 156.228L255.132 156.158L254.981 156.126L254.851 156.21L254.699 156.538L254.723 156.599L254.698 156.808L254.737 156.865L254.735 156.912L254.692 156.952L254.603 156.947L254.468 156.897L253.956 156.402L253.568 156.155L253.088 155.974L252.708 155.885L252.429 155.889L252.199 156.017L252.02 156.266L251.74 156.408L251.359 156.442L251.153 156.51L251.121 156.61L250.983 156.612L250.741 156.517L250.49 156.49L250.232 156.532L250.043 156.63L249.842 156.936L249.802 157.086L249.657 157.217L249.272 157.421L249.253 157.496L249.05 157.728L248.985 157.856L248.987 157.981L248.919 157.974L248.783 157.833L248.777 157.644L248.903 157.406L249.015 157.291L249.114 157.299L249.175 157.192L249.199 156.973L249.164 156.864L248.971 156.907L248.871 156.994L248.743 157.013L248.589 156.964L248.454 157.083L248.337 157.372L248.198 157.561L248.035 157.65L247.926 157.551L247.87 157.264V157.04L247.936 156.768L247.902 156.716L247.834 156.803L247.731 157.029L247.593 157.523L247.505 157.683L247.386 157.751L247.197 158.049L246.939 158.577L246.648 159.089L246.324 159.583L246.129 159.848L246.063 159.886L246.034 159.974L246.018 160.29L245.96 160.505L245.791 160.674L245.347 160.886L245.278 161.031L245.268 161.15L244.982 161.643L244.843 161.945L244.752 162.258L244.781 162.456L244.93 162.536L245.051 162.505L245.143 162.362L245.285 162.232L245.477 162.116L245.617 161.946L245.811 161.53L246.029 161.291L246.145 161.277L246.177 161.283L246.404 161.175L246.586 161.21L246.697 161.374L246.81 161.485L246.834 161.59L246.778 161.824L246.674 162.071L246.523 162.33L246.385 162.718L246.262 163.234L246.236 163.624L246.307 163.887L246.24 164.122L246.033 164.328L245.867 164.604L245.741 164.948L245.671 165.237L245.653 165.471L245.672 165.646L245.749 165.882L245.744 166.001L245.52 166.52L245.44 166.771L245.426 166.97L245.37 167.165L245.199 167.561L245.146 167.781L245.136 167.983L245.175 168.314L245.153 168.425L245.163 168.51L245.205 168.567V168.671L245.161 168.822L245.178 168.939L245.255 169.023L245.305 169.183L245.327 169.418L245.386 169.615L245.482 169.771L245.499 170L245.438 170.298L245.406 170.859L245.405 171.68L245.451 172.206L245.543 172.439L245.646 172.611L245.76 172.721L245.891 173.06L246.039 173.629L246.175 174.005L246.302 174.188L246.416 174.288L246.506 174.347L246.572 174.356L246.61 174.445L246.779 174.499L247.09 174.521L247.375 174.486L247.635 174.394L248.462 173.915L248.783 173.654L248.961 173.42L249.134 173.112L249.3 172.73L249.639 172.157L249.804 171.81L249.963 171.37L250.084 170.908L250.164 170.424L250.203 169.92L250.198 169.399L250.117 168.873L249.959 168.341L249.874 168.07L249.841 167.998L249.555 167.315L249.233 166.362L249.238 166.28L249.538 165.71L249.546 165.633L249.514 165.169L249.449 164.936L249.296 164.623L249.301 164.543L249.613 164.143L249.802 163.838L249.974 163.468L250.086 163.035L250.136 162.54L250.135 162.21L250.08 162.044L250.086 161.917L250.151 161.828L250.486 161.712L250.599 161.515L250.622 161.17L250.691 160.998L250.805 161.001L250.91 160.93L251.007 160.785L251.135 160.743L251.293 160.807L251.516 160.592L251.801 160.099L252.02 159.823L252.174 159.766L252.203 159.811L252.108 159.958L252.079 160.12L252.116 160.296L252.083 160.466L252.013 160.699L252.057 160.772L251.934 161.147L251.929 161.334L252.003 161.476L252.091 161.426L252.193 161.185L252.224 161.056L252.182 161.04L252.198 160.937L252.27 160.748L252.335 160.658L252.39 160.668L252.405 160.771L252.381 160.968L252.219 161.43L252.186 161.571L252.223 161.611L252.418 161.321L252.582 160.859L252.706 160.505L252.729 160.312L252.691 159.813L252.699 159.608L252.746 159.466L252.915 159.306L253.206 159.128L253.494 159.032L253.778 159.021L253.977 158.972L254.09 158.887L254.05 158.819L253.859 158.768L253.713 158.657L253.614 158.484L253.581 158.285L253.614 158.062L253.736 157.842L253.946 157.626L254.012 157.468L253.934 157.366L254.024 157.33L254.282 157.359L254.462 157.331L254.564 157.246L254.592 157.257L254.808 157.337L255.193 157.602L255.559 157.757L255.906 157.801L256.159 157.894L256.318 158.037L256.433 158.197L256.503 158.374L256.668 158.474L256.929 158.497L257.134 158.572L257.283 158.7L258.112 159.029L258.459 159.203L258.65 159.373L258.704 159.482L258.687 159.589L258.707 159.704L258.848 159.928L258.902 159.948L258.935 160.055L258.947 160.251L258.989 160.382L259.06 160.448L259.016 160.475L258.76 160.362L258.615 160.397L258.548 160.543L258.537 160.681L258.583 160.811L258.91 161.202L258.994 161.558L259.011 161.989L258.97 162.156L258.935 162.524L258.907 163.093L258.901 163.288L258.794 163.478L258.503 163.75L258.498 163.699L258.429 163.685L258.354 163.727L258.248 163.96L258.158 164.385L258.049 164.615L257.919 164.652L257.84 164.713L257.815 164.799L257.676 164.857L257.424 164.887L257.251 165.016L257.122 165.379L257.128 165.553L257.068 165.768L257.072 165.953L257.139 166.106L257.343 166.26L257.683 166.413L257.886 166.437L258.025 166.373L258.171 166.121L258.313 166.023L258.486 165.981L258.551 165.867L258.836 165.364V165.252L258.731 165.209L258.746 165.178L258.881 165.158L258.997 165.09L259.095 164.974L259.268 164.888L259.689 164.756L259.914 164.606L260.057 164.581L260.265 164.662L260.538 164.846L260.754 165.116L260.913 165.469L261.113 166.382L261.356 167.85L261.521 168.668L261.61 168.842L261.654 168.929L261.441 170.068L261.269 170.537L260.969 170.808L260.67 171.071L260.298 171.511L259.889 171.728L259.679 171.856L259.634 171.939L259.584 171.913L259.472 172.151L259.372 172.481L259.333 172.735L259.368 172.875L259.283 172.964L259.13 173.131L259.101 173.192L259.111 173.29L259.079 173.337L259.005 173.335L258.948 173.382L258.81 173.557L258.571 174.015L258.526 174.11L258.566 174.181L258.839 174.225L259.024 174.309L259.169 174.434L259.692 174.68L259.852 174.833L260.011 174.916L260.169 174.931L260.277 174.883L260.335 174.771L260.409 174.764L260.499 174.861L260.794 174.966L260.803 174.999L259.987 175.182L259.817 175.266L260.021 175.325L260.227 175.311L260.434 175.223L260.672 175.228L260.882 175.27L260.948 175.234L260.975 175.216L261.331 175.455L261.464 175.491L261.603 175.464L261.746 175.374L262.06 175.257L262.545 175.112L263.012 175.053L263.461 175.08L263.745 175.039L264.004 174.888L264.578 174.395L265.236 173.996L266.319 173.502L267.929 172.906L268.178 172.767L268.43 172.631L268.561 172.553L268.707 172.482L269.828 171.857L270.405 171.488L270.694 171.219L270.999 170.996L271.319 170.818L271.572 170.589L271.76 170.31L271.967 170.102L272.194 169.966L272.316 169.822L272.333 169.671L272.29 169.467L272.189 169.211L272.176 169.009L272.249 168.861L272.265 168.761L272.224 168.71L271.748 168.563L271.769 167.854L271.762 167.834L271.787 167.825L272.883 167.511L273.582 167.402L274.433 167.373L275.447 167.529L275.841 167.67L276.09 167.851L276.378 167.899L276.704 167.815L277.156 167.788L277.735 167.815L278.044 167.858L278.085 167.915L278.125 167.898L278.164 167.808L278.319 167.708L278.753 167.559L278.811 167.59L278.9 167.515L279.02 167.332L279.241 167.131L279.563 166.909L279.854 166.795L280.115 166.785L280.289 166.731L280.377 166.631L280.404 166.543L280.369 166.467L280.384 166.382L280.399 166.34L280.386 166.306L280.355 166.234L280.331 165.871L280.28 165.701L280.209 165.574L280.119 165.492L280.13 165.408L280.287 165.302L280.275 165.4L280.316 165.43L280.389 165.385L280.556 165.166L280.575 165.083L280.689 164.999L280.774 164.867L280.681 164.847L280.458 164.887L280.408 164.847L280.523 164.671L280.501 164.571L280.465 164.53L280.392 164.512L280.142 164.667L280.064 164.681L280.054 164.599L279.925 164.418L280.271 164.096L281.492 163.197L281.617 163.061L281.663 162.939L281.63 162.831L281.595 162.804L281.613 162.778L282.791 161.616L283.46 161.078L284.012 160.778L284.432 160.635L284.717 160.655L284.878 160.635H285.015L285.716 160.634L286.97 160.632L288.224 160.631L289.478 160.629L290.73 160.626L291.984 160.624L293.238 160.622L294.491 160.62L294.788 159.8L295.064 159.417L295.443 159.543L295.645 159.533L295.869 159.335L296.05 159.215L296.17 159.233L296.272 159.413L296.356 159.534L296.456 159.498L296.541 159.328L296.538 159.09L296.654 158.925L296.792 158.9L296.92 158.906L296.984 158.825L296.977 158.71L296.932 158.524L296.948 158.299L297.267 157.901L297.657 157.631L297.794 157.496L297.834 157.222L298.058 156.938L298.169 156.774L298.196 156.631L298.138 156.455L298.144 156.119L298.221 155.717L298.313 155.279L298.519 154.884L298.858 154.453L298.946 153.884L299.037 153.283L299.447 152.696L299.912 152.027L300.177 151.646L300.653 150.951L300.993 150.455L301.163 150.228L301.342 149.957L301.633 150.039L301.922 150.119L301.879 150.512L301.927 150.798L302.064 150.962L302.263 151.074L302.413 151.111L302.59 151.109L303.073 150.887L303.64 150.743L303.952 150.609L304.009 150.483L304.151 150.439L304.377 150.477L304.796 150.791L305.284 151.266L305.67 151.64L305.682 152.289L305.689 152.974L305.697 153.693L305.702 154.205L305.712 154.907L305.719 155.463L305.729 156.188L305.734 156.574L305.787 156.686L305.755 156.837L305.741 156.913L305.744 156.974L305.765 157.051L305.762 157.157L305.713 157.253L305.688 157.364L305.682 157.546L305.734 157.657L305.822 157.723H305.896L305.992 157.788L306.115 157.904L306.303 158.005L306.497 158.04L306.632 158.016L306.794 158.081L306.851 158.242L306.818 158.394L306.727 158.464L306.628 158.519L306.61 158.635L306.66 158.755L306.73 158.861L306.808 159.045L306.775 159.206L306.705 159.342L306.673 159.481L306.734 159.601L306.892 159.761L306.991 159.916L307.147 160.001L307.221 159.94L307.281 159.86L307.344 159.8L307.454 159.835L307.582 159.88L307.72 159.934L307.703 160.064L307.788 160.282L307.853 160.701L307.752 160.891L307.774 161.142L308.053 161.215L308.121 161.292L308.133 161.384L307.518 162.027L306.998 161.938L306.715 162.109L306.42 162.158L306.29 162.445L306.128 162.506L305.906 162.489L305.714 162.408L305.568 162.448L305.363 162.964L305.195 162.919L305.129 163.105L305.041 163.187L304.912 163.255L304.8 163.027L304.729 162.809L304.624 162.762L304.485 162.706L304.342 162.708L304.246 162.739L304.127 162.88L303.955 163.001L303.826 162.9L303.724 162.738L303.637 162.999L303.51 163.274L303.531 163.594L303.477 163.784L303.356 163.733L303.237 163.567L302.902 163.434L302.635 163.445L302.69 163.267L302.942 163.012L302.864 162.962L302.74 162.998L302.687 162.962L302.776 162.729L302.784 162.473L302.672 162.562L302.53 162.832L302.186 163.048L302.203 163.409L301.879 164.145L301.864 164.459L301.657 164.708L301.389 164.922L301.031 164.862L300.759 165.048L300.62 165.262L300.5 165.294L300.438 165.022L300.393 164.939L300.292 165.34L300.19 165.365L300.151 165.08L300.103 164.892L299.963 165.054L299.871 165.484L299.774 165.447L299.743 165.288L299.673 165.24L299.65 165.423L299.684 165.679L299.634 165.816L299.537 165.743L299.441 165.619L299.281 165.713L299.133 165.75V165.625L299.161 165.47L298.869 165.555L298.518 165.839L298.246 166.232L298.34 166.298L298.446 166.422L297.973 167.026L297.488 167.57L297.122 168.453L296.975 168.556L296.848 168.717L296.714 169.248L296.559 169.72L296.646 169.93L296.703 170.146L296.841 170.358L296.958 170.378L297.084 170.339L297.177 170.348L297.237 170.438L297.211 170.546L297.065 170.573L296.792 170.762L296.553 170.835L296.434 171.063L296.254 171.326L295.906 171.736L296.055 171.862L296.593 172.004L296.833 172.15L297.196 172.912L297.113 172.988L297.08 173.128L297.403 173.323L297.506 173.869L297.771 174.054L298.166 174.168L298.65 174.004L299.053 173.777L299.039 173.592L298.786 173.158L298.724 172.955L298.537 172.823L298.466 172.935L298.344 172.79L298.331 172.708L298.443 172.669L298.575 172.685L298.729 172.761L299.124 173.234L299.233 173.853L299.257 174.244L299.212 174.379L299.097 174.351L298.878 174.378L297.838 174.58L297.607 174.759L297.078 174.952L297.045 174.855L297.083 174.656L297.05 174.245L296.946 174.226L296.122 174.895L295.805 174.937L295.537 175.132L295.477 175.024L295.43 174.524L295.597 174.103L295.508 174.109L295.229 174.361L295.11 174.206L295.05 174.035L294.964 173.938L294.871 173.902L294.951 174.274L294.761 174.554L294.71 175.274L294.471 175.572L293.729 175.764L293.244 175.724L292.811 175.784L292.234 175.921L291.915 175.84L291.589 175.985L290.481 176.024L290.247 175.947L289.949 176.221L289.471 176.383L288.264 176.996L287.997 177.219L287.673 177.566L287.455 177.753L287.276 177.814L287.165 177.969L287.045 178.07L287.161 177.725L287.287 177.433L287.392 176.865L287.361 176.405L287.231 176.216L287.097 176.09L287.253 176.544L287.279 177.1L287.224 177.425L286.928 178.051L286.803 178.196L286.656 178.325L286.544 178.379L286.441 178.479L286.322 178.637L286.209 178.951L286.278 179.236L286.855 179.34L287.011 179.252L287.089 179.456L287.134 179.739L287.09 180.047L286.994 180.358L286.921 180.744L286.858 181.331L286.765 181.859L286.752 181.699L286.811 181.057L286.717 181.124L286.651 181.272L286.475 182.099L286.233 182.538L286.009 182.842L285.778 182.791L285.83 183.033L285.767 183.158L285.713 183.42L285.576 183.593L285.447 183.577L285.262 183.696L285.189 183.788L285.184 183.962L285.059 184.116L284.612 184.913L284.223 185.147L284.131 185.112L284.233 184.736L284.302 184.356L284.066 184.191L283.841 184.103L283.582 184.115L283.296 183.819L282.927 183.604L282.413 183.02L282.428 182.858L282.415 182.585L282.572 182.155L282.721 181.853L282.928 181.696L283.53 181.538L283.68 181.298L283.769 181.096L283.472 181.443L283.026 181.561L282.786 181.691L282.594 181.889L282.48 182.137L282.222 182.435L282.24 182.635L282.283 182.776L282.263 183.073L282.426 183.36L282.748 183.832L282.81 184.562L283.056 185.049L283.434 185.616L283.724 185.777L283.739 185.987L283.605 186.335L283.428 186.494L283.657 186.462L283.771 186.541L283.883 186.831L283.874 187.126L283.837 187.291L283.767 187.358L283.769 187.188L283.72 187.129L283.638 187.202L283.585 187.286L283.563 187.616L283.507 187.78L283.31 187.828L283.109 188.26L282.923 188.504L282.192 190.153L282.22 190.428L282.086 190.516L281.884 190.588L281.679 190.752L281.543 190.933L281.416 191.418L281.173 191.963L281.022 191.737L280.983 191.542L281.051 191.033L281.313 190.199L281.602 189.68L281.822 189.433L282.002 188.928L281.773 188.853L281.425 188.862L281.49 188.629L281.592 188.424L281.411 188.219L281.303 188.193L281.193 188.109L281.323 187.939L281.386 187.758L281.347 187.538L281.402 187.372L281.312 187.397L281.166 187.573L281.076 187.642L281.021 187.487L280.958 187.522L280.917 187.629L280.823 187.687L280.627 187.541L280.34 187.375L280.181 187.087L280.09 186.864L280.183 186.46L280.381 186.389L280.639 186.454H280.976L280.928 186.365L280.807 186.38L280.452 186.051L280.337 185.853L280.141 185.798L280.052 185.989L279.952 186.04L280.074 185.622L280.235 185.605L280.472 185.489L280.404 185.246L280.253 185.14L279.983 185.273L279.986 185.103L280.037 184.885H280.24L280.42 184.955L280.572 184.602L280.579 184.444L280.326 184.674L280.269 184.179L280.517 183.702L280.755 183.492L281.051 183.499L281.352 183.465L281.163 183.377L280.968 183.33L281.114 183.14L281.239 183.106L281.361 182.941L281.068 182.965L281.102 182.652L280.96 182.716L280.789 182.745L280.722 182.878L280.735 183.099L280.686 183.244L280.553 183.36L280.328 183.45L280.307 183.294L280.233 183.223L280.205 183.559L280.146 183.673L279.982 183.358L279.932 183.421L279.939 183.511L279.897 183.665L279.756 183.746L279.765 183.943L279.71 184.052L279.26 183.88L279.25 183.938L279.504 184.308L279.69 184.435L279.712 184.637L279.552 184.804L279.332 184.66L279.295 184.671L279.415 184.918L279.49 185.134L279.413 185.314L279.425 185.537L279.407 185.739L279.36 185.915L279.468 186.723L279.596 186.944L279.723 187.153L279.791 187.349L279.657 187.377L279.442 187.216L279.253 187.093L279.029 186.699L278.992 186.541L278.937 186.416L278.963 186.702L279.044 187.021L279.746 187.734L279.875 188.006L279.974 188.221L279.95 188.425L279.766 188.28L279.608 188.095L279.188 187.886L278.659 187.754L278.361 187.267L278.362 187.47L278.295 187.642L278.113 187.432L277.998 187.253L277.959 187.056L277.732 187.069L277.493 187.241L277.263 187.2L277.236 186.866L277.298 186.689L277.557 186.27L277.802 186.056L277.909 185.779L277.872 185.349L277.827 185.786L277.688 186.002L277.468 186.167L277.179 186.462L277.109 186.733L277.019 187.241L277.14 187.413L277.265 187.458L277.632 187.343L277.822 187.394L278.245 188.004L279.033 188.245L279.321 188.395L279.555 188.713L279.907 188.895L280.18 189.16L280.188 189.333L280.093 189.537L280.056 189.813L279.94 189.987L279.662 190.007L279.493 189.962L278.588 188.991L278.48 188.902L278.144 188.392L277.75 188.118L277.628 188.123L278.188 188.629L278.417 188.982L278.819 189.476L279.107 189.685L279.318 190.011L279.516 190.164L280.054 190.381L279.867 190.537L280.165 190.671L280.208 190.914L280.181 191.192L279.767 191.082L279.753 191.287L279.791 191.407L279.608 191.507L279.354 191.372L278.694 190.631L278.699 190.73L278.753 190.844L279.136 191.321L279.478 191.607L279.768 191.735L279.991 191.975L280.071 192.119L280.123 192.338L279.958 192.486L279.769 192.568L279.586 192.42L279.45 192.264L279.163 191.998L279.076 191.701L278.857 191.716L277.942 191.339L277.207 191.295L277.279 191.372L277.371 191.422L277.956 191.514L278.187 191.688L278.668 191.843L278.95 191.885L279.064 192.357L279.454 192.682L279.504 192.923L279.77 192.95L280.238 192.714L280.54 192.797L280.976 192.865L281.076 193.055L281.15 193.415L281.304 193.821L281.704 195.416L282.304 196.714L282.378 196.937L282.238 196.741L281.793 195.882L281.547 195.26L281.295 194.158L281.222 193.911L281.135 193.813L281.078 193.893L281.053 194.034L281.095 194.142L280.995 194.505L281.038 194.671L281.199 194.843L281.375 195.271L281.516 195.848L281.326 195.614L281.124 195.49L280.809 195.396L280.529 195.23L280.55 195.468L280.523 195.726L280.307 195.647L280.16 195.561L280.291 195.835L280.009 195.753L279.82 195.771L279.697 196.014L279.533 196.161L279.29 196.209L278.93 195.986L278.814 195.716L278.766 195.414L278.746 195.771L278.811 196.141L278.788 196.422L279.135 196.474L279.459 196.429L279.897 196.44L280.183 196.388L280.354 196.299L280.766 196.376L280.795 196.715L280.748 197.052L280.725 197.41L280.838 197.408L280.973 197.293L281.04 196.65L281.417 196.411L281.544 196.429L281.664 196.635L281.705 196.844L281.748 197.132L281.66 197.57L281.081 198.081L280.667 198.552L280.454 198.648L280.149 198.593L279.803 198.475L279.632 198.451L279.503 198.491L279.425 198.345L279.374 198.08L279.24 197.992L279.138 198.001L279.069 198.283L278.746 198.363L278.307 198.246L277.847 198.01L278.044 198.263L279.185 198.737L279.314 198.826L279.434 198.955L279.275 199.157L279.15 199.386L279.132 199.565L279.088 199.678L278.632 199.982L278.387 199.928L277.756 199.38L278.044 199.854L278.274 200.055L278.738 200.162L279.606 199.985L279.892 200.178L279.658 200.521L279.426 200.76L279.121 200.787L278.852 200.852L278.773 201.017L278.582 201.027L278.282 201.037L277.82 201.052L277.565 201.013L277.21 201.349L277.076 201.396L276.889 201.332L276.811 201.062L276.727 200.929L276.725 201.434L276.758 201.571L276.826 201.673L276.41 201.946L276.012 202.288L275.869 202.38L275.707 202.551L275.376 203.043L275.294 203.402L275.174 203.801L275.159 203.622L275.179 203.319L275.097 202.973L275.045 203.608L274.916 203.902L273.733 203.882L273.216 204.042L272.421 204.58L272.184 204.816L271.527 205.725L271.36 206.306L271.225 206.062L271.259 205.879L271.261 205.729L271.097 206.035L271.253 206.503L271.113 206.681L270.679 207.014L270.442 207.068L270.176 207.162L270.092 207.49L269.73 207.791L269.52 207.924L269.133 207.844L269.252 208.134L269.111 208.354L268.866 208.522L268.562 208.632L268.388 208.618L268.24 208.676L268.123 208.815L267.839 208.946L267.543 208.873L267.209 208.829L267.022 208.908L267.335 209.038L267.504 209.224L267.469 209.477L267.386 209.573L267.187 209.705L267.1 209.686L267.048 209.568L266.983 209.321L266.891 209.374L266.875 209.488L266.795 209.53L266.514 209.136L266.528 209.437L266.626 209.668L266.72 209.785L266.816 209.853L266.839 209.961L266.647 210.222L266.548 210.28L266.372 210.321L266.274 210.481L266.303 210.62L266.148 210.919L265.78 211.106L265.668 211.099L265.577 211.153L265.631 211.287L265.722 211.383L265.719 211.473L265.622 211.596L265.43 211.63L265.322 211.768L265.357 211.901L265.42 211.974L265.406 212.099L265.188 212.226L265.137 212.35L265.245 212.387L265.329 212.35L265.39 212.377L265.259 212.585L265.142 212.712L265.031 212.94L264.772 213.003L264.781 213.077L264.927 213.143L265.05 213.318L264.82 213.641L264.676 213.614L264.588 213.543L264.532 213.797L264.554 213.933L264.499 214.211L264.411 214.543L264.351 214.68L264.364 214.934L264.401 215.18L264.542 215.496L264.758 216.785L264.905 217.231L265.169 218.434L265.606 219.595L266.222 220.994L267.233 222.681L267.355 222.921L267.223 223.124L267.183 223.334L267.171 223.651L267.208 223.96L267.327 224.337L267.556 224.912L267.428 224.798L267.095 223.972L267.056 223.486L267.103 222.796L267.025 222.813L266.962 223.038L266.926 223.301L266.841 223.403L266.727 223L266.735 222.819L266.858 222.606L266.822 222.53L266.624 222.421L266.582 222.25L266.609 222.08L266.496 221.99L266.407 221.994L266.467 222.412L266.56 222.667L266.676 223.28L266.864 223.651L266.973 223.961L268.251 227.256L268.554 227.674L268.665 227.974L268.781 228.599L268.807 229.401L268.599 230.862L268.551 231.855L268.521 231.825L268.501 231.72L268.453 231.706L268.272 232.16L268.027 232.569L267.945 233.205L267.827 233.522L267.472 233.858L267.252 233.85L266.713 234.102L266.334 234.036L265.883 234.178L265.587 234.162L265.415 233.863L265.441 233.728L265.508 233.594L265.624 233.563L266.022 233.878L266.098 233.744L265.977 233.588L265.747 233.5L265.577 233.403L265.234 232.686L264.879 232.193L264.819 231.863L264.206 231.661L263.763 231.355L263.473 230.812L263.307 229.847L263.111 229.738L263.029 229.663L263.22 229.304L263.421 229.002L263.263 229.077L263.146 229.189L262.996 229.455L262.887 229.496L262.787 229.455L262.672 228.944L262.705 228.316L262.866 228.081L262.618 228.074L262.362 228.164L262.399 228.373L262.363 228.488L262.176 228.458L262.033 228.385L261.841 228.166L261.578 227.749L261.038 226.598L260.933 226.436L260.754 226.266L260.839 226.213L260.992 226.182L261.339 225.662L261.61 225.348L261.701 225.13L261.685 225.037L261.564 224.901L261.406 225.019L261.339 224.986L261.161 224.712L260.991 224.635L260.873 224.694L260.998 224.917L261.109 225.001L261.065 225.326L261.02 225.432L260.915 225.525L260.751 225.475L260.668 225.555L260.57 225.47L260.474 225.327L260.365 225.092L260.652 223.766L260.917 222.918L260.947 221.947L260.967 221.803L260.945 221.545L260.59 220.983L259.019 219.608L257.803 217.972L256.749 217.357L255.949 217.492L255.811 217.616L255.751 217.777L255.801 217.96L255.729 218.036L255.514 218.027L255.225 218.07L254.471 218.5L254.205 218.484L253.963 218.596L253.782 218.679L253.309 218.725L252.909 218.82L252.736 218.769L252.623 218.518V218.26L252.715 218.458L252.856 218.614L252.922 218.552L252.945 218.414L252.805 218.145L252.351 217.799L251.834 217.294L251.992 217.311L252.032 217.202L251.872 217.06L251.94 216.895L252.052 216.723L251.834 216.748L251.638 216.87L251.632 217.019L251.593 217.138L251.488 217.121L251.292 216.974L250.33 216.564L249.489 216.332L250.135 216.228L250.485 216.308L250.443 216.184L250.358 216.104L250.083 216.004L249.73 216.042L249.508 215.995L249.282 216.095L249.033 216.242L248.81 216.317L247.943 216.423L247.24 216.538L247.353 216.417L247.473 216.338L247.888 216.219L247.951 215.972L247.853 215.734L247.743 215.791L247.629 215.976L247.488 215.842L247.332 215.843L247.289 216.139L247.089 216.337L246.998 216.537L246.411 216.694L246.336 216.642L246.508 216.452L246.494 216.347L246.299 216.437L245.97 216.796L244.814 216.913L244.877 216.831L245.122 216.814L245.464 216.701L245.395 216.51L245.263 216.3L245.14 216.276L245.06 216.153L245.064 215.764L244.986 215.536L244.798 215.302L244.735 215.347L244.596 215.749L244.481 216.274L244.424 216.443L244.082 216.455L243.778 216.419L242.748 216.482L242.363 216.304L242.203 216.27L242.106 216.274L241.658 216.437L241.147 216.562L241.027 216.522L240.855 216.516L240.485 216.94L240.048 217.139L238.946 216.782L238.673 216.495L238.429 216.434L238.129 216.398L237.808 216.752L237.564 217.227L237.949 217.488L238.28 217.612L238.825 217.508L239.127 217.278L239.373 217.285L239.491 217.239L239.598 217.119L239.808 217.213L239.816 217.309L239.667 217.443L239.478 217.556L239.364 217.689L239.579 217.956L239.917 218.046L240.043 218.007L240.122 217.707L240.33 217.513L240.612 217.554L240.573 217.677L240.612 217.792L240.742 217.988L240.727 218.269L240.752 218.337L240.448 218.46L240.222 218.502L240.04 218.664L240.136 218.758L239.951 218.84L239.827 218.807L239.763 218.837L239.744 218.937L239.648 219.028L239.787 219.306L240.071 219.487L240.272 219.714L241.079 220.013L241.275 220.004L241.467 220.305L241.623 220.408L241.772 220.46L241.755 220.666L241.488 220.818L241.416 220.998L241.35 221.099L241.23 220.971L241.107 220.878L240.823 221.16L240.685 221.22L240.753 220.915L240.646 220.796L240.484 220.49L240.246 220.301L240.079 220.238L239.949 220.119L239.791 220.071L239.657 220.084L239.429 220.014L239.414 219.851L239.351 219.728L239.173 219.584L238.324 219.312L238.318 219.424L238.377 219.509L238.5 219.566L238.646 219.676L238.645 220.001L238.581 220.138L238.555 220.334L238.498 220.533L238.394 220.69L238.162 220.796L238.06 220.707L237.894 220.279L237.66 220.145L237.289 220.129L237.037 220.225L236.762 220.641L236.54 220.708L235.781 220.494L234.916 220.165L234.938 220.056L235.074 220.02L235.336 220.065L235.322 219.953L235.055 219.585L235.007 219.42L235.041 219.218L234.954 219.223L234.794 219.392L234.242 219.248L234.09 219.076L233.766 218.59L233.309 218.574L233.101 218.28L232.727 218.404L232.538 218.54L232.371 218.751L232.436 218.861L232.602 219.035L232.527 219.12L231.994 219.243L230.757 219.105L230.395 218.975L229.91 218.7L229.238 218.477L228.914 218.44L228.597 218.484L227.674 218.507L227.46 218.566L227.278 218.661L227.16 218.556L227.105 218.368L227.212 218.338L227.331 218.228L227.439 218.009L227.452 217.875L227.377 217.79L227.234 217.781L226.918 218.351L227.099 218.67L227.087 218.785L226.457 218.85L225.026 219.491L224.467 219.837L224.496 219.721L225.171 219.273L224.932 219.204L224.549 219.316L224.412 219.273L224.574 218.903L224.521 218.575L224.248 218.567L224.075 218.828L223.954 218.817L223.797 218.705L223.674 218.741L223.764 219.332L223.936 219.575L224.08 219.885L223.688 220.266L223.324 220.581L223.285 220.884L222.918 221.279L222.575 221.504L221.767 222.03L221.536 222.141L221.171 222.385L220.668 222.568L220.185 222.857L220.023 222.901L220.331 222.656L220.696 222.413L220.383 222.446L219.9 222.335L219.605 222.328L219.604 222.417L219.379 222.543L219.146 222.359L219.045 222.236L218.997 222.129L218.898 222.103L218.804 222.152L219.152 222.904L219.3 222.936L219.463 223.01L219.259 223.185L219.039 223.318L218.693 223.406L218.401 223.132L218.338 223.476L218.3 223.818L218.203 223.906L218.046 224.032L217.961 223.937L217.92 223.804L217.819 223.922L217.672 224.011L217.43 224.03L217.248 224.077L217.253 224.219L217.295 224.361L217.617 224.249L217.5 224.615L217.203 224.976L216.962 225.061L216.593 225.009L216.501 225.045L216.42 225.12L216.85 225.684L216.573 226.533L216.396 226.841L216.274 226.881L216.138 226.89L215.662 226.618L215.402 226.406L215.632 226.981L216.257 227.148L216.289 227.366L216.286 227.551L216.162 227.769L216.047 228.057L216.132 228.258L216.231 228.755L216.316 228.983L216.408 229.673L216.507 229.971L217.074 231.068L217.266 231.077L217.296 231.195L217.277 231.423L216.869 231.489L216.698 231.59L216.664 231.678L216.64 231.725L216.587 231.721L216.393 231.658L215.95 231.346L215.304 231.153L214.456 231.078L213.877 230.922L213.565 230.685L213.241 230.543L212.903 230.499L212.622 230.371L212.4 230.157L212.074 230.021L211.646 229.961L211.367 229.801L211.174 229.408L211.173 229.402L210.999 228.745L210.78 228.333L210.355 227.822L210.316 227.755L210.313 227.671L210.365 227.373L210.32 227.159L210.186 226.984L210.155 226.799L210.228 226.605L210.232 226.371L210.169 226.097L209.898 225.801L209.42 225.483L209.012 225.017L208.676 224.404L208.343 223.979L208.013 223.742L207.789 223.452L207.668 223.11L207.632 222.911L207.682 222.856L207.48 222.475L207.026 221.768L206.765 221.249L206.697 220.921L206.409 220.53L205.898 220.076L205.621 219.781L205.553 219.576H205.552L204.755 218.977L204.524 218.602L204.343 218.484L204.136 218.497L204.03 218.46L204.024 218.376L203.957 218.371L203.827 218.449L203.403 218.464L202.685 218.419L202.166 218.317L201.847 218.159L201.624 218.18L201.495 218.382L201.223 218.512L200.805 218.57L200.447 218.944L200.146 219.633L200.014 220.075L200.05 220.272L199.971 220.415L199.776 220.504L199.577 220.704L199.375 221.014L199.139 221.165L198.87 221.154L198.372 220.915L197.646 220.447L197.077 220.158L196.665 220.047L196.301 219.83L195.985 219.507L195.694 219.291L195.428 219.183L195.117 218.824L194.76 218.215L194.582 217.743V217.245L194.116 216.158L193.869 215.686L193.686 215.468L193.327 215.208L192.792 214.905L192.075 214.3L191.175 213.388L190.538 212.839L190.165 212.652L189.841 212.322L189.566 211.85L189.298 211.548L189.27 211.534L189.246 211.528L188.584 211.524L187.921 211.519L187.259 211.515L186.597 211.512L185.934 211.508L185.272 211.504L184.61 211.5L183.947 211.496L183.945 211.892L183.934 212.291L183.933 212.686L183.931 213.081L182.866 213.084L181.801 213.086L180.737 213.088L179.672 213.09L178.607 213.092L177.542 213.094L176.477 213.096L175.412 213.099L173.983 212.579L172.555 212.058L171.126 211.537L169.697 211.014L168.268 210.491L166.84 209.967L165.411 209.442L163.982 208.916L164.126 208.716L164.317 208.179L163.972 208.217L163.11 208.294L162.248 208.37L161.386 208.446L160.524 208.522L159.662 208.599L158.8 208.675L157.938 208.751L157.076 208.827L157.07 208.805L157.048 208.415L156.909 208.278L156.73 208.362L156.648 207.856L156.693 207.616L156.672 207.382L156.503 206.806L156.055 206.106L155.088 205.233L154.596 204.941L154.209 204.572L153.963 204.469L153.654 204.441L153.565 204.607L153.215 204.494L153.268 204.08L152.926 203.505L152.647 203.441L151.944 203.479L151.005 203.163L150.728 202.974L150.632 202.635L150.192 202.341L149.613 202.053L149.289 202.12L148.868 202.075L148.265 201.867L147.914 201.841L147.231 201.902L146.975 201.858L146.738 201.595L146.482 201.463L146.536 201.139L146.504 200.846L146.542 200.617L146.428 200.116L146.517 199.65L146.439 199.482L146.294 199.352L145.841 199.161L145.759 198.921L145.833 198.588L145.715 198.368L145.343 198.163L144.997 197.698L144.557 197.442L144.376 197.014L144.106 196.749L144.011 196.513L143.41 195.673L142.768 195.015L142.669 194.635L142.645 194.114L142.896 193.797L143.031 193.516L143.017 193.26L142.979 193.071L142.757 192.742L141.903 192.547L141.208 191.732L141.168 191.107L140.895 190.468L140.892 190.05L140.85 189.598L141.057 189.499L141.242 189.536L141.223 189.715L141.286 190.038L141.504 190.281L141.711 190.387L141.9 190.622L142.041 190.693L142.187 190.71L142.109 190.559L142.025 190.462L141.923 190.149L141.73 189.748L141.508 189.527L141.395 189.124L141.299 189.03L141.238 188.88L141.453 188.702L141.746 188.575L142.139 188.541L143.253 188.601L143.491 188.497L143.687 188.53L143.831 188.517L143.528 188.41L143.359 188.445L143.158 188.423L142.76 188.444L142.599 188.399L142.421 188.272L142.305 188.26L141.937 188.481L141.773 188.454L141.384 188.212L141.215 188.178L140.942 188.315L140.909 188.907L140.994 189.346L140.831 189.391L140.641 189.211L140.35 189.103L140.109 188.939L139.77 188.633L139.592 188.522L139.39 188.776L139.382 188.659L139.482 188.363L139.454 187.866L139.758 188.263L139.664 187.984L139.427 187.676L139.248 187.568L139.023 187.017L138.515 186.685L138.108 186.148L137.275 185.256L137.22 184.47L136.917 183.473L137.044 182.904L137.027 182.5L136.878 181.889L136.722 181.556L136.047 180.64L135.398 180.022L135.3 179.553L135.255 179.079L135.397 178.657L135.52 178.212L135.609 178.094L135.645 178.143L135.62 178.238L135.712 178.267L135.748 178.07L135.802 177.969L135.706 177.956L135.715 177.894L135.773 177.77L135.975 177.184L135.954 176.443L136.17 175.532L136.159 175.23L136.021 174.579L135.884 174.189L135.639 173.912L135.748 173.506L135.739 173.118L135.306 172.559L135.141 171.824L135.11 171.512L135.153 170.688L135.04 170.335L134.751 169.752L134.875 169.244L135.008 168.934L135.333 167.578L135.412 167.468L135.547 167.471L135.784 167.24L135.675 167.186L135.509 167.297L135.656 166.758L135.822 166.295L135.929 166.129L135.984 164.613L136.078 163.449L136.234 163.063L136.179 162.665L136.243 162.125L136.197 161.578L136.531 158.927L136.487 158.605L136.589 158.172L136.494 157.029L136.537 155.743L136.452 155.579L136.409 155.401L136.488 155.374L136.643 155.562L137.36 155.56L137.817 155.386L137.984 155.443L138.177 155.679L138.421 155.726L138.724 155.684L138.632 155.625L138.489 155.609L138.169 155.391L137.988 155.173L137.429 155.188L137.315 155.049L136.69 155.188L136.497 155.045L136.157 155.138L136.24 154.732L136.225 154.219L136.244 153.719L136.327 154.084L136.539 154.471L136.641 154.032L136.711 153.478L136.504 153.266L136.161 153.108L136.037 152.59L136.85 152.148L136.419 152.055L136.249 151.856L136.04 151.832L136.024 151.985L135.956 152.186L135.883 151.918L135.861 151.604L135.776 151.066L135.443 150.198L135.241 149.067L134.988 148.507L134.502 147.97L134.376 147.657L134.26 146.859L134.325 146.254L134.235 145.827L134.468 145.851L135.081 146.187L135.844 146.45L136.075 146.641L136.445 146.783L138.498 147.003L138.632 146.982L138.897 146.845L139.01 146.862L139.312 147.175L139.463 147.212L139.659 147.196L139.804 147.137L140.052 146.924L140.086 147.003L140.081 147.202L140.169 147.484L140.351 147.849L140.419 148.075L140.052 148.713L139.982 148.727L139.972 148.511L139.923 148.468L139.232 149.544L138.99 150.052L138.966 150.28L138.974 150.415L139.071 150.448L139.292 150.395L139.62 150.185L139.636 150.139L139.331 150.214L139.185 150.22L139.205 149.98L139.24 149.866L139.439 149.51L139.649 149.296L139.946 149.068L140.118 148.881L140.236 148.606L140.566 148.277L140.628 148.186L140.614 147.916L140.634 147.864L140.794 147.9L140.861 148.366L140.821 148.574L140.535 148.826L140.5 148.915L140.549 149.259L140.505 149.293L140.397 149.252L140.364 149.275L140.633 149.648L140.719 149.938L140.731 150.197L140.658 150.692L140.579 150.774L140.445 150.744L140.267 150.59L140.227 150.639L140.086 151.023L140.039 150.99L139.951 150.534L139.903 150.499L139.629 150.708L139.519 150.907L139.424 151.225L139.304 151.374L139.645 151.406L139.953 151.342L140.2 151.493L140.284 151.498L140.51 151.35L140.578 151.25L140.765 150.77L140.858 150.684L140.997 150.681L141.131 150.609L141.331 150.345L141.339 150.24L141.266 149.648L141.288 149.312L141.25 149.206L141.161 149.095L141.172 148.988L141.242 148.811L141.247 148.651L141.187 148.508L141.214 148.346L141.403 147.996L141.438 147.841L141.668 147.493L141.61 147.352L141.44 147.18L141.333 147.029L141.226 146.793L141.144 146.713L141.117 146.75L141.232 147.136L141.207 147.162L140.909 146.954L140.839 146.822L140.803 146.642L140.828 146.508L140.989 146.375L141.182 146.327L141.165 146.215L140.925 145.852L140.765 145.687L140.642 145.606L140.475 145.585L140.401 145.526L140.382 145.441L140.417 145.33L140.506 145.293L140.763 145.338L140.901 145.259L140.888 145.114L140.847 145.033L140.853 144.514L140.755 144.091L140.705 144.019L140.65 144.011L140.592 144.068L140.431 144.083L140.331 143.945L140.221 143.676L140.021 143.037H140.33H141.615H142.899H144.184H145.469H146.753H148.038H149.323H150.608H151.891H153.176H154.461H155.745H157.03H158.315H159.6H160.884H162.169H163.454H164.738H166.023H167.308H168.592H169.876H171.161H172.446H173.73H175.015H176.3H177.585H178.869H180.154H181.439H182.723H184.007H185.292H186.577H187.861H189.146H190.431H191.715H193H194.285H195.569H196.854H198.139H199.424H200.707H201.992H203.277H204.561H205.846H207.131H208.416H209.698H210.983H212.268H213.551H214.836H216.121H217.406H218.69H219.975H221.26H222.544L223.254 143.043L223.266 142.074L223.275 141.307L223.925 141.401L224.12 141.54L224.182 141.607L224.164 141.818L224.217 142.459L224.335 142.992L224.608 143.63L224.609 143.631L224.632 143.88L224.721 144.036L224.885 144.181L225.508 144.356L226.589 144.561L227.202 144.796L227.346 145.061L227.635 145.167L228.068 145.116L228.371 145.005L228.629 144.758ZM140.044 144.503L140.083 144.602L139.962 144.698L139.876 144.713L139.739 144.559L139.679 144.539L139.727 144.778L139.71 144.859L139.43 144.713L139.378 144.597L139.456 144.475L139.634 144.348L139.695 144.333L140.044 144.503ZM139.348 145.283L139.427 145.433L139.103 145.337L138.967 145.251L138.926 145.167L138.878 144.894L138.9 144.805L139.045 144.773L139.316 145.113L139.348 145.283ZM139.927 145.598L139.879 145.643L139.718 145.584L139.624 145.483L139.592 145.357L139.652 145.116L139.732 145.054L139.783 145.068L139.804 145.28L139.947 145.505L139.927 145.598ZM140.675 146.839L140.822 147.428L140.885 147.182L141.295 147.607V147.817L141.246 147.887L141.16 147.911L141.082 147.85L141.01 147.703L140.917 147.626L140.721 147.576L140.619 147.409L140.584 147.295L140.574 146.964L140.525 146.861L140.42 146.839L140.321 146.76L140.166 146.529L140.145 146.466L140.218 146.277L140.385 145.961L140.506 145.81L140.581 145.827L140.675 145.922L140.786 146.096L140.765 146.218L140.314 146.458L140.299 146.514L140.518 146.581L140.599 146.641L140.675 146.839ZM241.953 147.875L241.938 147.949L242.048 147.971L242.027 148.009L241.908 148.077L241.571 148.214L241.346 148.258L241.23 148.209L241.218 148.117L241.309 147.983V147.917H241.216L241.238 147.863L241.377 147.757L242.555 147.079L243.059 146.832L243.327 146.754L243.37 146.793L243.079 147.048L243.033 147.152L243.044 147.222L242.948 147.356L242.086 147.831L241.953 147.875ZM140.902 149.355L140.886 149.441L140.72 149.339L140.665 149.244L140.672 149.033L140.714 148.896L140.745 148.868L140.842 148.928L140.87 148.963L140.902 149.355ZM141.213 150.242L141.199 150.343L141.084 150.421L141.024 150.401L141.019 150.281L140.988 150.263L140.864 150.406L140.873 150.124L140.935 149.826L140.988 149.821L141.068 150.016L141.213 150.242ZM244.162 151.06L244.107 151.202L244.117 151.288L243.751 151.666L243.618 151.905L243.508 151.942L243.418 151.78V151.649L243.509 151.55L243.598 151.41L243.608 151.215L243.574 151.145L243.462 151.319L243.525 151.357L243.543 151.387L243.521 151.45L243.101 151.357L242.975 151.221L242.997 151.031L243.137 150.787L243.643 150.271L243.866 150.127L244.499 149.899L244.848 149.847H245.199L245.454 149.922L245.612 150.071L245.462 150.17L244.769 150.255L244.75 150.281L244.883 150.363L244.907 150.421L244.785 150.572L244.162 151.06ZM139.83 151.085L139.801 151.172L139.758 151.168L139.664 150.991L139.652 150.866L139.732 150.776L139.841 151.035L139.83 151.085ZM237.52 151.874L237.421 151.943L237.383 151.911L237.407 151.776L237.456 151.697L237.533 151.675L237.57 151.708L237.569 151.796L237.52 151.874ZM236.673 152.308L236.628 152.339L236.513 152.265L236.497 152.204L236.528 152.143L236.582 152.157L236.657 152.246L236.673 152.308ZM237.159 152.344L237.058 152.368L236.842 152.33L236.846 152.265L237.07 152.176L237.17 152.151L237.193 152.189L237.159 152.344ZM236.665 152.94L236.492 153.001L236.421 152.99L236.449 152.907L236.539 152.808L236.94 152.561L237.01 152.566L237.031 152.625L236.837 152.746L236.764 152.811L236.755 152.878L236.665 152.94ZM256.481 154.78V154.874L256.389 154.852L256.312 154.789L256.25 154.684L256.172 154.421L256.054 154.234L256.231 154.022L256.338 153.998L256.451 154.045L256.467 154.168L256.384 154.368L256.388 154.572L256.481 154.78ZM256.518 155.286L256.475 155.31L256.324 155.14L256.291 155.036L256.314 154.949L256.372 154.945L256.466 155.024L256.52 155.116L256.532 155.222L256.518 155.286ZM258.377 156.295L258.406 156.392L258.333 156.533L258.122 156.605L257.692 156.598L257.414 156.543L257.287 156.442L257.259 156.389L257.27 156.277L257.333 156.269L257.424 156.33L257.56 156.305L257.742 156.191L257.837 156.105L257.846 156.048L257.788 155.939L257.834 155.892L258.062 155.935L258.146 156.006L258.3 156.251L258.377 156.295ZM255.203 157.126L255.588 157.186L255.626 157.153L255.735 157.266L255.753 157.363L255.706 157.444L255.639 157.489L255.552 157.496L255.412 157.415L255.185 157.198L255.203 157.126ZM252.207 158.064L252.104 158.086L252.025 158.035L252.038 157.833L252.144 157.481L252.247 157.32L252.386 157.386L252.358 157.429L252.386 157.804L252.336 157.969L252.207 158.064ZM248.26 159.135L248.17 159.178L248.004 159.163L247.944 159.067L248.031 158.821L248.067 158.866L248.21 158.869L248.26 158.893L248.276 158.954L248.26 159.135ZM247.868 159.61L247.812 159.665L247.719 159.628L247.682 159.709L247.704 159.905L247.673 159.995L247.59 159.98L247.586 160.017L247.659 160.104L247.666 160.199L247.609 160.303L247.553 160.352L247.501 160.344L247.418 160.462L247.307 160.706L247.268 160.846L247.303 160.885L247.278 160.967L247 161.336L246.892 161.371L246.775 161.32L246.693 161.213L246.644 161.048L246.63 160.922L246.65 160.831L246.894 160.504L247.003 160.29L247.065 160.05L247.178 159.896L247.343 159.83L247.477 159.681L247.579 159.448L247.697 159.347L247.83 159.377L247.888 159.465L247.868 159.61ZM250.927 160.201L250.892 160.261L250.808 160.256L250.742 160.198L250.676 160.01L250.698 159.969L250.86 159.996L250.917 160.076L250.927 160.201ZM304.52 163.454L304.344 163.536L304.152 163.5L304.156 163.721L304.135 163.801L303.922 163.687L303.844 163.614L303.85 163.321L304.038 163.043L304.182 162.932L304.367 163.008L304.508 163.32L304.52 163.454ZM280.647 163.685L280.553 163.719L280.53 163.67L280.545 163.624L280.624 163.566H280.756L280.741 163.612L280.647 163.685ZM303.206 164.026L303.092 164.109L302.97 164.082L302.966 163.876L303.003 163.806L303.045 163.775L303.109 163.833L303.206 164.026ZM280.193 164.886L280.148 164.899L280.152 164.81L280.199 164.752L280.287 164.726L280.285 164.771L280.193 164.886ZM272.156 168.892L272.064 169.033L271.975 169.019L271.909 168.974L271.887 168.885L271.903 168.773L271.982 168.724L272.198 168.767L272.206 168.812L272.156 168.892ZM295.319 175.099L295.17 175.208L295.004 175.189L295.089 175.041L295.121 174.823L295.204 174.584L295.251 174.511L295.348 174.446L295.319 175.099ZM294.946 175.126L294.862 175.2L294.831 175.007L294.89 174.783L294.949 174.779L294.979 174.897L294.946 175.126ZM297.522 175.562L296.692 175.757L296.56 175.631L296.768 175.572L297.028 175.273L297.202 175.238L297.475 175.408L297.522 175.562ZM299.125 176.005L298.893 176.069L298.356 175.922L298.797 175.798L298.869 175.754L298.927 175.57L298.935 175.478L299.102 175.873L299.125 176.005ZM291.498 177.119L291.284 177.376L291.478 177.401L291.644 177.326L291.801 177.174L292.167 176.968L292.479 176.878L292.577 176.858L292.726 177.003L293.021 176.887L293.325 176.822L292.012 177.484L291.744 177.558L291.359 177.756L290.997 177.895L290.736 177.946L289.436 178.435L289.333 178.446L289.221 178.399L288.15 178.65L287.711 178.678L287.31 178.766L287.607 178.563L287.613 178.487L287.542 178.428L287.384 178.445L287.222 178.653L286.964 178.723L286.912 178.496L286.999 178.32L287.116 178.153L287.373 177.89L287.741 177.724L287.928 177.58L288.057 177.706L288.085 177.535L288.185 177.436L288.294 177.382L288.553 177.381L288.694 177.354L288.795 177.297L288.899 177.287L289.185 177.365L289.463 177.342L289.687 177.235L289.921 177.199L290.538 177.175L291.151 177.097L291.397 176.957L291.912 176.564L292.209 176.455L291.747 176.911L291.498 177.119ZM286.442 178.954L286.298 178.97L286.442 178.591L286.706 178.417L286.801 178.453L286.805 178.588L286.768 178.701L286.591 178.879L286.442 178.954ZM286.607 182.258L286.254 182.847L286.247 182.734L286.688 182.002L286.607 182.258ZM282.992 189.157L282.854 189.219L283.314 188.457L283.581 187.816L283.7 187.594L283.584 188.043L283.383 188.455L282.992 189.157ZM282.08 196.779L282.035 196.854L281.835 196.445L282.041 196.577L282.077 196.687L282.08 196.779ZM282.356 199.049L281.953 199.149L281.917 199.117L282.38 198.907L282.526 198.169L282.546 197.827L282.478 197.224L282.48 197.1L282.555 197.294L282.621 197.856L282.597 198.281L282.463 198.901L282.356 199.049ZM281.64 199.233L281.093 199.494L281.031 199.478L281.39 199.292L281.64 199.233ZM279.465 201.234L279.39 201.275L279.666 200.82L280.21 200.242L280.357 200.153L279.904 200.646L279.465 201.234ZM279.338 201.191L279.27 201.199L279.152 201.159L278.989 201.082L278.952 201.025L279.108 201.046L279.338 201.191ZM148.78 203.281L149.392 203.466L149.723 203.377L149.783 203.466L149.745 203.545L149 203.684L148.771 203.587L148.751 203.452L148.673 203.324L148.78 203.281ZM147.502 203.478L147.342 203.488L147.095 203.449L147.182 203.364L147.319 203.303L147.363 203.349L147.502 203.478ZM148.294 203.862L148.083 203.913L147.923 203.866L147.667 203.52L148.21 203.474L148.444 203.624L148.475 203.666L148.294 203.862ZM153.403 205.783L153.555 206.047L153.336 206.015L153.108 206.03L153.038 205.886L152.97 205.685L152.924 205.635L152.767 205.616L152.756 205.598L152.737 205.501L152.781 205.454L153.273 205.678L153.403 205.783ZM150.118 206.387L149.984 206.394L149.799 206.36L149.705 206.167L149.856 206.154L149.996 206.181L150.106 206.332L150.118 206.387ZM153.395 207.781L153.219 207.813L153.025 207.74L152.858 207.395L152.673 207.126L152.773 207.048L152.922 207.308L153.297 207.703L153.395 207.781ZM264.657 214.335L264.523 215.186L264.465 214.885L264.459 214.593L264.56 214.419L264.657 214.335ZM244.615 216.841L244.35 216.915L243.957 216.907L243.878 216.881L244.035 216.832L244.5 216.765L244.615 216.841ZM243.15 216.967L243.111 217.006L242.844 216.934L242.682 216.866L242.653 216.799L243.101 216.92L243.15 216.967ZM241.143 217.424L241.153 217.585L241.005 217.504L240.786 217.497L240.883 217.442L240.951 217.388L240.985 217.33L241.261 217.129L241.182 217.276L241.143 217.424ZM242.337 218.38L242.253 218.491L242.336 217.963L242.219 217.519L242.343 217.714L242.384 217.946L242.337 218.38ZM242.152 218.708L241.989 218.889L241.996 218.82L242.116 218.64L242.202 218.569L242.152 218.708ZM254.147 218.95L253.844 219.075L253.517 218.984L253.719 218.967L253.866 219.004L254.239 218.825L254.434 218.691L254.66 218.641L254.147 218.95ZM233.402 219.438L233.29 219.488L232.792 219.189L232.761 219.062L233.007 218.946L233.157 218.956L233.394 219.109L233.481 219.151L233.522 219.212L233.5 219.307L233.402 219.438ZM223.623 220.659L223.472 220.692L224.129 220.164L224.267 219.988L224.443 219.996L224.15 220.291L223.623 220.659ZM218.426 224.051L218.315 224.065L218.453 223.881L218.676 223.789L219.166 223.436L219.365 223.411L219.469 223.29L219.514 223.272L219.486 223.421L219.093 223.634L218.426 224.051ZM217.673 224.903L217.608 224.912L217.754 224.634L217.781 224.522L218.02 224.17L218.147 224.118L218.199 224.268L217.954 224.515L217.673 224.903ZM268.369 227.011L268.418 227.259L268.141 226.682L267.799 225.777L267.617 225.076L267.74 225.266L267.861 225.658L268.369 227.011ZM216.652 226.938L216.557 227.132L216.583 226.843L216.828 226.185L217.325 225.319L217.534 225.174L216.961 226.124L216.652 226.938ZM217.202 230.765L217.16 230.92L216.911 230.196L216.506 228.551L216.491 227.611L216.555 227.287L216.659 228.615L217.108 230.295L217.202 230.765ZM262.655 229.451L262.651 229.647L262.498 229.318L262.397 228.953L262.542 229.071L262.655 229.451ZM262.794 229.781L262.687 229.869L262.469 229.805L262.351 229.69L262.3 229.466L262.489 229.704L262.556 229.758L262.794 229.781ZM267.782 234.146L267.183 234.767L267.249 234.612L267.483 234.279L267.559 234.122L267.716 234.024L267.863 233.844L267.874 233.634L268.088 233.487L268.158 233.465L267.782 234.146ZM267.009 234.936L266.928 234.952L267.048 234.812L267.081 234.822L267.009 234.936ZM266.434 235.265H266.377L266.405 235.217L266.524 235.124L266.567 235.16L266.562 235.208L266.434 235.265ZM265.786 235.551L265.649 235.629L265.506 235.572L265.663 235.493L266.13 235.409L265.954 235.514L265.786 235.551ZM264.911 235.77L264.821 235.838L264.778 235.816V235.718L264.649 235.499L264.654 235.442L264.948 235.655L264.955 235.713L264.911 235.77ZM264.213 235.937L264.017 235.969L264.175 235.839L264.225 235.641L264.318 235.795L264.317 235.888L264.213 235.937ZM263.558 236.119L263.482 236.127L263.475 236.076L263.607 236.014L263.695 236.018L263.692 236.087L263.558 236.119ZM29.8084 244.636L29.5432 244.817L29.3887 244.739L29.0967 244.71L28.984 244.574L28.678 244.45L28.5546 244.283L28.7424 243.965L29.1868 243.697L29.8717 243.708L30.0145 243.92L30.0274 244.078L29.9383 244.255L29.8975 244.504L29.8084 244.636ZM27.3759 244.93L27.3147 245.073L27.2106 245.05L27.1848 244.924L27.2525 244.749L27.4242 244.597L27.6153 244.368L27.772 244.402L27.6872 244.553L27.6775 244.716L27.4564 244.809L27.3759 244.93ZM34.5488 246.17L34.6519 246.188L34.785 246.166L34.8311 246.422L34.9857 246.564L35.0426 246.649L34.8751 246.738L34.5499 246.773L34.3974 246.702L34.2396 246.542L34.069 246.586L34.0389 246.458L34.0089 246.42L33.8918 246.454L34.0013 246.621L33.7051 246.634L33.6117 246.613L33.529 246.425L33.2241 246.065L33.2252 245.924L33.1211 245.757L33.573 245.708L33.8822 245.413L34.0572 245.382L34.3921 245.859L34.3835 245.992L34.4576 246.123L34.5488 246.17ZM36.3125 246.945L36.9491 247.033L37.0994 246.995L37.2056 247.067L37.7327 247.112L37.8229 247.139L37.7155 247.305L37.3785 247.456L36.8933 247.323L36.0817 247.276L36.115 247.148L36.1923 247.058L36.2041 246.9L36.3125 246.945ZM38.5024 247.853L38.5807 247.91L38.9017 247.824L39.1336 247.793L39.5222 248.004L39.6574 248.149L39.9129 248.304L39.9999 248.416L39.929 248.551L39.6467 248.774L39.2624 248.826L39.0359 248.921L38.7385 248.901L38.6494 248.86L38.6172 248.577L38.5228 248.273L38.3306 248.308L38.1149 248.206L37.8916 247.951L37.8669 247.798L37.9903 247.556L38.2061 247.525L38.3661 247.659L38.5024 247.853ZM37.4096 248.366L37.2314 248.456L37.0371 248.414L36.992 248.195L36.8052 247.917L37.1337 247.861L37.3183 247.941L37.415 248.028L37.532 248.177L37.4096 248.366ZM41.2311 253.973L41.098 254.125L40.9316 254.114L40.3273 253.787L40.2543 253.612L40.2994 252.797L40.0729 252.136L39.8238 251.63L40.0052 251.37L40.2446 251.168L40.5119 250.788L40.2929 250.299L40.3487 250.004L40.4776 249.954L41.1088 250.312L42.384 250.851L42.7232 251.23L42.7834 251.636L43.0152 251.687L43.1258 251.965L43.4607 252.209L43.5724 252.348L43.4339 252.571L42.822 252.999L42.0502 253.186L41.3707 253.665L41.2311 253.973Z" fill="#FFEE2E"/>
</svg>
