<svg width="186" height="137" viewBox="0 0 186 137" fill="none" xmlns="http://www.w3.org/2000/svg">
<path d="M113.016 130.86L113.166 131.001L113.264 131.206L113.345 131.584L113.393 131.932L113.089 132.153L112.816 132.242L112.27 133.089L112.156 133.357L112.064 133.468L112.035 133.584L112.046 133.7L111.904 134.106L111.779 134.605L111.7 134.809L111.543 134.966L111.345 135.045L111.216 135.057L111.099 135.1L110.81 135.371L110.485 135.575L110.54 135.669L110.543 135.758L110.4 135.857L110.242 135.837L109.784 135.918L109.616 136.07L109.445 136.352L109.379 136.39L109.102 136.456L108.892 136.48L108.532 136.282L108.354 136.224L107.88 136.143L107.417 136.009L107.093 135.856L106.428 135.48L106.351 134.8L106.237 134.433L106.23 134.302L106.274 133.17L106.32 133.045L106.405 132.937L106.698 132.684L107.034 132.483L107.516 132.062L107.866 131.87L108.159 131.593L107.987 131.605L107.86 131.569L107.985 131.332L108.119 131.205L108.275 131.137L108.586 131.186L108.874 131.137L109.086 130.926L109.288 130.881L110.057 130.95L110.589 130.853L110.855 130.659L110.981 130.651L111.374 130.706L111.52 130.908L111.507 130.773L111.524 130.641L111.596 130.655L112.11 130.905L112.111 130.599L112.14 130.518L112.3 130.391L112.381 130.393L112.58 130.64L112.775 130.783L113.016 130.86ZM111.499 127.338L111.611 127.449L111.909 127.371L111.964 127.513L111.962 127.579L111.856 127.742L111.609 127.617L111.363 127.646L111.185 127.635L111.136 127.558L111.273 127.399L111.499 127.338ZM118.304 125.579L118.009 125.647L117.945 125.633L118.048 125.467L118.316 125.352L118.304 125.579ZM118.745 125.702L118.687 125.766L118.599 125.649L118.574 125.482L118.511 125.391L118.656 125.278L118.72 125.152L118.892 125.177L118.963 125.214L118.812 125.345L118.776 125.401L118.745 125.702ZM121.05 121.811L121.075 121.962L120.839 121.733L120.772 121.72L120.66 121.634L120.595 121.49L120.777 121.485L120.945 121.656L121.05 121.811ZM134.992 116.278L134.891 116.476L134.713 116.443L134.708 116.302L134.671 116.262L134.72 116.131L134.753 116.094L134.954 116.206L134.992 116.278ZM139.927 113.102L139.702 113.256L139.563 113.183L139.561 112.977L139.632 112.791L139.55 112.657L139.629 112.498L139.796 112.451L139.856 112.551L139.949 112.603L139.978 112.658L139.979 112.762L139.89 112.934L139.96 113.027L139.927 113.102ZM144.236 104.276L143.973 104.358H143.874L143.883 104.111L144.097 103.876L144.184 103.954L144.233 104.077L144.236 104.276ZM147.011 98.8243L147 98.8887L146.743 98.6643L146.62 98.6278L146.679 98.5001L146.852 98.4679L146.989 98.7491L147.011 98.8243ZM147.708 98.0879L147.679 98.2478L147.599 98.2253L147.491 97.9408L147.549 97.871L147.702 97.8882L147.708 98.0879ZM147.383 97.842L147.339 97.9097L146.967 97.7111L146.563 97.6692L146.423 97.4942L146.399 97.2194L146.824 97.2312L147.348 97.4792L147.46 97.6059L147.383 97.842ZM146.077 92.5091L145.83 92.61L145.046 92.3083L144.492 91.9766L144.162 91.5741L144.114 91.4077L144.5 91.4356L144.876 91.5805L144.96 91.8017L145.113 91.8714L145.216 92.0003L145.913 92.2997L146.021 92.3899L146.077 92.5091ZM150.978 1.23549L151.114 1.25052L151.19 1.24944L151.335 1.14854L151.735 1.3278L152.5 1.86024L152.98 2.09641L153.179 2.03846L153.393 2.18551L153.628 2.53761L153.919 2.74478L154.443 2.84031L154.963 3.22461L155.172 3.2461L155.245 3.03032L155.439 2.90688L155.753 2.87468L156.207 3.06468L156.801 3.47581L157.173 3.65616L157.324 3.60679L157.483 3.68299L157.611 3.87515L157.623 4.11237L157.579 4.23905L157.722 4.43872H157.886L158.154 4.53424L158.365 4.88634L158.554 5.04952L158.686 5.19012L158.709 5.30714L158.721 5.42524L158.682 5.51647L158.61 5.66782L158.588 5.82992L158.679 6.01242L159.013 6.14444L159.126 6.28079L159.151 6.45468L159.256 6.64684L159.483 6.86905L159.569 7.05473L159.516 7.20395L159.584 7.32847L159.696 7.42616L159.719 7.77934L159.729 7.98222L159.913 8.2098L159.95 8.67568L160.078 9.18987L160.508 9.89299L160.651 10.273L160.615 10.7238L160.677 10.9353L160.873 11.0373L160.967 11.2273L160.956 11.5054L161.032 11.6782L161.094 11.8617L161.053 12.1473L161.115 12.4038L161.216 12.5541L161.287 12.8311L161.326 13.1767L161.615 13.722L162.151 14.467L162.479 15.0446L162.598 15.4546L162.599 15.7917L162.482 16.0558L162.476 16.2479L162.581 16.3681L162.612 16.5302L162.57 16.7353L162.744 16.9779L163.333 17.3987L163.098 18.0428L163.035 18.4947L163.066 18.9691L163.212 19.303L163.471 19.4962L163.632 19.698L163.695 19.9084L164.007 20.1371L164.565 20.385L165.281 20.4291L166.154 20.267L166.687 20.2401L166.884 20.3475L166.951 20.5106L166.888 20.7285L167.036 20.8713L167.395 20.94L167.64 21.0764L167.776 21.2824L167.941 21.3404L168.137 21.2513L168.329 21.2642L168.514 21.378L168.634 21.3383L168.74 21.2137H168.908L169.081 21.2159L169.188 21.5176L169.362 21.6872L169.603 21.7247L169.969 22.0908L170.705 23.131L171.184 23.4992L171.664 23.614L172.261 23.6376L172.454 24.0391L172.297 24.4631L172.257 24.8163L172.393 24.943L172.579 25.3573L172.844 25.5978L172.894 25.7878L173.016 26.0003L172.965 26.3922L172.738 26.9643L172.801 27.4517L173.151 27.8542L173.352 28.2417L173.405 28.6132L173.492 28.8386L173.615 28.918L173.974 28.8901L174.57 28.7559L175.005 28.7785L175.285 28.9599L175.973 28.9663L177.071 28.7989L177.764 28.7473L178.054 28.8117L178.312 28.5724L178.538 28.0281L178.75 27.7726L178.948 27.8048L179.262 27.6299L179.692 27.2466L180.066 27.0609L180.539 27.0802L181.044 27.0996L181.359 26.9386L181.656 26.6026L182.17 26.3052L183.266 25.9155L183.529 25.8543L183.654 25.8758L184.019 25.937L184.344 26.0895L184.65 26.3954L184.697 26.5918L184.662 26.8494L184.595 26.9987L184.469 27.1661L184.351 27.4377L184.427 27.6492L184.604 28.1011L184.75 28.4274L184.911 28.8117L184.84 28.9492L184.742 29.2154L184.442 29.6652L184.279 29.8369L184.103 30.0044L183.799 30.0452L183.669 30.0838L183.522 30.1547L183.43 30.3135L183.325 30.4252L183.151 30.6484L183.137 30.8406L183.215 31.1261L183.254 31.4181L183.058 31.679L182.905 32.0794L182.859 32.1996L182.784 32.5023L182.761 32.6075L182.713 33.243L182.517 33.6756L182.243 34.178L182.304 34.4775L182.352 34.7545L182.285 34.8886L182.267 35.0057L182.228 35.2719L182.142 35.3738L181.893 35.5402L181.744 35.741L181.775 36.0448L181.699 36.3078L181.585 36.5396L181.466 36.691L181.294 36.7876L181.18 36.8692L181.094 37.1633L181.068 37.3909L180.988 37.6174L181.037 37.8482L180.95 38.0478L180.706 38.1874L180.567 38.2701L180.439 38.3033L180.195 38.5202L179.976 39.262L179.926 39.6924L179.977 40.0746L179.67 40.3139L179.442 40.5039L179.299 40.4352L179.148 40.3708L178.8 40.2882L178.626 40.2324L178.276 40.1078L177.716 39.95L177.169 39.7665L176.825 39.6699L176.554 39.5926L176.349 39.4659L176.177 39.2394L176.005 39.3306L175.846 39.599L175.581 39.7579L175.461 40.0509L175.354 40.2753L175.08 40.5748L174.957 40.6982L174.419 40.9011L174.298 40.9688L173.859 41.0117L173.71 41.1008L173.555 41.2897L173.513 41.4776L173.623 41.6751L173.794 42.0701L173.873 42.3396L173.989 42.8731L174.379 44.5402L174.253 44.8268L174.136 46.0688L174.164 46.2921L174.152 46.6399L174.16 46.8943L174.24 46.9576L174.345 47.0467L174.399 47.1948L174.385 47.4224L174.331 47.5888L174.249 47.9184L174.139 48.3939L174.018 48.5764L173.938 48.7213L173.871 48.8212L173.862 49.1571L173.817 49.3783L173.627 49.4566L173.438 49.5855L173.214 49.5382L173.016 49.564L172.773 49.6499L172.336 49.7497L172.082 49.8828L171.961 49.9794L171.877 50.0953L171.862 50.207L171.92 50.266L172.166 50.3111L172.335 50.5194L172.358 50.747L172.184 50.8768L172.099 50.7341L171.954 50.689L171.684 50.4882L171.487 50.2671L171.34 50.0224L171.346 49.4996L171.321 49.4212L171.053 49.3139L170.974 49.1571L170.846 49.0831L170.664 49.1303L170.528 49.0809L170.42 48.9951L170.291 48.9854L170.179 49.1207L170.119 49.4116L169.931 49.8935L169.914 50.1845L169.834 50.5988L169.753 51.1237L169.685 51.2332L169.476 51.2493L169.404 51.2837L169.294 51.4619L169.162 51.492L169.045 51.3878L168.861 51.2837L168.686 51.2697L168.529 51.3739L168.345 51.6004L168.239 51.7829L168.202 51.9546L168.173 52.1661L167.986 52.3679L167.816 52.4742L167.465 52.7715L167.354 52.8949L167.103 52.896L166.829 52.8842L166.46 52.9647L165.858 53.0055L165.499 52.9443L165.054 53.0012L164.708 53.0978L164.658 53.2428L164.671 53.4575L164.74 53.597L164.825 53.6904L164.969 53.9781L165.12 54.2561L165.349 54.4354L165.444 54.6286L165.448 54.8079L165.34 55.0333L165.176 55.3274L165.022 55.5088L164.907 55.5024L164.731 55.3972L164.612 55.2641L164.328 55.2147L163.632 55.2995L163.284 55.2405L163.118 55.1321L162.827 55.1245L162.377 54.9796L162.102 54.9335L161.973 54.8412L161.948 54.6286L161.819 54.4826L161.746 54.3076L161.583 54.0876L161.426 53.977L161.272 53.9308L161.103 54.064L160.923 54.1842L160.788 54.1573L160.723 54.1906L160.65 54.2905L160.36 54.4944L160.293 54.6812L160.178 55.0773L160.097 55.4842L160.029 55.628L159.912 55.6527L159.792 55.7751L159.542 56.1561L159.316 56.5072L158.987 56.7444L158.832 56.9612L158.752 57.1588L158.518 57.4346L158.175 57.484L157.901 57.5645L157.733 57.586L157.613 57.6976L157.525 57.8673L157.483 57.9349H157.328L157.173 58.0787L156.794 58.4061L156.485 58.4673L156.099 58.6852L155.758 58.8505L155.617 58.9439L155.579 59.047L155.53 59.1779L155.365 59.2037L155.207 59.1973L154.852 59.4968L154.673 59.7512L153.976 60.2922L153.692 60.596L153.619 60.9889L153.582 60.9599L153.334 61.3023L152.847 61.6276L151.806 61.7006L151.476 61.4698L151.357 61.6287L151.265 61.8423L150.991 61.9131L150.565 61.9325L150.325 62.0731L150.198 62.2298L149.613 62.2803L149.398 62.4896L149.033 62.5637L147.512 63.4761L147.18 63.8593L146.866 64.307L146.646 64.5313L146.448 64.6881L146.269 64.7525L146.093 64.907L145.915 64.9264L145.733 64.8555L145.53 64.8802L145.396 65.067L145.509 65.3107L145.447 65.4137L145.047 65.5457L144.453 65.6327L144.201 65.7916L144.113 65.8818L143.982 65.9268L143.856 65.6134L143.811 65.199L144.056 65.0992L144.283 65.0466L145.538 64.4734L145.381 64.0418L145.493 63.854L145.774 63.548L145.956 63.3967L145.858 63.3409L145.034 63.4418L144.563 63.4343L144.32 63.4031L144.393 63.1412L144.353 62.8792L144.296 62.7816L144.716 62.4832L144.906 62.4102L145.05 62.4145L145.04 62.2341L144.919 61.9625L145.049 61.6115L145.904 61.1982L146.109 60.8225L146.451 60.4715L147.078 59.5977L147.116 59.4485L147.298 59.0373L147.33 58.8731L147.041 58.6326L146.926 58.2956L146.078 57.6858L146.006 57.1609L145.926 57.1834L145.798 57.5506L145.687 57.6687L145.294 57.6794L145.108 57.5409L144.016 57.4508L143.748 57.688L143.499 58.054L143.256 58.316L143.011 58.4502L142.798 58.6884L141.92 60.099L141.588 60.2063L140.027 61.0555L139.244 61.3882L138.642 61.9743L138.435 62.3286L138.251 62.7215L138.139 63.3151L137.583 64.0354L137.392 64.19L137.198 64.2522L136.939 64.2297L136.716 64.2748L136.336 64.2114L135.87 64.439L135.346 64.6355L134.894 64.1406L134.571 64.0182L134.044 64.1556L133.799 64.3757L133.293 65.4631L133.103 66.0846L133.116 66.3391L133.411 67.1098L133.745 67.5402L134.493 68.0308L136.084 68.3679L136.457 68.2477L136.858 68.2466L137.28 68.5665L137.544 69.0946L137.567 69.4542L137.576 69.5788L137.672 69.685L137.729 69.8664L137.562 70.0167L137.433 70.0919L137.325 70.649L137.318 71.2641L137.455 71.4681L137.797 71.7547L138.326 71.9908L138.816 72.0413L139.751 71.9275L140.133 71.5572L140.11 71.3972L140.12 71.19L140.943 70.6458L141.412 70.1627L141.339 70.035L141.249 69.9502L141.332 69.9008L141.588 69.8664L142.733 69.3619L143.633 69.7741L144.148 70.2486L144.656 70.3281L145.009 70.5706L145.415 70.7768L145.946 70.7907L146.393 70.8336L146.53 70.6426L146.67 70.517L146.829 70.5416L147.008 70.7918L147.517 70.9839L147.986 70.9743L148.315 70.9045L148.51 70.9936L148.228 71.3135L148.27 71.8287L148.054 71.9919L147.847 72.2538L147.969 72.4267L148.078 72.4997L148.067 72.709L147.878 72.8281L147.528 73.1394L147.326 73.1341L147.231 73.074L147.163 72.9623L147.113 72.7831L146.99 72.665L146.651 72.6199L146.299 72.6628L145.507 73.1244L144.733 73.4915L143.922 73.7825L143.651 73.966L143.457 74.0165L143.121 73.878L142.919 73.8866L142.876 73.9821L143.134 74.2376L143.202 74.4373L143.175 74.5908L143.028 74.6584L142.814 74.5468L142.619 74.7067L142.531 74.9761L142.527 75.617L142.398 75.7598L142.04 75.8381L141.66 76.0421L141.525 75.9476L141.471 75.8328L141.511 75.5386L141.464 75.3948L141.29 75.4023L141.028 75.4903L140.828 75.6836L140.76 75.8006L141.023 76.1773L141.273 76.216L141.334 76.3008L141.135 76.4844L140.641 76.757L140.558 76.9857L140.411 77.2047L140.209 77.3786L140.072 77.5621L139.904 77.6577L139.631 77.765L139.295 78.203L139.049 78.612L138.757 78.8224L138.526 79.5115L138.113 79.8851L137.96 80.482L138.068 80.848L138.522 80.8448L138.748 80.9736L139.218 81.4545L139.781 81.768L140.365 81.944L141.081 82.3873L141.278 82.5752L141.447 82.9563L141.757 84.0512L141.98 84.5923L141.995 84.8746L142.33 85.4059L142.688 86.3184L143.1 87.1063L143.178 87.7257L143.045 88.008L143.046 88.3741L143.457 88.7101L144.372 89.0998L144.518 89.2146L144.697 89.4035L144.706 89.9907L144.848 90.1775L144.967 90.2913L145.521 90.5393L145.752 90.7454L145.998 91.0738L146.069 91.368L146.099 91.7662L145.79 91.7802L145.541 91.7351L144.55 91.2177L144.293 91.2037L143.929 91.2756L143.41 91.1801L142.863 90.6058L142.468 90.4319L142.044 90.3439L141.032 90.8377L140.775 90.8023L140.701 90.8581L140.587 90.9429L141.056 91.0491L141.526 90.887L141.977 90.6477L142.635 90.7754L142.746 90.9912L142.854 91.3551L143.305 91.6009L143.659 91.7093L144.11 92.0314L144.55 92.5337L145.483 93.1156L145.861 93.6652L146.007 94.0194L146.138 94.525L145.812 94.6882L145.527 94.7107L145.082 94.7902L144.754 94.9694L144.426 95.2829L143.484 95.7756L143.306 96.0837L143.184 96.3521L142.954 96.4841L142.377 96.3585L141.834 96.3693L141.219 96.731L141.066 96.8781L141.168 96.8491L141.264 96.8029L141.541 96.8577L141.97 96.6645L142.388 97.2538L143.205 97.1582L143.973 96.6688L144.27 96.6602L144.518 96.7353L144.796 96.9285L145.535 97.7862L145.94 97.8796L146.338 98.0804L146.558 98.1029L146.756 98.163L146.222 98.4765L145.531 99.1527L145.224 99.3138L145.018 99.4941L145.574 99.4039L145.969 99.0808L146.169 99.0014L146.329 99.0765L146.41 99.4748L146.258 100.696L146.064 100.718L145.875 100.386L145.654 100.281L145.468 100.35L145.1 100.348L144.959 100.498L144.841 100.71L145.061 100.754L145.495 101.125L145.539 101.321L145.423 101.449L145.119 101.394L145.488 101.67L145.391 101.956L145.272 102.068L145.057 102.14L144.925 102.387L145.115 102.798L145.307 103.324L145.331 103.578L145.03 103.468L144.561 103.789L144.314 103.816L144.147 103.393L143.933 103.459L143.79 103.582L143.6 104.035L143.368 104.444L143.169 104.555L142.929 104.523L142.732 104.535L142.78 104.646L142.988 104.78V104.937L142.544 105.434L142.472 105.626L142.483 105.789L142.25 105.988L142.375 106.321L142.31 106.556L142.106 106.874L141.891 107.084L141.639 107.423L141.319 107.619L140.897 108.329L140.773 108.683L140.742 109.049L140.609 109.176L140.383 109.335L140.125 109.254L140.117 109.01L140.005 108.989L139.942 108.829L139.922 108.626L139.949 108.462L139.842 108.512L139.775 108.702L139.606 108.857L139.429 108.795L139.238 108.668L139.243 108.85L139.345 109.034L139.389 109.218L139.653 109.257L139.83 109.468L139.97 109.791L139.998 109.912L140.106 110.056L140.121 110.179L139.869 110.293L139.553 110.506L139.174 110.87L138.862 111.112L138.58 111.114L138.409 111.086L138.165 110.947L137.885 110.889L138.261 111.38L138.466 111.466L138.723 111.448L138.974 111.266L139.329 111.285L139.418 111.567L139.323 111.886L139.129 112.299L139.089 112.657L139.33 113.168L139.341 113.321L139.25 113.398L138.968 113.263L138.735 113.094L138.5 113.139L138.256 113.067L138.006 113.127L137.904 113.245L137.973 113.439L138.197 113.601L138.323 113.848L138.173 113.935L137.536 113.877L137.394 113.925L137.204 114.197L137.328 114.601L137.187 114.851L136.925 114.91L136.581 115.112L136.368 115.159L136.379 115.247L136.535 115.335L136.617 115.454L136.429 115.866L136.139 116.001L135.692 115.933L135.341 116.025L135.037 115.851L134.713 115.847L134.493 116.068L134.469 116.325L134.256 116.351L134.141 116.331L133.979 116.35L133.996 116.487L134.088 116.607L134.526 116.661L134.605 116.834L134.622 117.1L134.163 117.558L133.968 117.868L133.674 117.859L133.452 118.107L133.332 118.443L133.185 118.376L132.845 118.43L132.745 118.59L132.825 118.657L132.832 118.771L132.696 119.148L132.548 119.254L132.483 119.1L132.435 118.861L132.316 118.842L132.117 119.062L131.885 119.22L131.687 119.286L131.537 119.14L131.168 119.063L131.018 119.696L130.713 119.925L130.57 119.997L130.321 120.019L130.48 120.106L130.53 120.268L130.441 120.429L130.191 120.461L130.047 120.587L129.991 121.15L129.843 121.348L129.465 121.364L129.182 121.233L129.092 121.336L129.045 121.437L128.897 121.539L128.611 121.566L127.977 121.818L127.686 121.745L127.339 121.649L127.1 121.743L127.02 121.936L126.91 122.086H126.562L126.283 121.901L125.999 121.766L125.684 121.882L125.445 122.118L125.151 122.198L125.096 122.345L124.968 122.418L124.657 122.387L124.539 122.022L124.359 121.968L124.182 122.153L124.119 122.297L124.036 122.406L124.065 122.704L123.89 122.71L123.662 122.527L123.421 122.495L123.197 122.665L123.083 122.623L122.963 122.588H122.766L122.691 122.633L122.547 122.66L122.451 122.752L122.442 122.759L122.189 122.697L121.879 122.45L121.656 122.04L121.374 121.819L121.25 121.625L121.201 121.276L121.15 121.109L121.167 120.925L121.253 120.761L120.949 120.843L120.725 120.997L120.771 121.19L120.715 121.369L120.38 121.463L120.4 121.538L120.423 121.617L120.685 121.862L120.739 122.067L120.845 122.176L121.05 122.495L121.044 123.111L121.157 123.285L121.12 123.458L121.038 123.691L121.031 123.694L120.97 123.623L120.872 123.637L120.832 123.716L120.826 123.787L120.808 123.79L120.634 123.841L120.488 123.885L120.37 123.948L120.185 124.131L119.831 124.176L119.65 123.747L119.406 124.034L119.333 124.619L119.243 124.718L119.092 124.802L118.805 124.598L118.555 124.735L118.36 124.873L118.279 125.001L118.135 125.139L117.86 125.005L117.637 124.804L117.693 124.653L117.662 124.554L117.562 124.479L117.452 124.49L117.506 124.686L117.543 125.062L117.442 125.17L117.286 125.254L116.95 125.185L116.722 125.046L116.444 124.928L116.199 124.906L116.145 125.144L115.986 125.335L115.839 125.358L115.692 125.328L115.499 125.534L115.408 125.685L115.169 125.843L114.536 125.921L114.315 126.077L114.019 126.053L113.789 126.09L113.657 126.082L113.539 125.997L113.406 125.995L113.345 126.257L112.986 126.367L112.664 126.397L112.305 126.743L112.05 126.952L111.86 126.974L111.72 126.9L111.651 126.591L111.58 126.554L111.539 126.845L111.471 127.086L111.34 127.218L110.926 127.519L110.807 127.818L110.886 128.093L111.443 128.161L111.512 128.312L111.458 128.436L111.325 128.539L111.286 128.693L111.884 129.185L111.902 129.371L111.81 129.477L111.698 129.706L111.382 129.899L110.715 129.998L110.157 129.898L109.989 129.678L110 129.521L110.138 129.566L110.295 129.552L110.248 129.408L110.181 129.325L109.924 129.197L109.716 128.852L109.756 128.566L109.643 128.343L109.519 128.158L109.394 128.046L109.327 127.908L109.453 127.472L109.383 127.218L109.622 126.907L109.681 126.556L110.106 126.431L110.135 126.096L109.83 126.086L109.619 125.84L109.57 125.944L109.401 125.955L109.122 125.481L109.038 125.42L108.903 125.412L108.97 125.912L108.643 126.1L108.374 126.183L107.994 126.217L107.778 126.275L107.576 126.228L107.625 126.076L107.732 125.896L107.637 125.745L107.422 125.629L107.094 125.635L106.867 125.603L106.642 125.616L106.559 125.548L106.35 125.311L106.173 125.164L106.093 125.017L106.173 124.846L106.106 124.742L105.764 124.73L105.766 124.975L105.801 125.264L105.901 125.483L105.83 125.605L105.656 125.689L105.471 125.457L105.386 125.4L105.297 125.411L105.229 125.642L105.061 125.847L104.758 125.824L104.522 125.951L104.236 126.009L104.042 125.839L103.721 125.566L103.593 125.535L103.237 125.668L102.725 125.718L102.611 125.576L102.364 125.683L102.126 125.356L101.843 125.335L101.491 125.087L101.365 124.955L101.325 124.766L101.218 124.667L101.08 124.68L100.927 124.579L100.684 124.479L100.489 124.42L100.392 124.465L100.29 124.489L100.272 124.362L100.279 123.98L100.261 123.641L100.207 123.487L100.077 123.371L99.9584 123.315L99.9058 123.14L99.9488 122.797L100.045 122.564L100.198 122.522L100.404 122.355L100.509 122.116L100.641 121.895L100.171 121.585L99.9241 121.473L99.6503 121.521L99.31 121.619L99.1329 121.639L99.0438 121.6L98.8452 121.321L98.7379 121.273L98.4974 121.254L98.2945 121.256L98.1786 121.378L97.9983 121.419L97.818 121.425L97.6354 121.274L97.3606 121.076L96.9302 120.937L96.8776 120.777L96.7681 120.584L96.6049 120.406L96.3344 120.17L96.1079 120.048L95.9973 120.123L95.8471 120.257L95.2652 120.539L95.0076 120.65L94.8702 120.728L94.7553 120.846L94.7199 121.137L94.663 121.462L94.4955 121.626L94.3367 121.75L94.1703 121.763L94.0071 121.758L93.8536 121.809L93.3856 122.135L93.1655 122.109L92.9841 121.925L92.9068 121.792L92.6975 121.822L92.4291 121.978L92.3046 122.257L92.2391 122.518L92.1801 122.634L92.0899 122.667L92.0105 122.672L91.1742 121.92L91.1227 121.881L90.9724 122.036L90.8361 122.435L90.7384 122.511L90.6718 122.48L90.3262 121.969L90.2371 121.921L90.1588 121.938L90.0547 122.103L89.8356 122.347L89.6682 122.495L89.6639 122.66L89.4814 122.804L89.2699 122.949L89.199 122.964L89.0584 122.906L88.8749 122.714L88.7418 122.514L88.4122 122.314L88.043 122.145L87.7982 122.013L87.6586 121.981L87.5288 122.04L87.4633 122.121L87.371 122.32L87.1498 122.647L86.9523 122.906L86.7687 123.073L86.6228 123.188L86.5133 123.08L86.3115 122.992H86.0742L85.7618 123.158L85.516 122.827L85.4516 122.811L85.3571 122.839L85.2476 122.917L85.1725 123.102L85.0931 123.354L84.9364 123.519L84.8064 123.592L84.844 123.734L84.9181 123.888L84.9127 124.022L84.9599 124.233L85.0415 124.445L85.3324 124.791L85.4441 124.972L85.4666 125.128L85.4774 125.685L85.4656 125.916L85.4076 126.363L85.4033 126.621L85.5246 126.737L85.6416 126.875L85.6362 126.95L85.5847 126.977L85.4183 127.13L85.3485 127.151L85.2391 127.088L85.0973 127.04L84.9846 126.979L84.859 126.88L84.5617 126.891L84.0733 127.041L83.9724 126.998L83.9026 126.914L83.8639 126.738L83.8875 126.531L83.8446 126.399L83.7533 126.321L83.8189 125.953L83.645 125.807L83.6696 125.762L83.6117 125.364L83.6192 125.265L83.5892 125.232L83.4668 125.2L83.2843 125.263L82.7293 125.525L82.2527 126.009L82.0348 126.116L81.8147 126.16L81.556 126.076L81.2694 126.022L80.8604 126.144L80.6585 126.087L80.5652 125.988L80.4825 125.838L80.5329 125.647L80.5018 125.506L80.3387 125.435L80.1487 125.374L80.036 125.191L79.9909 124.99L80.0349 124.729L80.0574 124.449L79.9662 124.32L79.6881 124.25L78.9872 124.123L78.3732 124.053L78.1156 124.086L77.9051 124.055L77.7838 124.003L77.7248 123.915L77.7216 123.789L77.8214 123.498L77.9341 123.213L78.2197 122.799L78.2368 122.511L78.2218 122.18L78.3635 121.736L78.6093 121.405L78.7306 121.3L78.7016 121.152L78.6029 121.017L78.4623 120.942L78.2293 120.855L77.8665 120.831L77.3684 120.742L76.7919 120.545L76.8585 120.166L76.8489 119.929L76.778 119.733L76.661 119.595L76.5945 119.471L76.6986 119.132L76.5644 118.761L76.4066 118.613L76.2434 118.42L76.2305 118.213L76.3046 118.02L76.7039 117.605L76.7072 117.504L76.6084 117.512L76.4946 117.521L75.9493 117.672L75.8903 117.577L75.6949 117.522L75.2966 117.511L74.8307 117.539L74.2414 117.687L73.7003 117.947L73.4545 118.125L73.2452 118.236L73.0756 118.272L72.8792 118.194L72.8899 117.939L73.2591 117.473L73.3118 117.152L73.2001 116.876L73.1873 116.655L73.0573 116.514L72.8759 116.445L72.7793 116.288L72.7729 115.829L72.935 115.356L73.198 115.206L73.3579 115.135L73.4009 115.042L73.3193 114.709L73.3322 114.498L73.4889 114.089L73.6456 113.779L73.9419 113.83L74.075 113.753L74.2221 113.642L74.382 113.456L74.4894 113.233L74.6203 112.718L74.7094 112.641L75.083 112.727L75.1946 112.667L75.3986 112.364L75.5918 111.995L75.872 111.881L76.0738 111.869L76.1672 111.747L76.1618 111.566L75.9697 111.28L75.8891 111.051L75.9128 110.912L76.1876 110.827L76.2552 110.66L76.2144 110.295L76.3271 109.856L76.3948 109.342L76.4173 108.958L76.4141 108.665L76.3872 108.357L76.3486 107.794L76.223 107.304L76.2456 107.119L76.2284 106.523L76.1511 106.014L75.9965 105.925L75.7088 105.76L75.5521 105.728L75.4211 105.788L75.3717 105.965L75.2451 106.13L75.0894 106.089L75.0154 105.924L74.9155 105.707L74.5817 104.676L74.5452 104.378L74.4861 104.082L74.3745 103.934L74.2564 103.846L73.9902 103.498L73.8506 103.353L73.783 103.33L73.6371 103.354H73.4932L73.3762 103.18L73.2688 102.968L73.1615 102.864L72.9811 102.806L72.7965 102.828L72.6881 103.012L72.6151 103.116L72.4755 103.361L72.2501 103.699L72.1471 103.823L72.0472 103.759L71.6124 103.407L71.4032 103.309L71.1176 103.415L70.6721 103.332L70.5004 103.316L70.129 103.034L69.9776 103L69.4505 103.184L69.3346 103.314L69.2669 103.316L69.1263 103.25L69.0115 103.163L69.0039 103.108L69.1467 102.971L69.1574 102.874L69.15 102.777L69.355 102.5L69.9143 101.963L69.8209 101.738L69.6008 101.293L69.5718 101.077L69.4763 100.98L69.209 101.059L68.6529 101.463L68.5767 101.419L68.5906 101.279L68.5327 100.872L68.7088 100.75L68.9792 100.601L69.1875 100.434L69.2358 100.3L69.1789 100.258L68.8719 100.311L68.7506 100.22L68.5499 99.8451L68.4028 99.6981L68.2697 99.6186L67.8167 99.8119L67.2907 100.077L66.7046 100.446L66.7078 100.635L66.638 100.684L66.5264 100.803L66.4169 100.967L66.3235 101.025L66.214 101.03L65.9907 100.984L65.5861 100.797L65.147 100.643L65.0525 100.66L64.4557 100.55L64.4363 100.462L64.3462 100.29L64.1765 100.133L64.0145 100.08L63.5475 100.411L63.0205 100.657L62.721 100.948L62.474 101.236L62.1907 101.292L62.1778 101.47L62.0586 101.63L61.8439 101.828L61.4178 102.079L61.129 102.214L60.2122 102.338L59.8848 102.421L59.7475 102.553L59.6004 102.888L59.4845 103.196L59.2311 103.451L58.7695 103.79L58.2274 104.065L58.0782 104.247L58.0514 104.356L58.119 104.396L58.1855 104.478V104.603L58.1158 104.738L57.7616 104.974L57.5619 105.087L57.3633 105.159L57.1411 105.172L56.9274 105.139L56.8684 105.101L56.7836 105.15L56.5882 105.2L56.4186 105.216L56.0461 105.478L55.8411 105.48L55.5856 105.423L55.2486 105.378H55.0049L54.9974 105.239L55.0349 104.824L54.9244 104.727L54.5873 104.625L54.2073 104.49L54.0248 104.346L53.9228 104.298L53.78 104.321L53.5514 104.473L53.3346 104.651L53.1628 104.666L52.9868 104.583L52.8193 104.474L52.2439 104.32L51.9863 104.298L51.5258 104.324L51.1501 104.291L51.091 104.244L51.0921 104.158L51.1479 103.992L51.1801 103.828L51.1361 103.734L50.7529 103.619L50.4029 103.537L50.0304 103.506L49.7803 103.564L49.5356 103.692L49.3338 103.924L49.0418 104.025L48.6929 104.198L48.5243 104.359L48.2689 104.705L47.8975 105.129L47.5604 105.542L47.3854 105.943L47.1536 106.196L46.9185 106.377L46.7488 106.876L46.5717 106.719L46.3688 106.492L46.3205 106.182L46.561 105.357L46.6179 105.014L46.5567 104.883L46.4816 104.545L46.3388 104.433L45.9309 104.256L45.801 104.251L45.6614 104.373L45.5251 104.45L45.3437 104.528L44.8886 104.673L44.4849 104.74L44.3883 104.794L44.3582 104.89L44.3905 105.005L44.1307 104.961L43.8591 104.937L43.6401 104.953L43.1045 105.172L42.923 105.193L42.7212 105.171L42.4464 105.164L41.9236 105.171L41.4738 105.115L41.1078 104.809L40.8491 104.674L40.5732 104.569L40.2952 104.491L40.2029 104.327L40.1148 104.244L39.8862 104.217L39.7047 104.277L39.5921 104.691L39.4955 104.772L39.2657 104.809L39.0242 104.704L38.6904 104.491L38.5594 104.255L38.4478 104.179L38.2717 104.283L38.262 104.586L38.2277 104.788L38.0183 104.871L37.8971 104.811L37.7994 104.603L37.5536 104.108L37.3099 103.818L37.0641 103.625L36.2578 103.63L35.6599 103.573L35.3895 103.494L35.2874 103.303L35.3862 102.921L35.5022 102.622L35.4989 102.552L35.4002 102.517L35.2284 102.493L34.5832 102.684L34.4072 102.662L34.2956 102.596L34.1593 102.541L34.0465 102.452L33.9682 102.322L33.41 102.003L33.2457 101.828L32.9483 101.609L32.6972 101.46L32.5383 101.032L32.3934 100.621L32.314 100.402L32.0746 100.286L31.8158 100.198L31.3779 100.378L31.0183 100.514L30.7542 100.528L30.3731 100.106L30.0672 99.6498L29.7054 99.2515L29.465 99.0508L29.0388 99.0314L28.559 98.8071L27.9149 98.2961L27.4501 97.915L26.6493 97.491L26.4625 97.3128L26.3916 97.1615L26.2822 96.863L26.1147 96.5796L25.5468 96.4562L24.9049 96.3682L24.2275 96.5421L23.7402 97.3901L23.5051 97.5748L23.3033 97.5855L23.138 97.3697L23.0016 97.1432L22.9276 96.892L22.5905 96.7063L22.2094 96.4637L22.014 96.2748L21.794 96.1567L21.589 96.1062L21.1939 95.9463L20.7463 95.766L20.5359 95.7413L20.5209 95.6125L20.5842 95.3387L20.5456 95.0757L20.4103 94.9684L20.2063 94.9963L19.734 94.6227L19.7104 94.6034L19.5762 94.4971L19.3433 94.3447L18.9504 94.3554L18.653 94.4113L18.4351 94.2556L18.1195 94.0087L18.0627 93.954L17.9692 93.8638L17.6494 93.3872L17.2715 92.8225L17.0804 92.7399L16.9817 92.7828L16.87 93.0823L16.7863 93.0522L16.6457 93.0726L16.4804 93.1778L16.3215 93.2047L16.2195 93.1735L16.1766 93.0995L16.2216 92.7034L16.125 92.5799L16.2109 92.304L16.3558 92.0657L16.2077 91.8886L16.0252 91.6353L16.0048 91.4055L16.1036 91.1157L16.1519 90.8678L16.1218 90.7765L15.978 90.638L15.4294 89.9553L15.4004 89.8834L15.3081 89.6558L15.2652 89.3123L15.1944 89.0665L15.1106 88.8775L15.117 88.7884L15.1804 88.7423L15.5228 88.6961L15.8395 88.6671L16.0477 88.6027L16.1562 88.7401L16.2066 88.9505L16.2613 89.0611L16.4621 89.2608L16.7069 89.4519L16.944 89.4272L17.1534 89.3456L17.3348 89.0343L17.4626 88.958L17.6118 88.9441V88.9215L17.6032 88.7208L17.6558 88.2259L17.6376 88.0273L17.5699 87.8481L17.5817 87.6484L17.5591 87.3586L17.3885 87.16L17.2768 87.0838L17.2586 86.9764L17.3166 86.7778L17.3563 86.5492L17.2973 86.3806L17.2876 86.3549L17.1491 86.2679L16.987 86.1209L16.7938 85.9223L16.6983 85.7784L16.5415 85.6196L16.3504 85.3727L16.315 84.8306L16.2957 84.2595L16.2292 83.975L16.1229 83.5209L16.1389 83.3685L16.2034 83.2526L16.7422 82.8855L16.8593 82.7427L16.8786 82.6343L16.8571 82.4732L16.7552 82.294L16.5404 82.1544L16.2334 81.9268L15.9554 81.6896L15.4874 81.5447L14.9195 81.3676L14.7832 81.1947L14.6458 80.7718L14.4118 80.1256L14.1627 79.4353L13.9706 79.0091L13.9609 78.8041L14.0757 78.2803L14.0618 78.1686L13.9609 78.13L13.7688 78.1987L13.6153 78.2814L13.4843 78.2384L13.363 78.1504L13.3383 78.1203L13.3286 78.1085L13.1011 78.1654L12.6449 78.1976L12.487 78.1923L12.2659 78.1848L11.8086 78.0645L11.1914 77.9024L10.5548 77.677L10.2177 77.4977L10.0997 77.4355L9.81091 77.2487L9.60583 77.0877L9.56934 76.6658L9.42015 76.698L9.07022 76.8504L8.66655 76.947L8.44333 76.9481L8.35311 76.8805L8.21892 76.435L8.12124 76.3094L7.93981 76.26L7.74234 76.1817L7.64249 76.0657L7.61995 75.9186L7.70801 75.7501L7.81212 75.6202L7.83033 74.8259L7.76271 74.5436L7.70584 74.3063L7.56092 74.0111L7.42568 73.8286L7.22172 73.659L6.905 73.483L6.62268 73.4175L6.28133 73.5463L6.17289 73.4969L6.03013 72.9516L5.93892 72.84L5.33241 72.6156L5.05756 72.5641L4.74091 72.6338L4.5606 72.694L4.41567 72.5941L4.18917 72.4675L3.96693 72.3805L3.69109 72.3773L3.51288 72.431L3.4678 72.3998L3.38191 72.3L3.0148 71.9984L3.0019 71.9221L3.56438 71.6248L3.8961 71.5121L4.06999 71.4219L4.10648 71.4412L4.19238 71.5786L4.41134 71.6688L4.56597 71.6441L4.64643 71.5754L4.91912 71.4112L5.13166 71.2201L5.25084 71.0634L5.18637 70.8165L4.8515 70.517L4.63896 70.357L4.57344 70.2486L4.62821 69.9233L4.70546 69.6002L4.65396 69.4768L4.5906 69.3716L4.56269 69.0184L4.41672 68.5912L4.25783 68.3421L4.21387 68.0051L4.20529 67.6895L4.39739 67.1935L4.32656 66.9788L4.12476 66.7878L3.42915 66.4421L2.71636 66.2135L2.44479 66.222L2.27621 66.2081L2.07657 66.4099L1.95739 66.674L1.79104 66.6976L1.48722 66.5859L1.28438 66.4163L1.1405 66.0632L1.02885 65.608L0.96556 65.4653L0.99773 65.3418L1.06751 65.2323L1.26184 65.1292L1.29401 65.024L1.26505 64.8942L1.10833 64.7299L0.948329 64.4981L0.698242 64.0161L0.74653 63.7498L0.786234 63.3666L0.771231 63.1648L1.02459 63.1122L1.34767 63.0081L1.49797 62.8353L1.60208 62.6592L1.62462 62.5497L1.52693 62.1278L1.39812 61.94L1.38528 61.794L1.44857 61.6823L1.53341 61.4902L1.69656 61.0952L1.85544 60.8429L1.94239 60.7796L2.13672 60.7205L2.61114 60.6507L3.12108 60.4736L3.72647 59.9433L3.92827 59.792L4.19238 59.7158L4.38127 59.7211L4.41567 59.6567L4.29328 59.3272L4.32335 59.208L4.39523 59.1146L4.48649 59.0717L4.90621 59.2456L5.22719 59.2273L5.61794 59.1243L6.46059 58.5425L6.56581 58.5511L6.65059 58.6294L6.75261 58.9804L6.86851 59.719L6.93291 59.8113L7.51905 59.8209L7.91839 59.5526L8.09332 59.4893L8.37676 59.5333L8.527 59.4077L8.68378 59.3197L8.86514 59.6288L9.09917 59.4807L9.35142 59.2456L9.47493 59.0019L9.6456 58.7389L9.77867 58.405L9.83233 58.0895L9.89785 57.9413L10.0396 57.7889L10.3884 57.1373L10.6396 56.9709L10.8779 56.9119L11.4672 57.0246L11.7732 57.0106L12.6706 57.0965L13.085 56.9709L13.3748 56.8464L13.7999 56.8657L14.3034 56.7669L14.9743 55.9457L14.9829 55.7708L15.0236 55.5851L15.2662 55.4015L15.5679 55.233L16.169 54.8304L17.3917 54.1917L17.8297 53.9351L18.0122 53.9416L18.463 53.7806L19.2531 53.4671L19.4764 53.0764L19.6846 52.998L20.6078 52.9282L20.6658 52.8832L20.698 52.8166L20.6465 52.5332L20.5863 52.2895L20.6583 52.2176L20.7356 52.106L20.7238 51.9492L20.5745 51.4404L20.4951 50.9573L20.4425 50.5204L20.4521 50.3573L20.5638 50.075L20.7087 49.8184L21.2315 49.579L21.5782 49.5071L21.5922 49.3504L21.312 49.2527L21.1091 49.096L21.0737 49.0069L21.0833 48.9049L21.1306 48.8115L21.4827 48.6354L21.8144 48.4605L22.2191 48.5668L22.2985 48.4991L22.3221 48.3241L22.2352 48.1481L22.1536 47.8593L21.9668 47.7112L21.9593 47.5341L22.0742 47.2281L21.9153 46.6614L21.7425 46.16L21.4494 45.2991L21.2551 45.0501L21.1467 44.6518L21.0254 44.4425L21.0361 44.1323L21.0566 43.9143L21.0254 43.4817L20.9685 43.0115L21.0254 42.5339L21.1349 42.2183L21.1059 42.097L21.1639 42.0068L21.3292 41.9767L21.4075 41.8468L21.3292 41.7137L21.0436 41.6107L20.7248 41.4507L20.3416 41.469L19.9487 41.4969L19.7523 41.3788L19.5805 41.2275L19.5708 41.1309L19.807 40.8754L20.1355 40.6102L20.6454 40.4932L21.2068 40.3182L21.4913 40.1916L21.8702 40.1003L22.3082 40.0617L22.5282 40.0874L23.0918 39.9178L23.9785 39.5894L24.7836 39.3135L25.0541 39.1492L25.2559 39.3135L25.3493 39.6752L25.5844 39.862L25.8174 39.9522L25.9516 39.9479L26.353 39.8073L26.7867 39.7042L26.9573 39.76L27.1774 39.9447L27.4243 40.11L27.5532 40.1025L27.6659 39.9747L27.7797 39.7171L27.8515 39.3886L27.8666 39.0408L27.8236 38.8282L27.7367 38.7499L27.3417 38.6243L26.9649 38.4193L26.922 38.2314L26.9305 38.0972L27.0304 37.7687L27.2762 37.1644L27.5231 36.3282L27.6541 35.6658L28.0673 34.675L28.3926 33.638L28.9186 32.1395L29.0066 31.8421L29.0549 31.3666L29.0828 31.1702L29.2664 31.0671L29.5756 31.168L30.3302 31.5115L30.9045 31.8003L31.1449 31.898L31.5024 31.9999L32.0553 32.1202L32.3751 32.0848L32.6553 32.0139L33.0289 32.0075L33.6118 32.0965L33.7921 32.0998L34.0165 32.1116L34.1753 32.2576L34.2548 32.5871L34.375 32.7353L34.5929 32.6805L35.0567 32.3896L35.353 32.161L35.7233 31.8293L36.0904 31.7842L36.4801 31.7101L36.6153 31.5459L36.7592 31.1594L36.9985 30.8674L37.0383 30.496L36.9546 30.2341L36.7882 29.8068L36.7935 29.5181L36.713 28.6797L36.6057 27.9229L36.7152 27.3121L36.9084 26.6272L36.9835 26.4169L37.1059 26.141L37.2788 25.8093L37.5213 25.7052L38.203 25.6343L38.8342 25.4947L39.1562 25.3509L39.4912 25.2639L39.6908 25.1588L40.0343 24.6725L40.1975 24.3923L40.3177 23.6473L40.2297 23.2888L40.3027 22.971L40.4691 22.7842L40.7031 22.5964L40.8599 22.5642L41.1937 22.5073L41.7411 22.5266L42.0203 22.6179L42.3036 22.6608L42.4829 22.5932L42.6021 22.4504L42.7856 22.4053L43.0615 22.3366L43.346 22.2507L43.5027 22.2668L43.5349 22.4783L43.5091 22.6436L43.5639 22.8648L43.6766 23.0107L43.6401 23.1685L43.4812 23.2598L43.3245 23.3832L43.2902 23.5518L43.4887 23.7611L43.5564 23.9618L43.8891 24.082L44.1479 24.2173L44.2444 24.3472L44.2155 24.4932L44.0963 24.6499L43.9814 24.8184L43.9664 24.9193L44.0029 25.0374L44.252 25.1158L44.5407 25.2457L44.998 25.4132L45.3115 25.7244L45.6228 25.8103L45.7731 26.113L45.7999 26.5521L46.1187 26.7754L46.59 27.0856L46.8294 27.1425L46.9893 27.3186L47.2201 27.5311L47.4251 27.5977L47.6688 27.6288L48.0703 27.4313L48.5211 27.412L48.767 27.5247L49.001 27.9498L49.1663 28.084L49.264 28.2031L49.4218 28.3169L49.5818 28.334L49.8201 28.2396L49.965 28.0517L50.1732 28.0904L50.2516 28.2128L50.2902 28.4221L50.4008 28.6819L50.6649 28.8751L51.0341 28.99L51.0857 29.0844L51.1372 29.3431L51.237 29.5224L51.3712 29.7564L51.4989 30.1826L51.5258 30.5347L51.5848 30.7279L51.7555 31.0424L52.0282 31.5448L52.245 31.9699L52.4962 32.0526L52.7098 32.1867L52.8322 32.5002L53.0587 33.0895L53.0952 33.4738L53.1145 33.7604L53.1886 33.8903L53.2047 34.0524L53.0158 34.6675L52.8558 34.9445L52.8354 35.1774L52.9438 35.5821L53.0931 35.8955L53.1081 36.1951L52.9814 36.414L52.7635 36.6878L52.6583 36.8445L52.4886 36.9819L52.2289 37.51L52.1119 38.0929L52.0851 38.3924L52.1838 38.6093L52.3492 38.8476L52.3899 39.0537L52.6615 39.5142L52.7334 39.7987L52.8451 39.8083L52.9643 39.715L53.2552 39.7085L53.5192 39.8094L53.7726 40.0198L54.0441 40.1315L54.4327 40.1035L54.6399 40.2162L54.8632 40.3086L55.3258 40.3408L55.6726 40.3397L56.205 40.3429L56.6355 40.4846L57.3923 40.5962L57.8603 40.5877L58.4894 40.4825L58.8747 40.549L60.0158 40.7058L60.6835 40.87L61.1065 41.0546L61.4038 41.3466L61.7441 41.8018L62.0146 42.01L62.7414 42.1356L63.2405 42.6659L63.6302 42.8634L64.2861 43.3755L64.7498 43.5751L65.3048 43.7587L66.2097 43.6803L66.2602 43.749L66.1904 44.026L66.1356 44.4049V44.6786L66.2291 44.8182L66.5747 44.9009L66.7379 45.035L66.8624 45.2927L66.9343 45.4526L67.2252 46.2405L67.6911 47.401L67.7448 47.8464L67.9037 48.133L68.4093 48.5871L68.6744 48.9231L69.0695 49.2752L69.1993 49.6005L69.2283 50.0202L69.3281 50.1286L70.0506 50.032L70.6764 49.9644L71.7992 49.8442L73.345 50.0631L74.9391 50.2746L76.3486 50.4614L77.0431 50.5527L78.6125 50.7491L79.4853 50.499L80.167 50.3036L80.4761 50.3305L81.7793 50.5505L82.5436 50.6686L83.5054 50.8167L84.1731 50.8715L84.7205 50.8682L84.9729 50.9305L85.2165 51.026L85.3786 51.1656L85.8789 51.8698L86.159 52.18L86.714 52.414L87.9742 52.6813L88.672 52.8434L89.4728 53.0291L90.0009 53.3093L90.6085 53.6346L91.3954 54.0554L92.2573 53.8718L93.1848 53.6732L93.7666 53.5487V54.4268L94.5964 54.4966L94.8562 54.4869L95.2233 54.6801L95.4294 54.5985L95.6259 54.4085L95.8717 54.108L96.2249 53.9759L96.8357 53.6389L96.9849 53.5573L97.892 53.0775L99.2467 52.4849L99.8543 52.1972L100.036 52.1328L100.379 51.9857L100.611 51.8838L101.021 51.8022L101.577 51.7507L102.185 51.639L103.559 51.4286L103.732 51.4093L104.503 51.3223L104.832 51.2408L105.323 51.2837L105.963 51.3137L106.388 51.3674L106.952 51.3255L107.727 51.2687L108.354 51.2772L108.665 51.2064L109.125 50.9842L109.433 50.8081L109.917 50.5945L110.518 50.3723L110.937 50.1705L111.214 50.0363L111.55 49.9096L111.638 49.7465L111.734 49.6209L111.913 49.4116L112.233 49.0208L112.478 48.6784L112.598 48.526L112.873 48.1835L113.096 47.9248L113.379 47.5759L113.617 47.4632L113.92 47.3677L114.715 47.0252L114.873 46.9512L115.005 46.9361L115.286 46.6592L115.525 46.4187L115.68 46.2395L116.004 46.174L116.169 46.0441L116.198 45.8745L116.165 45.6147L116.009 45.3485L115.878 45.1156L115.416 44.6711L115.172 44.3952L114.923 44.0399L114.821 43.7061L114.65 43.4935L114.568 43.3046L114.594 43.0867L114.831 42.6981L114.906 42.4523L115.005 42.0175L115.227 41.3659L115.409 41.06L115.618 40.7616L116.061 40.3601L116.467 40.286L116.709 40.3655H117.249L117.608 40.3869L117.873 40.5877L118.167 40.9838L118.498 41.1287L119.531 41.4389L119.972 41.5044L120.288 41.5184L120.755 41.6203L120.911 41.6429L121.151 41.7127L121.348 41.6375L121.648 41.3724L122.025 41.075L122.187 41.0063L122.486 40.8775L122.636 40.7562L122.899 40.4213L123.241 40.1615L123.657 39.7708L123.862 39.4766L123.907 39.2866L123.952 39.0805L124.081 38.9721L124.335 38.8723L124.62 38.8454L125.163 39.0225L125.898 38.9721L126.062 38.9463L126.731 38.8444L127.032 38.7606L127.457 38.6801L127.784 38.3516L128.221 37.9598L128.538 37.7419L128.75 37.7L129.014 37.4735L129.144 37.2299L129.109 37.0152L129.06 36.8381L129.216 36.5085L129.497 35.931L129.759 35.6615L129.976 35.4436L130.114 35.0926L130.285 34.9917L130.494 34.9531L130.789 34.7147L131.006 34.6664L131.367 34.7802L131.9 34.8092L132.241 34.821L132.435 34.7781L132.506 34.6503L132.504 34.4528L132.612 34.0127L132.653 33.8678L132.751 33.8001L133.079 33.7916L133.3 33.9494L133.453 34.0803L133.664 34.0975L133.882 34.0116L134.173 33.6552L134.658 33.448L134.916 33.3955L135.373 33.2269L135.662 33.2881L136.192 33.3375L136.397 33.2945L136.62 33.3375L136.823 33.0959L136.984 33.038L137.326 33.1496L137.54 33.3364L137.942 33.5704L138.454 33.6799L138.882 33.6241L139.322 33.7229L139.582 33.7143L139.706 33.622L140.066 33.4255L140.152 33.1593L140.117 32.9027L140.159 32.6118L140.052 32.3971L139.829 32.0794L139.742 31.8668L139.735 31.5888L139.595 31.3237L139.26 31.0038L139.04 30.8556L138.587 30.3017L138.434 30.1718L138.381 30.0806L138.328 29.8949L138.161 29.8058L137.941 29.6609L137.823 29.5127L137.745 29.2551L137.699 29.0866L137.505 28.947L137.311 28.8686L137.092 28.7699L136.729 28.625L136.52 28.3362L136.15 27.7941L135.941 27.6116L135.162 27.5419L134.881 27.4098L134.565 27.4549L134.376 27.5419L133.957 27.5408L133.74 27.5944L133.465 27.9519L133.098 28.4156L132.797 28.698L132.582 28.991L132.482 29.0962L132.287 29.0329L132.019 28.7033L131.635 28.4081L131.28 28.2739L131.128 28.1999L130.704 28.1247L130.376 28.1484L129.959 28.26L129.551 28.2396L129.367 28.1687L129.107 28.1763L128.637 28.4833L128.393 28.8322L128.105 28.9416L127.844 28.713L127.543 28.4425L127.256 28.1033L127.078 27.7887L126.98 26.9536L127.324 26.7045L127.764 26.4244L127.798 25.981L127.782 25.4862L127.869 24.9344L128.27 24.4245L128.486 24.0016L128.513 23.7375L128.706 23.2984L128.89 22.8347L129.143 22.225L129.62 21.1386L130.185 19.8483L130.467 19.2021L131.087 19.6025L131.486 19.8108L132.161 20.1263L132.858 20.1972L133.525 20.5385L133.868 20.6416H134.052L134.995 19.8108L135.793 19.1055L136.71 18.5537L137.384 18.4786L137.89 18.3175L138.227 18.0696L138.428 17.6552L138.489 17.0734L138.354 16.7202L138.024 16.5979L137.939 16.4744L138.098 16.3488L138.216 16.1051L138.29 15.7423L138.481 15.3967L138.787 15.0703L138.956 14.7075L138.988 14.3082L139.172 13.9088L139.508 13.5106L139.693 13.1391L139.724 12.7957L139.895 12.3749L140.358 11.6288L140.659 10.7668L141.172 10.1742L141.996 9.56451L142.511 8.958L142.716 8.3547L142.7 7.82013L142.461 7.35638L142.415 6.88406L142.563 6.40206L142.433 6.04138L142.026 5.80201L141.541 5.74297L140.978 5.86428L140.661 5.7129L140.591 5.28997L140.743 4.94754L141.115 4.68559L141.727 4.04688L142.579 3.02711L143.427 2.46138L144.692 2.29821L145.712 1.96222L146.751 1.62087L147.501 1.45124L147.629 1.56505L148.038 1.59296L148.728 1.53497L149.369 1.38792L149.962 1.15067L150.431 1.09485L150.775 1.22045L150.978 1.23549Z" fill="#FFEE2E" stroke="#EAF7FE"/>
</svg>
